<svg width="30" height="30" viewBox="0 0 30 30" fill="none" xmlns="http://www.w3.org/2000/svg">
<g clip-path="url(#clip0_4_557)">
<path d="M28.3219 17.006L28.2534 16.9423C28.2111 16.904 28.1697 16.8647 28.1291 16.8247L21.5936 10.291C21.5793 10.2767 21.5644 10.263 21.5489 10.25C21.2258 9.97906 20.848 9.78111 20.4413 9.66972V8.06907C20.4413 7.88311 20.3674 7.70476 20.2359 7.57326C20.1044 7.44177 19.9261 7.3679 19.7401 7.3679H16.5614C16.3754 7.3679 16.1971 7.44177 16.0656 7.57326C15.9341 7.70476 15.8602 7.88311 15.8602 8.06907V9.56482H2.34155C1.19905 9.56482 0.269714 10.4943 0.269714 11.6367V24.0496C0.269714 24.2355 0.343588 24.4139 0.475084 24.5454C0.60658 24.6769 0.784927 24.7507 0.97089 24.7507H2.80236C3.12182 26.1438 4.37061 27.1865 5.85935 27.1865C7.34808 27.1865 8.59688 26.1438 8.91634 24.7507H20.9339C21.2534 26.1438 22.5022 27.1865 23.9908 27.1865C25.4809 27.1865 26.7308 26.1417 27.0487 24.7465C28.3323 24.7019 29.3635 23.6467 29.3635 22.3524V19.4123C29.3627 18.9614 29.27 18.5155 29.0909 18.1017C28.9118 17.6879 28.6502 17.3151 28.3219 17.006ZM17.2627 8.77025H19.0391V9.56482H17.2627V8.77025ZM5.85921 25.7841C4.9028 25.7841 4.12464 25.006 4.12464 24.0496C4.12464 23.0932 4.9028 22.315 5.85921 22.315C6.81561 22.315 7.59378 23.0932 7.59378 24.0496C7.59378 25.006 6.81575 25.7841 5.85921 25.7841ZM9.46634 15.7277C9.46634 15.9137 9.39246 16.092 9.26097 16.2235C9.12947 16.355 8.95112 16.4289 8.76516 16.4289H7.62729V17.5668C7.62729 17.7527 7.55342 17.9311 7.42192 18.0626C7.29043 18.1941 7.11208 18.268 6.92612 18.268H5.5706C5.38464 18.268 5.20629 18.1941 5.0748 18.0626C4.9433 17.9311 4.86943 17.7527 4.86943 17.5668V16.4289H3.73156C3.5456 16.4289 3.36725 16.355 3.23575 16.2235C3.10426 16.092 3.03038 15.9137 3.03038 15.7277V14.3722C3.03038 14.1863 3.10426 14.0079 3.23575 13.8764C3.36725 13.7449 3.5456 13.671 3.73156 13.671H4.86943V12.5332C4.86943 12.3472 4.9433 12.1689 5.0748 12.0374C5.20629 11.9059 5.38464 11.832 5.5706 11.832H6.92626C7.01834 11.832 7.10952 11.8501 7.19459 11.8854C7.27966 11.9206 7.35695 11.9723 7.42206 12.0374C7.48717 12.1025 7.53882 12.1798 7.57406 12.2648C7.6093 12.3499 7.62743 12.4411 7.62743 12.5332V13.671H8.7653C8.95126 13.671 9.12961 13.7449 9.26111 13.8764C9.3926 14.0079 9.46648 14.1863 9.46648 14.3722L9.46634 15.7277ZM18.0109 16.4098C17.8471 16.4097 17.6901 16.3445 17.5744 16.2287C17.4586 16.113 17.3935 15.956 17.3933 15.7922V12.4828C17.3933 12.2931 17.5475 12.139 17.7373 12.139H19.9453C20.1633 12.139 20.3684 12.2238 20.5226 12.3781L23.8961 15.7517C24.0605 15.9161 24.0093 16.1002 23.9797 16.1719C23.9501 16.2434 23.856 16.4098 23.6234 16.4098H18.0109ZM23.9908 25.7841C23.0344 25.7841 22.2562 25.006 22.2562 24.0496C22.2562 23.0932 23.0342 22.315 23.9908 22.315C24.9473 22.315 25.7253 23.0932 25.7253 24.0496C25.7253 25.006 24.9472 25.7841 23.9908 25.7841ZM18.1508 6.5966C17.9649 6.5966 17.7865 6.52273 17.655 6.39123C17.5235 6.25974 17.4496 6.08139 17.4496 5.89543V3.93213C17.4496 3.84005 17.4678 3.74888 17.503 3.6638C17.5383 3.57873 17.5899 3.50144 17.655 3.43633C17.7201 3.37122 17.7974 3.31957 17.8825 3.28433C17.9676 3.24909 18.0587 3.23096 18.1508 3.23096C18.2429 3.23096 18.3341 3.24909 18.4191 3.28433C18.5042 3.31957 18.5815 3.37122 18.6466 3.43633C18.7117 3.50144 18.7634 3.57873 18.7986 3.6638C18.8339 3.74888 18.852 3.84005 18.852 3.93213V5.89543C18.852 6.08139 18.7781 6.25974 18.6466 6.39123C18.5151 6.52273 18.3368 6.5966 18.1508 6.5966ZM21.555 7.1926C21.4163 7.19273 21.2807 7.15169 21.1653 7.07468C21.0499 6.99766 20.9599 6.88814 20.9068 6.75997C20.8537 6.63181 20.8399 6.49076 20.867 6.35471C20.8941 6.21866 20.961 6.09371 21.0592 5.99569L22.2962 4.75868C22.361 4.69221 22.4383 4.63927 22.5237 4.60292C22.6092 4.56658 22.7009 4.54756 22.7938 4.54697C22.8866 4.54637 22.9786 4.56421 23.0645 4.59946C23.1504 4.6347 23.2284 4.68665 23.294 4.75229C23.3597 4.81792 23.4116 4.89594 23.4469 4.98181C23.4821 5.06768 23.5 5.15969 23.4994 5.25252C23.4988 5.34535 23.4798 5.43713 23.4435 5.52255C23.4072 5.60798 23.3542 5.68534 23.2878 5.75014L22.0508 6.98716C21.9858 7.05241 21.9085 7.10415 21.8234 7.13941C21.7383 7.17467 21.6471 7.19275 21.555 7.1926ZM15.0764 7.1926C14.9843 7.19272 14.8931 7.17463 14.808 7.13938C14.7229 7.10412 14.6456 7.05239 14.5806 6.98716L13.3436 5.75014C13.2771 5.68534 13.2242 5.60798 13.1878 5.52255C13.1515 5.43713 13.1325 5.34535 13.1319 5.25252C13.1313 5.15969 13.1492 5.06768 13.1844 4.98181C13.2197 4.89594 13.2717 4.81792 13.3373 4.75229C13.403 4.68665 13.481 4.6347 13.5668 4.59946C13.6527 4.56421 13.7447 4.54637 13.8376 4.54697C13.9304 4.54756 14.0222 4.56658 14.1076 4.60292C14.193 4.63927 14.2704 4.69221 14.3352 4.75868L15.5722 5.99569C15.6373 6.06078 15.689 6.13806 15.7242 6.22312C15.7594 6.30818 15.7776 6.39935 15.7776 6.49143C15.7776 6.5835 15.7594 6.67467 15.7242 6.75973C15.689 6.84479 15.6373 6.92207 15.5722 6.98716C15.5072 7.05241 15.4299 7.10415 15.3448 7.13941C15.2598 7.17467 15.1685 7.19275 15.0764 7.1926Z" fill="white"/>
</g>
<defs>
<clipPath id="clip0_4_557">
<rect width="29.0938" height="29.0938" fill="white" transform="translate(0.269714 0.660645)"/>
</clipPath>
</defs>
</svg>
