<svg width="29" height="30" viewBox="0 0 29 30" fill="none" xmlns="http://www.w3.org/2000/svg">
<g id="Frame">
<g id="Group">
<path id="Vector" d="M28.095 9.0851C27.7075 5.19673 24.8771 1 20.98 1C19.7538 1 18.5275 1.41721 17.3086 2.26033C16.4992 2.82681 15.5344 3.12903 14.5465 3.12552C13.5585 3.12201 12.5959 2.81296 11.7906 2.24074C10.5984 1.41721 9.37222 1 8.146 1C4.24965 1 1.41845 5.19673 1.03099 9.0851C0.810417 11.2952 1.85887 12.9633 2.87396 14.5777L3.10396 14.9463C4.13428 16.6013 4.4724 18.445 4.83011 20.3968C4.92081 20.8946 5.01296 21.3945 5.11671 21.8973C5.49184 23.7062 6.48733 28.5131 9.90697 28.9826C9.98678 28.9942 10.0666 29 10.1442 29C12.1512 29 12.7599 25.8677 13.4645 22.2405C13.5544 21.7747 13.6459 21.3082 13.7387 20.8525C13.8389 20.3635 14.2307 20.1879 14.563 20.1879C14.8953 20.1879 15.2871 20.3635 15.3873 20.8525C15.4809 21.3074 15.5715 21.774 15.6615 22.2398C16.3661 25.867 16.9748 28.9993 18.9818 29C19.0594 29 19.1385 28.9942 19.219 28.9826C22.6387 28.5131 23.6342 23.7062 24.0093 21.8966C24.113 21.3945 24.2052 20.8946 24.2959 20.3968C24.6536 18.445 24.9917 16.6013 26.0213 14.9463L26.2528 14.5777C27.2671 12.9633 28.3149 11.2952 28.095 9.0851ZM8.11988 6.08121C7.52055 6.15377 6.27836 7.64846 6.08463 9.58938C6.06539 9.78085 5.97087 9.95683 5.82187 10.0786C5.67287 10.2004 5.4816 10.258 5.29013 10.2388C5.09865 10.2195 4.92267 10.125 4.80088 9.97601C4.6791 9.82701 4.62149 9.63573 4.64074 9.44426C4.878 7.06945 6.42203 4.82451 7.94574 4.64022C8.04043 4.62827 8.13656 4.63522 8.22855 4.66066C8.32055 4.6861 8.40658 4.72953 8.48169 4.78843C8.55679 4.84734 8.61946 4.92055 8.66608 5.00384C8.71271 5.08713 8.74235 5.17883 8.7533 5.27365C8.76476 5.36827 8.75746 5.46422 8.73183 5.55602C8.70619 5.64782 8.66272 5.73366 8.6039 5.80866C8.54507 5.88365 8.47205 5.94632 8.389 5.99309C8.30595 6.03986 8.2145 6.0698 8.11988 6.08121Z" fill="white"/>
</g>
</g>
</svg>
