<svg width="31" height="30" viewBox="0 0 31 30" fill="none" xmlns="http://www.w3.org/2000/svg">
<g id="Frame">
<g id="Group">
<path id="Vector" d="M7.72717 8.93133C7.70746 9.65458 7.81703 10.5341 8.21976 11.4934C7.90177 11.9684 7.63266 12.4576 7.41237 12.9596C5.78468 12.9095 4.33665 13.6287 3.83664 13.9096C3.45639 13.6474 3.16245 13.29 2.96066 12.8446C2.88423 12.6754 2.82438 12.4993 2.78195 12.3186C3.9614 11.4942 5.59536 11.2124 5.61236 11.2094C5.69229 11.1961 5.76452 11.1538 5.81524 11.0906C5.86597 11.0274 5.89165 10.9477 5.88738 10.8668C5.88302 10.7859 5.84904 10.7094 5.79192 10.652C5.73479 10.5945 5.65852 10.5601 5.57764 10.5553C4.14385 10.4709 3.21868 9.80002 2.93763 9.56665C2.91575 8.63738 3.2191 7.95222 3.40793 7.61825C4.76838 8.32686 6.21857 8.76769 7.72717 8.93133ZM17.3255 2.09859C17.3366 2.10251 18.3539 2.46185 19.0633 3.3482C17.9729 4.05874 15.9052 5.813 14.1032 9.65808C12.9073 12.2104 11.9044 13.5893 11.1946 14.3313C10.1308 13.4024 9.35835 12.4161 8.89661 11.3962C8.89601 11.395 8.89565 11.3938 8.89505 11.3927C8.48978 10.4966 8.32355 9.58708 8.39895 8.6812C8.40107 8.66822 8.40224 8.65511 8.40245 8.64196C8.41863 8.46303 8.44406 8.28505 8.47863 8.10874C8.63974 7.2867 8.95188 6.77831 8.95459 6.77397C8.99064 6.71685 9.00823 6.65002 9.00498 6.58255C9.00174 6.51508 8.97781 6.45025 8.93645 6.39685L7.57335 4.63397L8.73273 3.60001L10.1378 5.45529C10.1898 5.52394 10.2666 5.56951 10.3517 5.58225C10.4369 5.59499 10.5236 5.57388 10.5934 5.52346L12.0295 4.48697C12.0947 4.43998 12.1405 4.3708 12.1583 4.29243C12.176 4.21406 12.1646 4.1319 12.126 4.06139L11.0877 2.16471L12.5275 1.50263L13.5412 3.39907C13.5805 3.47272 13.6463 3.52871 13.7253 3.55572C13.8043 3.58273 13.8906 3.57874 13.9668 3.54456L15.4982 2.85783C15.5771 2.82243 15.6389 2.75747 15.6704 2.67693C15.7019 2.59639 15.7005 2.50671 15.6665 2.42719L14.839 0.493262L16.2401 0L17.1335 1.92519C17.1521 1.96558 17.1787 2.00178 17.2117 2.03158C17.2447 2.06139 17.2834 2.08419 17.3255 2.09859Z" fill="white"/>
<path id="Vector_2" d="M27.373 19.4322C27.7857 22.9632 27.5807 25.8523 26.7803 27.7866C26.2656 29.0308 25.0596 29.8897 23.7076 29.9749C23.4586 29.9908 23.2112 29.9982 22.9655 29.9982C19.7266 29.9982 16.7858 28.692 14.8337 27.5492C12.5953 26.239 10.6908 24.4217 9.32602 22.2937C6.99147 18.6539 7.1319 15.6975 8.0059 13.5384C8.01584 13.5198 8.02386 13.5001 8.02994 13.4794C8.21004 13.0436 8.41978 12.641 8.64477 12.272C9.14436 13.1751 9.86605 14.0452 10.7979 14.8673C10.4332 15.1651 10.2068 15.2464 10.1473 15.2637C10.1052 15.2755 10.0659 15.2955 10.0317 15.3226C9.99744 15.3496 9.96891 15.3833 9.94776 15.4215C9.92661 15.4596 9.91326 15.5017 9.90849 15.5451C9.90371 15.5885 9.90761 15.6324 9.91995 15.6743C9.93229 15.7161 9.95283 15.7552 9.98038 15.789C10.0079 15.8229 10.0419 15.851 10.0804 15.8716C10.1189 15.8922 10.1611 15.905 10.2046 15.9092C10.248 15.9133 10.2919 15.9088 10.3336 15.8959C10.5287 15.8385 10.9416 15.6584 11.5264 15.1016C12.3293 14.3372 13.4556 12.8628 14.7873 10.0212C16.5345 6.29232 18.5122 4.6281 19.5355 3.96777C19.6065 3.92195 19.6811 3.88192 19.7585 3.84807C20.3472 3.59029 21.0503 3.71095 21.5104 4.17227C21.5263 4.1883 21.5417 4.20451 21.5569 4.22049C21.9389 4.62635 22.0766 5.21756 21.9163 5.76362C21.7563 6.30678 21.5282 6.80637 21.2538 7.28155C21.2425 7.29727 21.2327 7.31402 21.2245 7.33158C20.7661 8.11378 20.1843 8.83198 19.5822 9.57567C18.9132 10.4014 18.2296 11.2454 17.7176 12.2028C17.7093 12.2159 17.702 12.2295 17.6957 12.2436C17.6955 12.2439 17.6955 12.2442 17.6953 12.2444C17.4311 12.7446 17.2139 13.276 17.0703 13.8522C16.7022 15.3276 17.2072 16.6781 17.6955 17.984C18.1804 19.2804 18.6383 20.5048 18.3136 21.8515C18.302 21.9 18.3015 21.9505 18.3122 21.9992C18.3229 22.0479 18.3444 22.0936 18.3753 22.1327C18.4062 22.1719 18.4455 22.2036 18.4904 22.2254C18.5352 22.2472 18.5844 22.2585 18.6343 22.2585C18.7083 22.2585 18.7801 22.2335 18.8382 22.1877C18.8963 22.1419 18.9373 22.0779 18.9546 22.006C19.3264 20.4632 18.8112 19.0855 18.313 17.7531C17.8389 16.4857 17.3913 15.2887 17.7098 14.0119C17.821 13.5662 17.9797 13.1502 18.1739 12.7534C19.5961 13.0714 21.4426 13.7619 22.6412 15.2605C22.6721 15.2992 22.7113 15.3304 22.7559 15.3518C22.8006 15.3732 22.8495 15.3843 22.899 15.3841C22.961 15.3841 23.0218 15.3665 23.0743 15.3335C23.1268 15.3004 23.1689 15.2532 23.1958 15.1973C23.2226 15.1414 23.2332 15.079 23.2262 15.0173C23.2192 14.9557 23.1949 14.8973 23.1562 14.8488C22.5196 14.0529 21.6605 13.3931 20.6025 12.8873C19.9599 12.5801 19.255 12.3336 18.5015 12.1528C18.9505 11.4027 19.5134 10.708 20.0942 9.99088C20.6382 9.31921 21.1924 8.63501 21.6573 7.8868C22.5647 8.29833 23.7903 9.17528 24.9024 11.042C26.1325 13.1075 26.9637 15.9303 27.373 19.4322ZM23.2921 27.304C23.292 27.2166 23.2573 27.1328 23.1955 27.0709C23.1337 27.0091 23.0498 26.9744 22.9624 26.9743C20.38 26.9743 17.9472 25.8677 16.3609 24.9394C14.5324 23.8691 12.9799 22.3898 11.8713 20.6612C11.8479 20.6247 11.8176 20.5932 11.7821 20.5685C11.7465 20.5437 11.7065 20.5263 11.6642 20.517C11.6219 20.5078 11.5781 20.507 11.5355 20.5147C11.4929 20.5223 11.4522 20.5384 11.4158 20.5618C11.3794 20.5851 11.3479 20.6154 11.3231 20.651C11.2984 20.6865 11.2809 20.7266 11.2717 20.7689C11.2625 20.8112 11.2617 20.8549 11.2693 20.8975C11.277 20.9401 11.293 20.9808 11.3164 21.0172C12.4811 22.8329 14.1101 24.3859 16.0281 25.5082C17.6847 26.4779 20.2321 27.6335 22.9624 27.6335C23.0057 27.6336 23.0486 27.6251 23.0886 27.6086C23.1286 27.592 23.1649 27.5678 23.1956 27.5372C23.2262 27.5066 23.2505 27.4702 23.267 27.4302C23.2836 27.3902 23.2921 27.3473 23.2921 27.304Z" fill="white"/>
</g>
</g>
</svg>
