<svg width="30" height="30" viewBox="0 0 30 30" fill="none" xmlns="http://www.w3.org/2000/svg">
<g id="Frame" clip-path="url(#clip0_4_1042)">
<g id="Group">
<path id="Vector" d="M15.2968 8.41154C17.5425 8.41154 19.3618 6.52817 19.3618 4.20886C19.3618 1.88484 17.5425 0.00146484 15.2968 0.00146484C13.0492 0.00146484 11.2263 1.88484 11.2263 4.20886C11.2263 6.52817 13.0492 8.41154 15.2968 8.41154ZM22.5095 11.9773C22.3076 11.364 21.1545 9.5042 18.0257 9.48722L11.9009 9.50326C8.86355 9.33342 7.65105 11.1281 7.46139 11.9235C7.46139 11.9235 5.41006 18.4729 5.76202 19.9901C5.97998 20.9318 7.61425 22.0839 9.35421 22.9407L7.03679 30.0015H23.3776L21.1234 22.6935C22.6765 21.8716 24.0409 20.846 24.2381 19.9901C24.5948 18.4549 22.5095 11.9773 22.5095 11.9773ZM12.5567 19.1947C12.2649 19.3254 11.9489 19.3933 11.6292 19.3938C10.3516 19.3938 9.31741 18.3427 9.31741 17.0471C9.31741 15.7516 10.3525 14.7014 11.6292 14.7014C12.8832 14.7014 13.9136 15.7167 13.9475 16.983C14.2787 16.7448 14.6581 16.5825 15.0591 16.5074V16.514C15.5186 16.4263 15.8752 16.514 15.8752 16.514C17.417 16.8556 20.8243 18.3672 20.8243 18.3672C20.8243 18.3672 18.9956 20.6318 15.6743 20.6176C15.5875 20.6176 15.5025 20.6157 15.4223 20.612C15.1457 20.6061 14.8686 20.5869 14.5939 20.5544C13.0257 20.3695 12.5765 19.7844 12.5567 19.1947Z" fill="white"/>
</g>
</g>
<defs>
<clipPath id="clip0_4_1042">
<rect width="30" height="30" fill="white" transform="translate(0.000701904 0.00146484)"/>
</clipPath>
</defs>
</svg>
