<svg width="30" height="30" viewBox="0 0 30 30" fill="none" xmlns="http://www.w3.org/2000/svg">
<g id="Frame" clip-path="url(#clip0_4_893)">
<g id="Group">
<path id="Vector" d="M22.9172 11.9094C22.3324 11.921 21.8646 12.4029 21.835 12.9871L21.8335 13.0157V17.9814C21.8335 18.4677 21.4387 18.86 20.9525 18.8603C19.2567 18.8615 17.876 20.2355 17.8639 21.9288C17.8606 22.395 17.5092 22.7978 17.0439 22.8281C16.5318 22.8615 16.1061 22.4561 16.1061 21.9512C16.1061 19.5777 17.8204 17.5971 20.0758 17.1823V3.13243C20.0758 2.51632 19.5942 2.00151 19.0022 1.98493C18.7005 1.97602 18.4148 2.08776 18.1989 2.29788C17.9836 2.50724 17.8649 2.78767 17.8641 3.08772L17.8642 3.09089V11.0054C17.8642 11.4787 17.5005 11.8859 17.0278 11.9082C16.5231 11.932 16.1064 11.5298 16.1064 11.0303L16.1061 3.09089V1.14722C16.1061 0.531103 15.6244 0.0166498 15.0324 0.000419289C14.7311 -0.00772524 14.4462 0.103017 14.2304 0.312255C14.0093 0.526533 13.8942 0.827822 13.8942 1.13573V11.0055C13.8942 11.4788 13.5305 11.886 13.0578 11.9083C12.5531 11.932 12.1364 11.5299 12.1364 11.0303V3.11831C12.1364 2.51936 11.6717 2.00843 11.0732 1.98558C10.444 1.96155 9.92448 2.46675 9.92448 3.09101L9.92478 7.06073V12.9904C9.92478 13.4637 9.56109 13.8709 9.08835 13.8932C8.58363 13.917 8.16696 13.5148 8.16696 13.0153V7.0663C8.16696 7.06436 8.16667 7.06255 8.16667 7.06061C8.16667 6.75921 8.04767 6.47755 7.83157 6.26743C7.61577 6.05761 7.3306 5.94763 7.02919 5.95536C6.43669 5.97194 5.95476 6.48669 5.95476 7.1028L5.95745 19.5106C5.95782 21.1571 6.28581 22.787 6.92232 24.3054L7.8713 26.5693C7.9164 26.677 7.93963 26.7925 7.93962 26.9091V29.1211C7.93962 29.6065 8.33314 30 8.81853 30H19.1936C19.679 30 20.0725 29.6065 20.0725 29.1211V26.9091C20.0725 26.6759 20.1652 26.4522 20.3302 26.2874L22.7275 23.8921C23.5774 23.0429 24.0455 21.9135 24.0455 20.712V13.0152C24.0455 12.3979 23.5372 11.8972 22.9172 11.9094ZM9.04587 17.8638C8.55316 17.8638 8.18829 17.4611 8.16696 16.9849C8.14569 16.5102 8.58614 16.106 9.04587 16.106C9.53859 16.106 9.90345 16.5087 9.92478 16.9849C9.94605 17.4595 9.5056 17.8638 9.04587 17.8638ZM11.0304 25.8032C10.5377 25.8032 10.1728 25.4005 10.1515 24.9243C10.1302 24.4497 10.5707 24.0454 11.0304 24.0454C11.5231 24.0454 11.888 24.4481 11.9093 24.9243C11.9306 25.399 11.4902 25.8032 11.0304 25.8032ZM13.0152 21.1746C12.5225 21.1746 12.1577 20.7719 12.1363 20.2957C12.1151 19.821 12.5555 19.4168 13.0152 19.4168C13.508 19.4168 13.8728 19.8195 13.8942 20.2957C13.9154 20.7704 13.475 21.1746 13.0152 21.1746ZM15.0001 15.8789C14.5074 15.8789 14.1425 15.4762 14.1212 15C14.0999 14.5253 14.5404 14.1211 15.0001 14.1211C15.4928 14.1211 15.8577 14.5238 15.879 15C15.9003 15.4747 15.4598 15.8789 15.0001 15.8789ZM16.9853 27.7881C16.4926 27.7881 16.1277 27.3854 16.1064 26.9092C16.0851 26.4345 16.5255 26.0303 16.9853 26.0303C17.478 26.0303 17.8428 26.433 17.8642 26.9092C17.8854 27.3838 17.4451 27.7881 16.9853 27.7881Z" fill="white"/>
</g>
</g>
<defs>
<clipPath id="clip0_4_893">
<rect width="30" height="30" fill="white" transform="translate(-0.000320435)"/>
</clipPath>
</defs>
</svg>
