<svg width="30" height="30" viewBox="0 0 30 30" fill="none" xmlns="http://www.w3.org/2000/svg">
<g id="Frame" clip-path="url(#clip0_4_1134)">
<g id="Group">
<path id="Vector" d="M29.1132 5.29767C28.5055 3.79648 27.6009 2.43349 26.4536 1.29045C25.63 0.464183 24.5118 -0.00105597 23.3452 -0.002924C22.1786 -0.00479203 21.059 0.456864 20.2327 1.28049C19.4064 2.10411 18.9412 3.22223 18.9393 4.38887C18.9375 5.55552 19.3991 6.67512 20.2227 7.50138C19.7596 7.80265 19.3954 8.23367 19.1757 8.74064H18.6073C18.1982 8.74074 17.7934 8.82274 17.4165 8.98181C17.0397 9.14089 16.6985 9.37381 16.4131 9.66685C16.1277 9.95989 15.9039 10.3071 15.7548 10.688C15.6057 11.069 15.5345 11.4759 15.5452 11.8848V22.8102C15.3507 22.8026 15.1649 22.799 15.0003 22.8008C14.8356 22.8026 14.6487 22.8008 14.4553 22.8102V11.8824C14.466 11.4736 14.3947 11.0667 14.2456 10.6859C14.0965 10.305 13.8726 9.95786 13.5872 9.66489C13.3019 9.37191 12.9607 9.13904 12.5839 8.98C12.2071 8.82096 11.8022 8.73898 11.3932 8.73888H10.8249C10.6049 8.23256 10.2407 7.80218 9.77781 7.50138C10.6014 6.67512 11.0631 5.55552 11.0612 4.38887C11.0593 3.22223 10.5941 2.10411 9.76785 1.28049C9.35872 0.87267 8.87328 0.54943 8.33923 0.329222C7.80519 0.109014 7.233 -0.00384901 6.65533 -0.00292405C5.48869 -0.00105601 4.37057 0.464183 3.54695 1.29045C2.42179 2.41439 1.52919 3.74908 0.920189 5.21821C0.311188 6.68734 -0.00227356 8.2621 -0.00227356 9.85246C-0.00227356 11.4428 0.311188 13.0176 0.920189 14.4867C1.52919 15.9558 2.42179 17.2905 3.54695 18.4145C4.37057 19.2407 5.48869 19.706 6.65533 19.7078C7.233 19.7088 7.80519 19.5959 8.33923 19.3757C8.87328 19.1555 9.35872 18.8322 9.76785 18.4244C10.177 18.0166 10.5018 17.5322 10.7237 16.9989C10.9456 16.4655 11.0603 15.8937 11.0612 15.316C11.0621 14.7384 10.9493 14.1662 10.7291 13.6321C10.5089 13.0981 10.1856 12.6127 9.77781 12.2035C10.2407 11.9022 10.6049 11.4715 10.8249 10.9649H11.3932C11.5055 10.9649 11.6167 10.9875 11.72 11.0314C11.8234 11.0752 11.9169 11.1394 11.9949 11.2202C12.0729 11.301 12.1339 11.3966 12.1742 11.5014C12.2144 11.6062 12.2332 11.7181 12.2294 11.8303V23.1031C11.6077 23.3322 10.8987 23.7705 10.56 24.2539C10.3139 24.6395 10.0374 25.158 10.0327 25.9262C10.0391 26.6967 10.3122 27.3225 10.5524 27.7906C10.9796 28.577 12.0214 29.4219 12.7139 29.6463C13.1581 29.808 14.2813 30.0219 15.002 29.9979C15.7227 30.0201 16.8466 29.8063 17.2901 29.6463C17.9827 29.4213 19.0245 28.5776 19.4516 27.7906C19.6919 27.3219 19.9649 26.6967 19.9714 25.9262C19.9655 25.1586 19.6889 24.6371 19.444 24.2539C19.1053 23.7705 18.3964 23.3322 17.7747 23.1031V11.8309C17.7708 11.7187 17.7896 11.6068 17.8299 11.502C17.8702 11.3972 17.9311 11.3015 18.0092 11.2208C18.0872 11.14 18.1807 11.0758 18.284 11.0319C18.3874 10.9881 18.4985 10.9655 18.6108 10.9654H19.1792C19.3992 11.4721 19.7633 11.9028 20.2262 12.2041C19.4026 13.0304 18.941 14.15 18.9428 15.3166C18.9447 16.4833 19.4099 17.6014 20.2362 18.425C21.0625 19.2486 22.1821 19.7103 23.3487 19.7084C24.5154 19.7066 25.6335 19.2413 26.4571 18.4151C28.1393 16.7312 29.2883 14.5892 29.7607 12.2564C30.233 9.92356 30.0078 7.50329 29.1132 5.29767ZM8.27488 12.7279C8.26609 12.7361 7.38249 13.5289 7.19792 14.7699C7.16913 14.9645 7.0714 15.1422 6.92256 15.2707C6.77371 15.3992 6.58364 15.47 6.38699 15.4701C6.34619 15.4699 6.30546 15.4668 6.26511 15.4608C6.15853 15.4449 6.05612 15.4082 5.96372 15.3528C5.87131 15.2974 5.79074 15.2243 5.72659 15.1378C5.66243 15.0512 5.61596 14.9528 5.58983 14.8483C5.5637 14.7438 5.55842 14.6351 5.57429 14.5285C5.85203 12.6676 7.14871 11.535 7.20144 11.4858C7.28229 11.4116 7.37719 11.3545 7.48051 11.3177C7.58384 11.2809 7.6935 11.2652 7.803 11.2715C7.91251 11.2778 8.01963 11.306 8.11804 11.3545C8.21645 11.4029 8.30414 11.4706 8.37594 11.5535C8.44773 11.6364 8.50217 11.7329 8.53603 11.8372C8.56988 11.9416 8.58247 12.0516 8.57305 12.1609C8.56363 12.2702 8.53238 12.3765 8.48117 12.4735C8.42995 12.5705 8.35981 12.6562 8.27488 12.7256V12.7279ZM8.70964 9.04299C8.66958 9.22562 8.56832 9.38908 8.42265 9.5063C8.27698 9.62352 8.09564 9.68745 7.90867 9.68752C7.84957 9.68768 7.79062 9.68139 7.73289 9.66877C7.56765 9.63283 7.40789 9.59377 7.25359 9.55158C7.01921 9.65002 6.48074 9.94064 5.99734 10.6842C5.93935 10.776 5.8637 10.8554 5.77479 10.9178C5.68587 10.9801 5.58546 11.0242 5.47937 11.0475C5.37328 11.0707 5.26364 11.0727 5.15679 11.0532C5.04994 11.0338 4.94802 10.9933 4.85695 10.9341C4.76587 10.875 4.68744 10.7983 4.62622 10.7086C4.56499 10.6189 4.52219 10.5179 4.50029 10.4116C4.4784 10.3052 4.47784 10.1955 4.49866 10.0889C4.51947 9.98236 4.56125 9.88096 4.62156 9.79064C4.86025 9.41993 5.14604 9.08176 5.47175 8.78459C4.38074 8.12306 3.88093 7.39592 3.84988 7.34963C3.72866 7.16859 3.68434 6.94681 3.72664 6.73308C3.76895 6.51936 3.89442 6.33119 4.07546 6.20998C4.2565 6.08877 4.47828 6.04444 4.69201 6.08674C4.90573 6.12905 5.0939 6.25452 5.21511 6.43556C5.22331 6.44728 6.06589 7.63146 8.08621 8.06799C8.2979 8.11508 8.48233 8.2441 8.59916 8.42681C8.71599 8.60952 8.75572 8.83106 8.70964 9.04299ZM23.7348 15.4608C23.6947 15.4667 23.6541 15.4699 23.6135 15.4701C23.417 15.4699 23.2271 15.399 23.0783 15.2705C22.9296 15.142 22.832 14.9644 22.8032 14.7699C22.6186 13.5289 21.735 12.7361 21.7262 12.7279C21.5615 12.5857 21.4601 12.3838 21.4442 12.1667C21.4283 11.9496 21.4993 11.7352 21.6416 11.5704C21.7838 11.4057 21.9857 11.3042 22.2028 11.2884C22.4199 11.2725 22.6344 11.3435 22.7991 11.4858C22.8542 11.5326 24.1468 12.6653 24.4257 14.5262C24.4419 14.6329 24.4368 14.7418 24.4109 14.8466C24.3849 14.9514 24.3385 15.0501 24.2743 15.1369C24.2101 15.2237 24.1294 15.297 24.0369 15.3526C23.9443 15.4082 23.8416 15.4449 23.7348 15.4608ZM26.1507 7.34963C26.1196 7.39592 25.6198 8.12306 24.5288 8.78459C24.8541 9.08201 25.1395 9.42038 25.3778 9.79123C25.4381 9.88155 25.4799 9.98294 25.5007 10.0895C25.5215 10.1961 25.521 10.3058 25.4991 10.4122C25.4772 10.5185 25.4344 10.6195 25.3731 10.7092C25.3119 10.7989 25.2335 10.8756 25.1424 10.9347C25.0513 10.9939 24.9494 11.0343 24.8426 11.0538C24.7357 11.0733 24.6261 11.0713 24.52 11.0481C24.4139 11.0248 24.3135 10.9807 24.2246 10.9184C24.1357 10.856 24.06 10.7766 24.002 10.6848C23.5186 9.94123 22.9831 9.6506 22.7458 9.55217C22.5919 9.59552 22.4321 9.63459 22.2665 9.66935C22.2087 9.68198 22.1498 9.68827 22.0907 9.6881C21.8885 9.68758 21.6936 9.61241 21.5435 9.477C21.3933 9.34159 21.2984 9.1555 21.2771 8.95443C21.2557 8.75337 21.3094 8.5515 21.4277 8.38757C21.5461 8.22365 21.7209 8.10921 21.9184 8.06623C23.9364 7.6297 24.779 6.44552 24.7895 6.43381C24.9117 6.25552 25.0994 6.13268 25.3117 6.09198C25.5239 6.05127 25.7437 6.09599 25.9232 6.21642C26.1027 6.33686 26.2274 6.52326 26.2702 6.73513C26.313 6.94699 26.2705 7.16719 26.1518 7.34787L26.1507 7.34963Z" fill="white"/>
</g>
</g>
<defs>
<clipPath id="clip0_4_1134">
<rect width="30" height="30" fill="white" transform="translate(-0.000320435 0.000976562)"/>
</clipPath>
</defs>
</svg>
