<svg width="30" height="30" viewBox="0 0 30 30" fill="none" xmlns="http://www.w3.org/2000/svg">
<g id="Frame" clip-path="url(#clip0_4_991)">
<g id="Group">
<path id="Vector" d="M20.1669 14.9075L22.7219 14.6694C22.8457 14.658 22.9599 14.5978 23.0394 14.5022C23.1188 14.4065 23.157 14.2832 23.1456 14.1594C23.1342 14.0356 23.074 13.9214 22.9784 13.8419C22.8827 13.7624 22.7594 13.7242 22.6356 13.7356L20.0806 13.9738C19.9568 13.9852 19.8426 14.0454 19.7631 14.141C19.6836 14.2366 19.6454 14.3599 19.6569 14.4838C19.6683 14.6076 19.7285 14.7218 19.8241 14.8013C19.9197 14.8807 20.043 14.919 20.1669 14.9075ZM19.6494 16.2738L21.9887 17.3288C22.1021 17.3798 22.2311 17.3837 22.3474 17.3397C22.4637 17.2956 22.5577 17.2071 22.6087 17.0938C22.6598 16.9804 22.6637 16.8514 22.6196 16.7351C22.5756 16.6188 22.4871 16.5248 22.3737 16.4738L20.035 15.4188C19.9216 15.3676 19.7926 15.3636 19.6762 15.4076C19.5599 15.4517 19.4658 15.5401 19.4147 15.6535C19.3635 15.7668 19.3595 15.8959 19.4035 16.0122C19.4476 16.1285 19.536 16.2226 19.6494 16.2738ZM20.6494 19.4175C20.7345 19.5054 20.8506 19.5565 20.9729 19.56C21.0952 19.5634 21.2141 19.5189 21.304 19.4359C21.3939 19.3529 21.4478 19.238 21.4542 19.1158C21.4606 18.9936 21.4189 18.8738 21.3381 18.7819L19.5981 16.8963C19.5563 16.851 19.506 16.8144 19.4501 16.7886C19.3942 16.7627 19.3338 16.7482 19.2722 16.7457C19.2107 16.7432 19.1492 16.7529 19.0914 16.7742C19.0336 16.7955 18.9806 16.8279 18.9353 16.8697C18.89 16.9115 18.8534 16.9618 18.8276 17.0177C18.8018 17.0736 18.7872 17.1341 18.7847 17.1956C18.7823 17.2572 18.792 17.3186 18.8132 17.3764C18.8345 17.4342 18.867 17.4873 18.9087 17.5325L20.6494 19.4175ZM3.59436 14.4838C3.60004 14.4225 3.59358 14.3606 3.57535 14.3018C3.55713 14.243 3.5275 14.1883 3.48814 14.141C3.44879 14.0936 3.4005 14.0545 3.34601 14.0258C3.29153 13.9971 3.23192 13.9794 3.17061 13.9738L0.615608 13.7363C0.553438 13.7288 0.490398 13.7338 0.430213 13.7511C0.370027 13.7684 0.313914 13.7976 0.265188 13.8369C0.216462 13.8762 0.17611 13.9249 0.146515 13.9801C0.11692 14.0353 0.0986817 14.0959 0.0928769 14.1582C0.0870721 14.2206 0.0938185 14.2834 0.112718 14.3431C0.131617 14.4028 0.162286 14.4581 0.202914 14.5058C0.243542 14.5534 0.293306 14.5925 0.349266 14.6206C0.405227 14.6487 0.46625 14.6653 0.528733 14.6694L3.08373 14.9069C3.20746 14.9184 3.33069 14.8802 3.42632 14.8009C3.52195 14.7216 3.58279 14.6075 3.59436 14.4838ZM3.83623 15.6531C3.81091 15.597 3.77476 15.5463 3.72985 15.5042C3.68494 15.462 3.63216 15.4291 3.57451 15.4073C3.51687 15.3855 3.4555 15.3753 3.39392 15.3773C3.33233 15.3793 3.27174 15.3934 3.21561 15.4188L0.876858 16.4738C0.763478 16.5249 0.675056 16.619 0.631044 16.7353C0.587031 16.8516 0.591034 16.9807 0.642171 17.0941C0.693308 17.2075 0.787391 17.2959 0.903722 17.3399C1.02005 17.3839 1.1491 17.3799 1.26248 17.3288L3.60186 16.2738C3.65803 16.2484 3.70866 16.2123 3.75084 16.1674C3.79303 16.1225 3.82595 16.0697 3.84772 16.012C3.86949 15.9544 3.87968 15.893 3.87771 15.8315C3.87573 15.7699 3.86164 15.7093 3.83623 15.6531ZM3.65311 16.8963L1.91248 18.7819C1.83388 18.874 1.794 18.993 1.80118 19.1139C1.80837 19.2348 1.86208 19.3483 1.95105 19.4304C2.04002 19.5126 2.15734 19.5572 2.27843 19.5548C2.39952 19.5524 2.51498 19.5032 2.60061 19.4175L4.34123 17.5325C4.42561 17.4412 4.47024 17.3201 4.46532 17.1958C4.46039 17.0716 4.40632 16.9544 4.31498 16.87C4.22365 16.7856 4.10254 16.741 3.9783 16.7459C3.85405 16.7509 3.73748 16.8049 3.65311 16.8963ZM19.6412 28.6425C19.11 28.1113 19.0912 27.2488 19.5975 26.6988C19.3634 26.2968 19.1828 25.8661 19.06 25.4175C18.6996 25.3984 18.3602 25.242 18.1115 24.9805C17.8628 24.719 17.7236 24.3722 17.7225 24.0113C17.7225 23.255 18.3225 22.6363 19.0662 22.605C19.185 22.155 19.3662 21.7238 19.6037 21.3238C19.435 21.1425 19.3225 20.9238 19.2725 20.6988C18.4512 20.1503 17.4851 19.8587 16.4975 19.8613H15.3537V20.18L12.6725 23.8238C12.435 24.155 12.0412 24.355 11.6225 24.355C11.2162 24.355 10.8287 24.1613 10.5787 23.83L7.88498 20.18V19.8613H6.74123C3.95998 19.8613 1.70998 22.1113 1.70998 24.8925V27.8925C1.70998 28.8613 2.49748 29.6488 3.46623 29.6488H19.7787C20.3475 29.6488 20.8537 29.3738 21.1725 28.9488C21.0037 29.0175 20.8225 29.055 20.635 29.055C20.26 29.055 19.91 28.9113 19.6412 28.6425Z" fill="white"/>
<path id="Vector_2" d="M8.82289 19.5063V19.8751L11.3291 23.2688C11.4791 23.4688 11.7729 23.4688 11.9166 23.2688L14.4166 19.8751V19.5063C13.5416 19.9001 12.5979 20.1063 11.6229 20.1063C10.6416 20.1063 9.69164 19.9001 8.82289 19.5063ZM6.50414 7.2126H7.39789C8.13539 7.2126 8.81039 6.7251 9.04789 6.0251C9.19164 5.59385 9.59164 5.3001 10.0479 5.3001C10.5041 5.3001 10.9041 5.59385 11.0479 6.0251C11.2791 6.7251 11.9604 7.2126 12.7041 7.2126H16.7479C17.6354 7.2126 18.3666 7.90635 18.4166 8.78135C18.7416 8.90635 19.0416 9.1001 19.2979 9.3376V8.0251C19.2979 3.81822 15.8954 0.350098 11.6229 0.350098C7.38539 0.350098 3.95414 3.78135 3.95414 8.0251V9.33135C4.21039 9.09385 4.51039 8.90635 4.83539 8.7751C4.89164 7.9001 5.61664 7.2126 6.50414 7.2126Z" fill="white"/>
<path id="Vector_3" d="M16.0545 17.1447C16.9545 16.1122 17.4613 14.7953 17.4858 13.4259V8.88842C17.4858 8.48217 17.1545 8.15092 16.7483 8.15092H12.7045C11.5295 8.15092 10.5108 7.38842 10.1608 6.32592C10.1539 6.3014 10.1391 6.2798 10.1188 6.26443C10.0985 6.24905 10.0738 6.24072 10.0483 6.24072C10.0228 6.24072 9.99803 6.24905 9.97772 6.26443C9.95741 6.2798 9.94269 6.3014 9.93578 6.32592C9.57953 7.38842 8.56078 8.15092 7.39828 8.15092H6.50453C6.09203 8.15092 5.76703 8.48217 5.76703 8.88842V13.3134C5.76703 16.5278 8.37328 19.1697 11.6233 19.1697C13.392 19.1697 14.9795 18.3822 16.0545 17.1447ZM13.6545 9.91342H15.4733C15.5976 9.91342 15.7168 9.96281 15.8047 10.0507C15.8926 10.1386 15.942 10.2578 15.942 10.3822C15.942 10.5065 15.8926 10.6257 15.8047 10.7136C15.7168 10.8015 15.5976 10.8509 15.4733 10.8509H13.6545C13.5302 10.8509 13.411 10.8015 13.3231 10.7136C13.2352 10.6257 13.1858 10.5065 13.1858 10.3822C13.1858 10.2578 13.2352 10.1386 13.3231 10.0507C13.411 9.96281 13.5302 9.91342 13.6545 9.91342ZM7.19203 10.3822C7.19203 10.1259 7.39828 9.91342 7.66078 9.91342H9.47328C9.73578 9.91342 9.94203 10.1259 9.94203 10.3822C9.94203 10.6447 9.73578 10.8509 9.47328 10.8509H7.66078C7.39828 10.8509 7.19203 10.6447 7.19203 10.3822ZM8.01078 13.8884C7.81078 13.8884 7.62953 13.7572 7.56703 13.5572C7.48578 13.3072 7.62328 13.0447 7.87328 12.9697L8.73578 12.7009L8.00453 12.1072C7.9558 12.0688 7.91517 12.0212 7.88499 11.967C7.85481 11.9128 7.83568 11.8532 7.8287 11.7916C7.82172 11.73 7.82704 11.6676 7.84435 11.608C7.86166 11.5485 7.89061 11.4929 7.92953 11.4447C8.09203 11.2447 8.39203 11.2134 8.59203 11.3759L10.0045 12.5197C10.1358 12.6322 10.2045 12.8009 10.167 12.9759C10.1358 13.1447 10.017 13.2822 9.84828 13.3322L8.15453 13.8634C8.10453 13.8759 8.06078 13.8884 8.01078 13.8884ZM13.0795 17.3697H10.1733C9.65453 17.3697 9.32328 16.8134 9.57953 16.3634C9.7819 15.9986 10.078 15.6944 10.4373 15.4823C10.7966 15.2703 11.2061 15.158 11.6233 15.1572C12.5108 15.1572 13.2733 15.6447 13.6733 16.3634C13.9295 16.8134 13.5983 17.3697 13.0795 17.3697ZM15.2733 13.8634L13.5733 13.3322C13.4928 13.3073 13.4206 13.261 13.3645 13.1983C13.3083 13.1355 13.2703 13.0586 13.2545 12.9759C13.2233 12.8009 13.2858 12.6322 13.4233 12.5197L14.8358 11.3759C15.0358 11.2134 15.3295 11.2447 15.492 11.4447C15.6545 11.6509 15.6233 11.9447 15.4233 12.1072L14.692 12.7009L15.5545 12.9697C15.7983 13.0447 15.9358 13.3072 15.8608 13.5572C15.8427 13.6161 15.8131 13.6709 15.7737 13.7183C15.7343 13.7657 15.6858 13.8048 15.6311 13.8333C15.5765 13.8618 15.5167 13.8791 15.4552 13.8843C15.3938 13.8895 15.3319 13.8824 15.2733 13.8634ZM18.4233 9.83842V13.0884C18.6912 12.9106 18.9108 12.669 19.0624 12.3854C19.2141 12.1018 19.293 11.785 19.292 11.4634C19.292 10.7884 18.9483 10.1884 18.4233 9.83842ZM4.82953 13.0947V9.83217C4.55879 10.0096 4.33648 10.2516 4.18263 10.5364C4.02878 10.8211 3.94824 11.1397 3.94828 11.4634C3.94828 12.1509 4.29828 12.7509 4.82953 13.0947ZM29.4295 23.5447H28.7233C28.6295 22.6634 28.2795 21.8572 27.7483 21.2009L28.2545 20.7009C28.4358 20.5197 28.4358 20.2197 28.2545 20.0384C28.1662 19.9514 28.0473 19.9026 27.9233 19.9026C27.7993 19.9026 27.6803 19.9514 27.592 20.0384L27.0858 20.5384C26.4191 19.9923 25.6059 19.6553 24.7483 19.5697V18.8634C24.7483 18.7391 24.6989 18.6199 24.611 18.532C24.5231 18.4441 24.4039 18.3947 24.2795 18.3947C24.1552 18.3947 24.036 18.4441 23.9481 18.532C23.8602 18.6199 23.8108 18.7391 23.8108 18.8634V19.5697C22.9358 19.6634 22.1358 20.0134 21.4795 20.5447L20.9733 20.0384C20.8838 19.9513 20.7638 19.9025 20.6389 19.9025C20.514 19.9025 20.394 19.9513 20.3045 20.0384C20.1233 20.2197 20.1233 20.5197 20.3045 20.7009L20.817 21.2072C20.2725 21.8755 19.9338 22.6875 19.842 23.5447H19.1295C19.0052 23.5447 18.886 23.5941 18.7981 23.682C18.7102 23.7699 18.6608 23.8891 18.6608 24.0134C18.6608 24.1377 18.7102 24.257 18.7981 24.3449C18.886 24.4328 19.0052 24.4822 19.1295 24.4822H19.842C19.9545 25.5134 20.342 26.2197 20.817 26.8134L20.3045 27.3197C20.1233 27.5009 20.1233 27.8009 20.3045 27.9822C20.492 28.1697 20.792 28.1634 20.9733 27.9822L21.4733 27.4822C22.1295 28.0134 22.942 28.3447 23.8108 28.4384V29.1572C23.8108 29.2815 23.8602 29.4007 23.9481 29.4886C24.036 29.5765 24.1552 29.6259 24.2795 29.6259C24.4039 29.6259 24.5231 29.5765 24.611 29.4886C24.6989 29.4007 24.7483 29.2815 24.7483 29.1572V28.4509C25.6045 28.3572 26.4108 28.0197 27.0858 27.4759L27.592 27.9822C27.7545 28.1572 28.0608 28.1759 28.2545 27.9822C28.4358 27.8009 28.4358 27.5009 28.2545 27.3197L27.7483 26.8134C28.2888 26.1452 28.6271 25.3363 28.7233 24.4822H29.4295C29.5539 24.4822 29.6731 24.4328 29.761 24.3449C29.8489 24.257 29.8983 24.1377 29.8983 24.0134C29.8983 23.8891 29.8489 23.7699 29.761 23.682C29.6731 23.5941 29.5539 23.5447 29.4295 23.5447ZM21.3295 25.9322C20.8448 25.1952 20.6572 24.3019 20.8045 23.4322C21.4795 23.5072 22.0045 24.0697 22.0045 24.7634C22.0045 25.2634 21.7358 25.7009 21.3295 25.9322ZM23.4733 23.2197C23.4733 22.6197 23.9608 22.1322 24.5608 22.1322C24.7769 22.1314 24.9884 22.1949 25.1685 22.3145C25.3485 22.4341 25.4889 22.6045 25.572 22.8041C25.655 23.0036 25.677 23.2234 25.635 23.4354C25.593 23.6474 25.489 23.8422 25.3362 23.995C25.1833 24.1479 24.9885 24.2519 24.7765 24.2939C24.5645 24.3359 24.3447 24.3139 24.1452 24.2309C23.9456 24.1478 23.7752 24.0074 23.6556 23.8273C23.536 23.6473 23.4725 23.4358 23.4733 23.2197ZM24.2545 27.5384C24.2108 27.5384 24.1733 27.5384 24.1295 27.5322C24.117 27.4947 24.117 27.4509 24.117 27.4134C24.117 26.7384 24.667 26.1947 25.342 26.1947C25.7983 26.1947 26.1983 26.4509 26.4045 26.8259C25.7858 27.2935 25.0301 27.5439 24.2545 27.5384Z" fill="white"/>
</g>
</g>
<defs>
<clipPath id="clip0_4_991">
<rect width="30" height="30" fill="white" transform="translate(0.00101471 -0.00146484)"/>
</clipPath>
</defs>
</svg>
