<svg width="30" height="30" viewBox="0 0 30 30" fill="none" xmlns="http://www.w3.org/2000/svg">
<g id="Frame">
<g id="Group">
<path id="Vector" d="M17.8138 19.2197C21.9491 19.2197 25.3138 15.8443 25.3138 11.6954V11.5355C25.3152 11.0054 25.2114 10.4803 25.0086 9.99056C24.8058 9.50081 24.5079 9.05613 24.1321 8.68223C23.7584 8.30654 23.3138 8.00869 22.8242 7.80593C22.3346 7.60317 21.8097 7.49952 21.2798 7.50098H21.0937C18.7682 7.50098 16.8763 9.39332 16.8763 11.7188C16.8761 12.0214 16.8126 12.3206 16.6898 12.5972C16.567 12.8738 16.3877 13.1216 16.1634 13.3247C15.9386 13.5272 15.6742 13.6807 15.3869 13.7753C15.0995 13.8699 14.7957 13.9035 14.4946 13.8741L11.8944 13.6144C11.7625 13.6013 11.63 13.5947 11.4974 13.5947C9.29382 13.5947 7.50132 15.3872 7.50132 17.5908C7.50132 19.5225 9.07351 21.0947 11.0052 21.0947H20.1576C21.4499 21.0947 22.5013 22.1461 22.5013 23.4385C22.5013 24.7308 21.4499 25.7822 20.1576 25.7822H13.1263V24.8447H20.1576C20.9329 24.8447 21.5638 24.2138 21.5638 23.4385C21.5638 22.6632 20.9329 22.0322 20.1576 22.0322H11.0052C9.42695 22.0322 8.04226 21.2021 7.25429 19.9585C7.04129 20.1118 6.86767 20.3134 6.74765 20.5467C6.62763 20.7801 6.56463 21.0386 6.56382 21.301C6.56432 21.7434 6.74029 22.1676 7.05313 22.4804C7.36598 22.7933 7.79014 22.9692 8.23257 22.9697H19.6888V23.9072H8.90757C8.13226 23.9072 7.50132 24.5382 7.50132 25.3135C7.50132 26.0888 8.13226 26.7197 8.90757 26.7197H15.9388V27.6572H8.90757C8.78688 27.6626 8.67292 27.7144 8.58942 27.8017C8.50592 27.889 8.45932 28.0052 8.45932 28.126C8.45932 28.2468 8.50592 28.3629 8.58942 28.4503C8.67292 28.5376 8.78688 28.5893 8.90757 28.5947H19.6888C22.2735 28.5947 24.3763 26.4919 24.3763 23.9072C24.3763 21.893 23.0605 20.0883 21.1607 19.4593C20.105 19.9199 18.9656 20.1575 17.8138 20.1572C16.6579 20.1572 15.5334 19.823 14.5719 19.2197H11.2513C10.7544 19.2191 10.278 19.0215 9.92651 18.6702C9.57504 18.3189 9.37719 17.8426 9.37632 17.3457C9.37585 16.8446 9.57085 16.3735 9.92523 16.0191C10.2796 15.6647 10.7507 15.4697 11.2513 15.4697C11.9849 15.4697 12.6862 15.8204 13.1263 16.4072L13.6888 17.1572C14.1705 17.7962 14.7935 18.3149 15.5092 18.6727C16.2249 19.0305 17.0137 19.2178 17.8138 19.2197ZM12.1888 25.7822H9.37632V24.8447H12.1888V25.7822ZM20.6263 27.6572H16.8763V26.7197H20.6263V27.6572ZM18.5451 7.24363C18.3718 6.72463 18.2832 6.18112 18.2826 5.63395C18.2846 4.11509 18.7666 2.63575 19.6598 1.40723L18.0684 1.42457C17.2887 2.72522 16.8767 4.21313 16.8763 5.72957C16.8763 6.5616 17.0582 7.38051 17.3948 8.13707C17.7341 7.78645 18.1214 7.48565 18.5451 7.24363Z" fill="white"/>
<path id="Vector_2" d="M12.3772 16.9697C12.2458 16.7955 12.0759 16.6541 11.8807 16.5565C11.6855 16.4589 11.4704 16.4078 11.2522 16.4072C11.0019 16.4072 10.7661 16.5047 10.5889 16.6819C10.4583 16.8132 10.3694 16.9803 10.3336 17.162C10.2977 17.3437 10.3164 17.532 10.3873 17.7031C10.4582 17.8742 10.5782 18.0205 10.7321 18.1236C10.886 18.2266 11.067 18.2818 11.2522 18.2822H13.4183C13.2475 18.1046 13.0877 17.9168 12.9397 17.7197L12.3772 16.9697Z" fill="white"/>
</g>
</g>
</svg>
