<svg width="30" height="30" viewBox="0 0 30 30" fill="none" xmlns="http://www.w3.org/2000/svg">
<path d="M23.833 24.956L24.486 25.61L25.61 24.486L24.956 23.833C24.6102 24.2348 24.2348 24.6102 23.833 24.956ZM25.1925 26.3175L27.7675 28.8955C27.836 28.9626 27.9281 29.0002 28.024 29.0002C28.1199 29.0002 28.212 28.9626 28.2805 28.8955L28.8955 28.281C28.9628 28.2118 29.0002 28.1189 28.9996 28.0224C28.999 27.9259 28.9606 27.8335 28.8925 27.765L26.3175 25.193L25.1925 26.3175ZM1 14.445C1.00259 15.3409 1.30301 16.2106 1.854 16.917L5.433 21.467C6.12128 22.3494 6.49663 23.4355 6.5 24.5545V28.5C6.5 28.6326 6.55268 28.7598 6.64645 28.8536C6.74022 28.9473 6.86739 29 7 29H17C17.1326 29 17.2598 28.9473 17.3536 28.8536C17.4473 28.7598 17.5 28.6326 17.5 28.5V27.4745C17.333 27.4825 17.169 27.5 17 27.5C15.5109 27.5066 14.0374 27.1963 12.6774 26.5898C11.3174 25.9834 10.102 25.0946 9.11174 23.9824C8.12151 22.8702 7.37917 21.5602 6.93399 20.1392C6.48882 18.7181 6.35098 17.2187 6.52965 15.7403C6.70831 14.262 7.19938 12.8385 7.97026 11.5645C8.74114 10.2905 9.77419 9.19495 11.0009 8.3507C12.2275 7.50646 13.6197 6.93278 15.0851 6.66776C16.5504 6.40273 18.0553 6.45242 19.5 6.81352V4.58452C19.5078 4.2013 19.3741 3.82865 19.1245 3.53775C18.8749 3.24685 18.5269 3.05809 18.147 3.00752C17.9395 2.99097 17.7307 3.01707 17.5336 3.08421C17.3366 3.15135 17.1553 3.25811 17.001 3.39792C16.8468 3.53772 16.7227 3.70762 16.6365 3.89716C16.5504 4.08669 16.5039 4.29185 16.5 4.50002C16.5 4.63263 16.4473 4.75981 16.3536 4.85357C16.2598 4.94734 16.1326 5.00002 16 5.00002C15.8674 5.00002 15.7402 4.94734 15.6464 4.85357C15.5527 4.75981 15.5 4.63263 15.5 4.50002V3.58452C15.5078 3.2013 15.3741 2.82865 15.1245 2.53775C14.8749 2.24685 14.5269 2.05809 14.147 2.00752C13.9394 1.9909 13.7307 2.01695 13.5336 2.08406C13.3365 2.15117 13.1552 2.25792 13.0009 2.39775C12.8466 2.53757 12.7225 2.70749 12.6364 2.89706C12.5503 3.08663 12.5038 3.29183 12.5 3.50002C12.5 3.63263 12.4473 3.7598 12.3536 3.85357C12.2598 3.94734 12.1326 4.00002 12 4.00002C11.8674 4.00002 11.7402 3.94734 11.6464 3.85357C11.5527 3.7598 11.5 3.63263 11.5 3.50002V2.58452C11.5078 2.2013 11.3741 1.82865 11.1245 1.53775C10.8749 1.24685 10.5269 1.05809 10.147 1.00752C9.93932 0.990305 9.73031 1.01594 9.53295 1.08283C9.33558 1.14972 9.15405 1.25644 8.99963 1.39638C8.84521 1.53631 8.72118 1.70648 8.63524 1.89633C8.54929 2.08617 8.50326 2.29165 8.5 2.50002V3.00002C8.5 3.13263 8.44732 3.2598 8.35355 3.35357C8.25979 3.44734 8.13261 3.50002 8 3.50002C7.86739 3.50002 7.74022 3.44734 7.64645 3.35357C7.55268 3.2598 7.5 3.13263 7.5 3.00002C7.49747 2.79149 7.45195 2.58572 7.36628 2.39558C7.2806 2.20545 7.15662 2.03503 7.00208 1.895C6.84755 1.75496 6.66578 1.64832 6.46815 1.58173C6.27052 1.51515 6.06127 1.49005 5.8535 1.50802C5.47355 1.55847 5.1255 1.74711 4.87583 2.03792C4.62616 2.32872 4.49236 2.70131 4.5 3.08452V13C4.5 13.1326 4.44732 13.2598 4.35355 13.3536C4.25979 13.4473 4.13261 13.5 4 13.5C3.86739 13.5 3.74022 13.4473 3.64645 13.3536C3.55268 13.2598 3.5 13.1326 3.5 13V6.04452C2.80165 6.16317 2.16771 6.52487 1.71024 7.0657C1.25276 7.60652 1.0012 8.29166 1 9.00002V14.445ZM24.5 17C24.4994 15.6356 24.1266 14.2972 23.4218 13.1289C22.7169 11.9606 21.7067 11.0068 20.5 10.37V15.65C20.5003 16.2808 20.3676 16.9045 20.1105 17.4805L18.8 20.4275C18.6011 20.8753 18.4989 21.36 18.5 21.85V24.35C20.193 24.0021 21.7142 23.081 22.8071 21.7421C23.9001 20.4032 24.498 18.7284 24.5 17Z" fill="white"/>
<path d="M7.5 17C7.5 18.8789 8.05717 20.7157 9.10104 22.2779C10.1449 23.8402 11.6286 25.0578 13.3645 25.7769C15.1004 26.4959 17.0105 26.684 18.8534 26.3175C20.6962 25.9509 22.3889 25.0461 23.7175 23.7175C25.0461 22.3889 25.9509 20.6962 26.3175 18.8534C26.684 17.0105 26.4959 15.1004 25.7769 13.3645C25.0578 11.6286 23.8402 10.1449 22.2779 9.10104C20.7157 8.05717 18.8789 7.5 17 7.5C14.4813 7.50278 12.0665 8.50456 10.2856 10.2856C8.50456 12.0665 7.50278 14.4813 7.5 17ZM18 10.5C18.1326 10.5 18.2598 10.5527 18.3536 10.6464C18.4473 10.7402 18.5 10.8674 18.5 11V11.5C18.5 11.6326 18.4473 11.7598 18.3536 11.8536C18.2598 11.9473 18.1326 12 18 12C17.8674 12 17.7402 11.9473 17.6464 11.8536C17.5527 11.7598 17.5 11.6326 17.5 11.5V11C17.5 10.8674 17.5527 10.7402 17.6464 10.6464C17.7402 10.5527 17.8674 10.5 18 10.5ZM18 14.5C17.8674 14.5 17.7402 14.4473 17.6464 14.3536C17.5527 14.2598 17.5 14.1326 17.5 14V13.5C17.5 13.3674 17.5527 13.2402 17.6464 13.1464C17.7402 13.0527 17.8674 13 18 13C18.1326 13 18.2598 13.0527 18.3536 13.1464C18.4473 13.2402 18.5 13.3674 18.5 13.5V14C18.5 14.1326 18.4473 14.2598 18.3536 14.3536C18.2598 14.4473 18.1326 14.5 18 14.5ZM18.5 16V16.5C18.5 16.6326 18.4473 16.7598 18.3536 16.8536C18.2598 16.9473 18.1326 17 18 17C17.8674 17 17.7402 16.9473 17.6464 16.8536C17.5527 16.7598 17.5 16.6326 17.5 16.5V16C17.5 15.8674 17.5527 15.7402 17.6464 15.6464C17.7402 15.5527 17.8674 15.5 18 15.5C18.1326 15.5 18.2598 15.5527 18.3536 15.6464C18.4473 15.7402 18.5 15.8674 18.5 16ZM17.5 9C17.5 9.13261 17.4473 9.25979 17.3536 9.35355C17.2598 9.44732 17.1326 9.5 17 9.5C15.0109 9.5 13.1032 10.2902 11.6967 11.6967C10.2902 13.1032 9.5 15.0109 9.5 17C9.5 18.9891 10.2902 20.8968 11.6967 22.3033C13.1032 23.7098 15.0109 24.5 17 24.5C17.169 24.5 17.334 24.4855 17.5 24.4745V21.85C17.4997 21.2192 17.6324 20.5955 17.8895 20.0195L19.2 17.0725C19.3989 16.6247 19.5011 16.14 19.5 15.65V9.9285C19.296 9.85583 19.0877 9.792 18.875 9.737C18.7492 9.70156 18.6422 9.61825 18.5771 9.50493C18.5119 9.3916 18.4938 9.25726 18.5264 9.1307C18.5591 9.00413 18.6401 8.8954 18.752 8.82779C18.8638 8.76019 18.9978 8.73908 19.125 8.769C21.2189 9.30857 23.0285 10.6256 24.1858 12.4521C25.343 14.2785 25.761 16.4773 25.3546 18.601C24.9483 20.7248 23.7481 22.6139 21.9983 23.8841C20.2484 25.1543 18.0804 25.7102 15.9353 25.4387C13.7902 25.1671 11.829 24.0886 10.4509 22.4224C9.07283 20.7562 8.38125 18.6276 8.51689 16.4696C8.65254 14.3116 9.60522 12.2863 11.1811 10.8058C12.757 9.32532 14.8377 8.5008 17 8.5C17.1326 8.5 17.2598 8.55268 17.3536 8.64645C17.4473 8.74021 17.5 8.86739 17.5 9ZM16 20C15.8674 20 15.7402 19.9473 15.6464 19.8536C15.5527 19.7598 15.5 19.6326 15.5 19.5V19C15.5 18.8674 15.5527 18.7402 15.6464 18.6464C15.7402 18.5527 15.8674 18.5 16 18.5C16.1326 18.5 16.2598 18.5527 16.3536 18.6464C16.4473 18.7402 16.5 18.8674 16.5 19V19.5C16.5 19.6326 16.4473 19.7598 16.3536 19.8536C16.2598 19.9473 16.1326 20 16 20ZM16.5 21.5V22C16.5 22.1326 16.4473 22.2598 16.3536 22.3536C16.2598 22.4473 16.1326 22.5 16 22.5C15.8674 22.5 15.7402 22.4473 15.6464 22.3536C15.5527 22.2598 15.5 22.1326 15.5 22V21.5C15.5 21.3674 15.5527 21.2402 15.6464 21.1464C15.7402 21.0527 15.8674 21 16 21C16.1326 21 16.2598 21.0527 16.3536 21.1464C16.4473 21.2402 16.5 21.3674 16.5 21.5ZM16 17.5C15.8674 17.5 15.7402 17.4473 15.6464 17.3536C15.5527 17.2598 15.5 17.1326 15.5 17V16.5C15.5 16.3674 15.5527 16.2402 15.6464 16.1464C15.7402 16.0527 15.8674 16 16 16C16.1326 16 16.2598 16.0527 16.3536 16.1464C16.4473 16.2402 16.5 16.3674 16.5 16.5V17C16.5 17.1326 16.4473 17.2598 16.3536 17.3536C16.2598 17.4473 16.1326 17.5 16 17.5ZM16 15C15.8674 15 15.7402 14.9473 15.6464 14.8536C15.5527 14.7598 15.5 14.6326 15.5 14.5V14C15.5 13.8674 15.5527 13.7402 15.6464 13.6464C15.7402 13.5527 15.8674 13.5 16 13.5C16.1326 13.5 16.2598 13.5527 16.3536 13.6464C16.4473 13.7402 16.5 13.8674 16.5 14V14.5C16.5 14.6326 16.4473 14.7598 16.3536 14.8536C16.2598 14.9473 16.1326 15 16 15ZM16 12.5C15.8674 12.5 15.7402 12.4473 15.6464 12.3536C15.5527 12.2598 15.5 12.1326 15.5 12V11.5C15.5 11.3674 15.5527 11.2402 15.6464 11.1464C15.7402 11.0527 15.8674 11 16 11C16.1326 11 16.2598 11.0527 16.3536 11.1464C16.4473 11.2402 16.5 11.3674 16.5 11.5V12C16.5 12.1326 16.4473 12.2598 16.3536 12.3536C16.2598 12.4473 16.1326 12.5 16 12.5ZM14 18.5C13.8674 18.5 13.7402 18.4473 13.6464 18.3536C13.5527 18.2598 13.5 18.1326 13.5 18V17.5C13.5 17.3674 13.5527 17.2402 13.6464 17.1464C13.7402 17.0527 13.8674 17 14 17C14.1326 17 14.2598 17.0527 14.3536 17.1464C14.4473 17.2402 14.5 17.3674 14.5 17.5V18C14.5 18.1326 14.4473 18.2598 14.3536 18.3536C14.2598 18.4473 14.1326 18.5 14 18.5ZM14.5 20V20.5C14.5 20.6326 14.4473 20.7598 14.3536 20.8536C14.2598 20.9473 14.1326 21 14 21C13.8674 21 13.7402 20.9473 13.6464 20.8536C13.5527 20.7598 13.5 20.6326 13.5 20.5V20C13.5 19.8674 13.5527 19.7402 13.6464 19.6464C13.7402 19.5527 13.8674 19.5 14 19.5C14.1326 19.5 14.2598 19.5527 14.3536 19.6464C14.4473 19.7402 14.5 19.8674 14.5 20ZM14 16C13.8674 16 13.7402 15.9473 13.6464 15.8536C13.5527 15.7598 13.5 15.6326 13.5 15.5V15C13.5 14.8674 13.5527 14.7402 13.6464 14.6464C13.7402 14.5527 13.8674 14.5 14 14.5C14.1326 14.5 14.2598 14.5527 14.3536 14.6464C14.4473 14.7402 14.5 14.8674 14.5 15V15.5C14.5 15.6326 14.4473 15.7598 14.3536 15.8536C14.2598 15.9473 14.1326 16 14 16ZM14 13.5C13.8674 13.5 13.7402 13.4473 13.6464 13.3536C13.5527 13.2598 13.5 13.1326 13.5 13V12.5C13.5 12.3674 13.5527 12.2402 13.6464 12.1464C13.7402 12.0527 13.8674 12 14 12C14.1326 12 14.2598 12.0527 14.3536 12.1464C14.4473 12.2402 14.5 12.3674 14.5 12.5V13C14.5 13.1326 14.4473 13.2598 14.3536 13.3536C14.2598 13.4473 14.1326 13.5 14 13.5ZM12 18C11.8674 18 11.7402 17.9473 11.6464 17.8536C11.5527 17.7598 11.5 17.6326 11.5 17.5V17C11.5 16.8674 11.5527 16.7402 11.6464 16.6464C11.7402 16.5527 11.8674 16.5 12 16.5C12.1326 16.5 12.2598 16.5527 12.3536 16.6464C12.4473 16.7402 12.5 16.8674 12.5 17V17.5C12.5 17.6326 12.4473 17.7598 12.3536 17.8536C12.2598 17.9473 12.1326 18 12 18ZM12.5 19.5V20C12.5 20.1326 12.4473 20.2598 12.3536 20.3536C12.2598 20.4473 12.1326 20.5 12 20.5C11.8674 20.5 11.7402 20.4473 11.6464 20.3536C11.5527 20.2598 11.5 20.1326 11.5 20V19.5C11.5 19.3674 11.5527 19.2402 11.6464 19.1464C11.7402 19.0527 11.8674 19 12 19C12.1326 19 12.2598 19.0527 12.3536 19.1464C12.4473 19.2402 12.5 19.3674 12.5 19.5ZM12 15.5C11.8674 15.5 11.7402 15.4473 11.6464 15.3536C11.5527 15.2598 11.5 15.1326 11.5 15V14.5C11.5 14.3674 11.5527 14.2402 11.6464 14.1464C11.7402 14.0527 11.8674 14 12 14C12.1326 14 12.2598 14.0527 12.3536 14.1464C12.4473 14.2402 12.5 14.3674 12.5 14.5V15C12.5 15.1326 12.4473 15.2598 12.3536 15.3536C12.2598 15.4473 12.1326 15.5 12 15.5Z" fill="white"/>
</svg>
