<svg width="30" height="30" viewBox="0 0 30 30" fill="none" xmlns="http://www.w3.org/2000/svg">
<g id="Frame" clip-path="url(#clip0_4_982)">
<g id="Group">
<path id="Vector" d="M24.0428 15.193C22.4098 11.4474 20.6946 9.16172 22.7888 0.643066H12.9608C11.4865 1.59826 10.58 2.15719 9.01977 2.83658C8.88306 2.7197 8.70904 2.65558 8.52917 2.65582C8.11139 2.65582 7.77278 2.99443 7.77278 3.41221C7.77278 3.80572 8.07331 4.12898 8.45733 4.1652C8.55911 5.42912 9.19807 6.63469 10.1864 7.38844C11.051 7.13971 12.0447 6.99715 13.0206 7.0258C13.0742 7.02727 13.127 7.03929 13.1761 7.06118C13.2251 7.08307 13.2693 7.1144 13.3062 7.15338C13.3431 7.19236 13.3719 7.23822 13.3911 7.28836C13.4103 7.33849 13.4194 7.39191 13.4179 7.44557C13.4164 7.49922 13.4044 7.55206 13.3825 7.60107C13.3606 7.65007 13.3293 7.69429 13.2903 7.73118C13.2513 7.76808 13.2055 7.79694 13.1553 7.8161C13.1052 7.83527 13.0518 7.84437 12.9981 7.84289C12.3978 7.82525 11.819 7.87014 11.2653 7.97057C5.18329 9.19412 2.0504 16.8424 6.17059 22.4735C7.71149 24.5794 10.0069 25.9471 12.5155 26.3411C12.6369 27.6773 12.8693 28.4403 13.1981 29.3111L22.1247 29.3539V26.8129C21.6848 26.972 21.1277 27.1421 20.6225 27.2648C20.518 27.288 20.4085 27.2693 20.3176 27.2127C20.2267 27.156 20.1617 27.0659 20.1365 26.9619C20.1113 26.8578 20.128 26.748 20.1829 26.656C20.2378 26.5641 20.3266 26.4974 20.4302 26.4702C21.0669 26.3156 21.6294 26.1343 22.1246 25.9289C27.0979 23.9742 26.0253 19.7403 24.0428 15.1929V15.193ZM21.0678 18.0002C20.9766 18.0953 20.8649 18.1833 20.7306 18.2609L18.6232 19.4776C20.2341 22.1242 19.4675 24.1497 17.6705 24.947C14.7487 26.2434 11.3302 24.2869 9.84606 21.7281C9.21243 20.6356 9.08452 19.6091 9.46245 18.6486C7.73305 18.5808 6.28426 17.3177 5.98133 15.6137C5.67922 13.533 7.1095 11.5973 9.18717 11.2751C11.1453 10.9715 12.9896 12.2079 13.4817 14.0879C13.5261 14.2576 13.6566 14.3785 13.8291 14.4098C13.9204 14.4263 14.0052 14.4686 14.0732 14.5318C14.1413 14.5949 14.1899 14.6762 14.2132 14.766C14.2366 14.8559 14.2337 14.9505 14.205 15.0388C14.1763 15.1271 14.1229 15.2053 14.0512 15.2642C14.3544 15.7235 14.3786 16.8333 13.4723 17.846L14.6305 17.5337L15.2248 15.3157C15.3433 14.8736 15.802 14.6088 16.2441 14.7272C16.6862 14.8457 16.951 15.3043 16.8325 15.7465L16.29 17.7714L16.1126 17.8738L16.0902 17.8868C15.7284 18.0956 15.4847 18.4347 15.3837 18.8113C15.3633 18.8875 15.3488 18.965 15.3403 19.0434L13.2891 19.593C13.2372 19.6069 13.1885 19.6309 13.1458 19.6636C13.1031 19.6963 13.0672 19.7371 13.0403 19.7837C13.0134 19.8302 12.9959 19.8816 12.9888 19.935C12.9818 19.9883 12.9853 20.0425 12.9992 20.0944C13.0131 20.1464 13.037 20.1951 13.0697 20.2378C13.1025 20.2805 13.1433 20.3163 13.1898 20.3433C13.2364 20.3702 13.2878 20.3877 13.3411 20.3948C13.3945 20.4018 13.4486 20.3983 13.5006 20.3844L15.4767 19.8549C15.4879 19.8786 15.4998 19.9021 15.5124 19.9254C15.5323 19.9708 15.5608 20.0133 15.598 20.0505C15.7343 20.1868 15.8024 20.3669 15.8024 20.5472C15.8024 20.7276 15.7342 20.9077 15.598 21.0439C15.5233 21.1213 15.482 21.2249 15.4829 21.3325C15.4838 21.44 15.527 21.5429 15.603 21.6189C15.6791 21.695 15.7819 21.7381 15.8895 21.739C15.997 21.74 16.1006 21.6986 16.178 21.6239C16.4744 21.3275 16.6227 20.9372 16.6227 20.5472C16.6227 20.2968 16.5676 20.0428 16.4392 19.8204C16.141 19.3039 16.0897 18.832 16.6738 18.4948L19.9651 16.5945C20.861 16.0772 21.7835 17.2529 21.0679 18.0001L21.0678 18.0002ZM9.86762 16.5386C9.6756 16.793 9.40244 16.9743 9.09336 17.0522C8.78512 17.1301 8.45955 17.1003 8.17051 16.9679C7.88093 16.8363 7.64496 16.6098 7.50167 16.3259C7.35814 16.0424 7.31572 15.7184 7.38143 15.4075C7.42233 15.2123 7.50454 15.0281 7.62255 14.8673C7.74076 14.7063 7.89196 14.5723 8.06604 14.4744C8.11296 14.4481 8.16461 14.4313 8.21802 14.425C8.27144 14.4186 8.32558 14.4229 8.37735 14.4375C8.42913 14.452 8.47753 14.4767 8.51978 14.51C8.56203 14.5432 8.59732 14.5845 8.62362 14.6314C8.64992 14.6784 8.66672 14.73 8.67306 14.7834C8.6794 14.8368 8.67516 14.891 8.66058 14.9428C8.646 14.9945 8.62136 15.0429 8.58808 15.0852C8.55479 15.1274 8.51351 15.1627 8.46659 15.189C8.39444 15.2294 8.33173 15.2847 8.28266 15.3512C8.23377 15.4175 8.19963 15.4936 8.18253 15.5742C8.15506 15.7037 8.17255 15.8387 8.23211 15.9569C8.29168 16.0752 8.38976 16.1696 8.51018 16.2246C8.63294 16.2805 8.76846 16.2897 8.89473 16.2577C9.02225 16.2253 9.13489 16.1503 9.21401 16.0452C9.28016 15.9605 9.37694 15.9052 9.48347 15.8913C9.59 15.8773 9.69776 15.9057 9.78352 15.9705C9.86927 16.0352 9.92615 16.1311 9.94189 16.2374C9.95764 16.3436 9.93099 16.4519 9.86768 16.5387L9.86762 16.5386ZM12.2507 14.514C12.1104 14.7129 11.8697 14.9015 11.5828 14.9824C11.341 15.0506 11.0674 15.0469 10.7918 14.9184C10.6932 14.8725 10.6169 14.7893 10.5796 14.6871C10.5424 14.585 10.5472 14.4722 10.5931 14.3736C10.639 14.2751 10.7222 14.1988 10.8243 14.1615C10.9265 14.1243 11.0392 14.1291 11.1378 14.1749C11.2169 14.2118 11.2941 14.2132 11.3616 14.1942C11.4574 14.1671 11.5362 14.1064 11.581 14.0429C11.6117 13.9982 11.6509 13.9601 11.6964 13.9307C11.7418 13.9013 11.7927 13.8813 11.846 13.8717C11.8993 13.8621 11.954 13.8632 12.0069 13.8748C12.0597 13.8865 12.1098 13.9086 12.1541 13.9397C12.1984 13.9709 12.236 14.0105 12.2649 14.0563C12.2938 14.1022 12.3133 14.1532 12.3222 14.2066C12.3312 14.26 12.3295 14.3147 12.3173 14.3674C12.305 14.4202 12.2823 14.47 12.2507 14.5139L12.2507 14.514Z" fill="white"/>
</g>
</g>
<defs>
<clipPath id="clip0_4_982">
<rect width="30" height="30" fill="white" transform="translate(0.000701904 -0.00146484)"/>
</clipPath>
</defs>
</svg>
