<svg width="30" height="30" viewBox="0 0 30 30" fill="none" xmlns="http://www.w3.org/2000/svg">
<g id="Frame" clip-path="url(#clip0_4_1143)">
<g id="Group">
<path id="Vector" d="M3.55413 15.2029L7.66864 16.5745L7.66887 16.5743C7.6707 15.2393 7.55676 13.9067 7.32832 12.5915L5.16094 0.000976562H2.70317C2.20858 0.000976562 1.81155 0.408438 1.8245 0.902852C1.87506 2.83 2.09637 7.48697 3.0651 11.3288C3.38092 12.5811 3.52108 13.912 3.55413 15.2029Z" fill="white"/>
<path id="Vector_2" d="M28.1756 27.8885C28.119 26.5794 26.8168 25.6238 25.4769 26.0605C24.6696 26.3235 23.8013 26.3344 23.0384 25.9633L17.7037 23.3679C15.627 22.3575 14.2162 20.3325 14.0876 18.0425L14.0872 18.0342C14.0741 17.7975 14.0822 17.4103 14.1019 17.174L15.1099 5.10473L15.5248 0.967598C15.5767 0.450098 15.1703 0.000976562 14.6503 0.000976562H6.9453L8.12796 6.87074L8.66368 7.00469L10.1062 4.11965C10.3233 3.68547 10.8512 3.50951 11.2853 3.7266C11.7195 3.94369 11.8955 4.47162 11.6784 4.90574L10.4105 7.44139L11.6913 7.7616C12.1623 7.87932 12.4485 8.3565 12.3308 8.82742C12.2131 9.29834 11.7359 9.58463 11.265 9.46691L8.45386 8.76414L8.95981 11.7033L11.3444 13.1341C11.7607 13.3838 11.8956 13.9237 11.6459 14.3399C11.3961 14.7562 10.8563 14.8911 10.44 14.6414L9.29128 13.9521C9.38154 14.8108 9.42695 15.6736 9.42733 16.537C9.42702 17.9029 9.314 19.2666 9.08942 20.614L11.9657 22.5314C12.3696 22.8007 12.4787 23.3464 12.2094 23.7503C11.9402 24.1541 11.3945 24.2632 10.9906 23.994L8.71237 22.4752L8.23454 24.6253C8.12925 25.0991 7.65974 25.3979 7.18589 25.2926C6.71204 25.1873 6.41327 24.7178 6.51856 24.244L7.1212 21.5322C7.35016 20.5009 7.50798 19.4551 7.59352 18.4022L3.53462 17.0492C3.39716 20.0942 2.80208 22.5322 2.80208 22.5322C2.80208 22.5322 -0.00860453 31.8727 7.6803 29.6626C8.15995 29.5247 8.5905 29.2623 9.00223 28.9822C9.77889 28.454 10.8039 28.4562 11.5784 28.9889C12.5755 29.6748 13.7801 30.001 14.9938 30.001H26.0186C27.1993 30.001 28.2262 29.0578 28.1756 27.8885Z" fill="white"/>
</g>
</g>
<defs>
<clipPath id="clip0_4_1143">
<rect width="30" height="30" fill="white" transform="translate(-3.05176e-05 0.000976562)"/>
</clipPath>
</defs>
</svg>
