<svg width="30" height="30" viewBox="0 0 30 30" fill="none" xmlns="http://www.w3.org/2000/svg">
<g id="Frame" clip-path="url(#clip0_4_1031)">
<g id="Group">
<path id="Vector" d="M6.74506 10.7695C6.65257 9.7097 6.79557 8.64256 7.16381 7.6445C6.73881 7.6445 6.22631 7.60388 5.72006 8.10388C5.50625 8.31757 5.35902 8.5887 5.29621 8.8844C5.23341 9.1801 5.25772 9.48767 5.36622 9.76982C5.47471 10.052 5.66273 10.2966 5.90746 10.474C6.1522 10.6515 6.44316 10.7541 6.74506 10.7695ZM23.1732 7.64138H22.8357C23.2043 8.63938 23.3483 9.70636 23.2576 10.7664C23.6431 10.7481 24.0082 10.5878 24.2826 10.3164C24.504 10.098 24.6552 9.81851 24.7169 9.51368C24.7786 9.20885 24.7479 8.89255 24.6288 8.60526C24.5096 8.31798 24.3075 8.07279 24.0481 7.90107C23.7888 7.72936 23.4842 7.63894 23.1732 7.64138ZM14.6451 2.43825C14.7036 2.50492 14.7757 2.55835 14.8565 2.59499C14.9374 2.63163 15.0251 2.65064 15.1138 2.65075C15.3624 2.65075 15.6009 2.74952 15.7767 2.92534C15.9525 3.10116 16.0513 3.33961 16.0513 3.58825C16.0513 3.83689 15.9525 4.07535 15.7767 4.25117C15.6009 4.42698 15.3624 4.52575 15.1138 4.52575C14.5896 4.52514 14.0789 4.35976 13.6538 4.05302C13.2287 3.74627 12.9108 3.31367 12.7451 2.81638C8.79506 4.182 6.44506 8.75388 7.65756 12.0133C7.98741 11.8048 8.37053 11.6963 8.76068 11.7008C8.98568 11.7008 8.98256 11.7008 10.3232 11.9383C11.9468 12.2113 13.5225 12.7176 15.0013 13.4414C16.4821 12.7103 18.061 12.1977 19.6888 11.9195C21.1513 11.6695 21.1419 11.6601 21.3607 11.6601C21.7176 11.6579 22.0678 11.7577 22.3701 11.9476C23.8857 7.72888 19.5513 2.05075 14.6451 2.43825ZM13.5107 8.12888C13.4145 8.41623 13.231 8.6664 12.9858 8.84453C12.7407 9.02266 12.4461 9.11988 12.143 9.12263C11.84 9.12538 11.5437 9.03353 11.2953 8.85988C11.047 8.68623 10.859 8.43943 10.7576 8.15388C10.7298 8.07556 10.7343 7.98941 10.77 7.9144C10.8058 7.83938 10.8699 7.78164 10.9482 7.75388C11.0265 7.72611 11.1126 7.7306 11.1877 7.76635C11.2627 7.8021 11.3204 7.86618 11.3482 7.9445C11.4065 8.10489 11.5127 8.24345 11.6525 8.34137C11.7923 8.43928 11.9588 8.49181 12.1294 8.49181C12.3001 8.49181 12.4666 8.43928 12.6064 8.34137C12.7461 8.24345 12.8524 8.10489 12.9107 7.9445C12.9418 7.87286 12.9987 7.81547 13.07 7.78364C13.1413 7.75182 13.222 7.74787 13.2961 7.77258C13.3702 7.79728 13.4324 7.84884 13.4704 7.91711C13.5084 7.98537 13.5194 8.06538 13.5013 8.14138L13.5107 8.12888ZM15.4513 11.0508C15.4513 11.1336 15.4184 11.2131 15.3598 11.2717C15.3012 11.3303 15.2217 11.3633 15.1388 11.3633C15.0559 11.3633 14.9764 11.3303 14.9178 11.2717C14.8592 11.2131 14.8263 11.1336 14.8263 11.0508V10.4976C14.8263 10.4147 14.8592 10.3353 14.9178 10.2767C14.9764 10.2181 15.0559 10.1851 15.1388 10.1851C15.2217 10.1851 15.3012 10.2181 15.3598 10.2767C15.4184 10.3353 15.4513 10.4147 15.4513 10.4976V11.0508ZM19.3544 8.12888C19.2589 8.41732 19.0755 8.66866 18.83 8.84768C18.5845 9.0267 18.2891 9.12443 17.9853 9.12718C17.6814 9.12994 17.3843 9.03758 17.1356 8.86305C16.8868 8.68851 16.6989 8.44054 16.5982 8.15388C16.5704 8.07556 16.5749 7.98941 16.6107 7.9144C16.6464 7.83938 16.7105 7.78164 16.7888 7.75388C16.8671 7.72611 16.9533 7.7306 17.0283 7.76635C17.1033 7.8021 17.161 7.86618 17.1888 7.9445C17.2471 8.10489 17.3533 8.24345 17.4931 8.34137C17.6329 8.43928 17.7994 8.49181 17.9701 8.49181C18.1407 8.49181 18.3072 8.43928 18.447 8.34137C18.5868 8.24345 18.693 8.10489 18.7513 7.9445C18.7774 7.86577 18.8337 7.80063 18.9079 7.76341C18.982 7.7262 19.0679 7.71996 19.1466 7.74607C19.2254 7.77217 19.2905 7.82849 19.3277 7.90262C19.3649 7.97676 19.3712 8.06264 19.3451 8.14138L19.3544 8.12888ZM21.1294 12.3101C19.3513 12.6226 17.8357 12.8258 15.6951 13.8101C18.3619 15.2816 20.5867 17.4395 22.1388 20.0601C22.3522 20.4193 22.5281 20.7994 22.6638 21.1945V13.6039C22.6638 13.4127 22.6221 13.2239 22.5415 13.0505C22.461 12.8772 22.3435 12.7235 22.1974 12.6003C22.0512 12.4771 21.8799 12.3873 21.6955 12.3372C21.511 12.287 21.3178 12.2778 21.1294 12.3101ZM18.8607 29.5133C20.0116 28.9124 21.0025 28.0457 21.7513 26.9851C20.996 28.0398 20.0066 28.9051 18.8607 29.5133ZM22.2888 26.1289C22.4419 25.8383 22.3888 25.9351 22.2388 26.2164C22.2576 26.1883 22.2732 26.157 22.2888 26.1289Z" fill="white"/>
<path id="Vector_2" d="M10.2134 12.5405L9.00711 12.3343C8.80118 12.2985 8.58989 12.3085 8.38824 12.3635C8.1866 12.4185 7.99952 12.5172 7.84027 12.6526C7.68103 12.788 7.55351 12.9567 7.46678 13.1469C7.38004 13.3371 7.3362 13.544 7.33836 13.753V21.5655C8.36415 21.1031 9.52205 21.0251 10.6006 21.3458C11.6791 21.6665 12.6063 22.3644 13.2129 23.3121C13.8194 24.2598 14.0648 25.3941 13.9042 26.5078C13.7437 27.6215 13.1879 28.6402 12.3384 29.378C18.3477 31.6374 24.679 25.5749 21.6134 20.403C20.3967 18.3444 18.747 16.575 16.7785 15.2174C14.81 13.8597 12.5699 12.9464 10.2134 12.5405ZM15.1134 3.8999C15.1962 3.8999 15.2757 3.86698 15.3343 3.80837C15.3929 3.74977 15.4259 3.67028 15.4259 3.5874C15.4259 3.50452 15.3929 3.42504 15.3343 3.36643C15.2757 3.30783 15.1962 3.2749 15.1134 3.2749C14.7818 3.2749 14.4639 3.14321 14.2295 2.90879C13.9951 2.67437 13.8634 2.35642 13.8634 2.0249C13.8634 1.69338 13.9951 1.37544 14.2295 1.14102C14.4639 0.906598 14.7818 0.774902 15.1134 0.774902C15.1962 0.774902 15.2757 0.741978 15.3343 0.683373C15.3929 0.624768 15.4259 0.545283 15.4259 0.462402C15.4259 0.379522 15.3929 0.300037 15.3343 0.241431C15.2757 0.182826 15.1962 0.149902 15.1134 0.149902C14.6161 0.149902 14.1392 0.347446 13.7875 0.699077C13.4359 1.05071 13.2384 1.52762 13.2384 2.0249C13.2384 2.52218 13.4359 2.9991 13.7875 3.35073C14.1392 3.70236 14.6161 3.8999 15.1134 3.8999Z" fill="white"/>
<path id="Vector_3" d="M13.3598 25.7955C13.3625 24.9149 13.0791 24.0572 12.5521 23.3516C12.0251 22.6461 11.2831 22.1309 10.4379 21.8836C9.59263 21.6364 8.68994 21.6705 7.86578 21.9808C7.04161 22.2911 6.3406 22.8608 5.86833 23.6041C5.39607 24.3474 5.17813 25.2241 5.24734 26.102C5.31655 26.9799 5.66917 27.8116 6.25208 28.4717C6.83499 29.1318 7.61662 29.5847 8.47923 29.762C9.34184 29.9393 10.2387 29.8316 11.0348 29.4549L11.141 29.5143L11.0379 29.4549C11.7322 29.1281 12.3193 28.6105 12.7304 27.9625C13.1416 27.3146 13.3599 26.563 13.3598 25.7955ZM11.7723 27.0018H10.5223V28.2518H9.37538C9.15591 28.0549 8.94727 27.8463 8.75038 27.6268H9.87226V26.3768H11.1223V25.2143H9.87226V23.9643H8.72851V25.2143H7.47851V26.3799H7.86288C7.88475 26.4112 7.90038 26.4455 7.92226 26.4768L7.866 26.3799H8.73476V27.5862C8.56518 27.3945 8.40559 27.1942 8.25663 26.9862C8.40663 27.1987 8.56913 27.3987 8.73476 27.6112V27.6518H8.75038C8.941 27.8705 9.14413 28.0768 9.35351 28.2768H8.10351V27.0268H6.85351V24.5893H8.10351V23.3393H10.516V24.5893H11.766L11.7723 27.0018Z" fill="white"/>
</g>
</g>
<defs>
<clipPath id="clip0_4_1031">
<rect width="30" height="30" fill="white" transform="translate(0.000396729 0.00146484)"/>
</clipPath>
</defs>
</svg>
