<svg width="30" height="30" viewBox="0 0 30 30" fill="none" xmlns="http://www.w3.org/2000/svg">
<g id="Frame" clip-path="url(#clip0_4_961)">
<g id="Group">
<path id="Vector" d="M21.2548 12.51C21.8707 13.2102 21.7877 14.9665 21.6986 15.6071C21.6857 15.7213 21.718 15.8361 21.7884 15.9269C21.8589 16.0177 21.962 16.0775 22.0759 16.0934C22.1897 16.1093 22.3053 16.0802 22.398 16.0122C22.4907 15.9442 22.5532 15.8427 22.5721 15.7293C22.6083 15.4756 22.8598 13.4775 22.1592 12.263C22.1654 12.2497 22.1694 12.2356 22.1742 12.2219C22.1928 12.1765 22.2031 12.1281 22.2046 12.079C22.2042 12.0299 22.1949 11.9814 22.1773 11.9356C22.1724 11.9206 22.1685 11.906 22.1619 11.8915C22.1742 11.8721 22.1844 11.8509 22.1963 11.831C22.2342 11.768 22.2708 11.704 22.3048 11.6369C22.3224 11.6012 22.3388 11.5633 22.3555 11.5266C22.3802 11.4728 22.4049 11.4194 22.4274 11.3638C22.4442 11.3219 22.4596 11.2796 22.4755 11.2368C22.5314 11.087 22.5794 10.9345 22.6194 10.7797C22.6459 10.6795 22.6699 10.5785 22.6913 10.4771C22.701 10.433 22.7107 10.3888 22.7191 10.3447C22.7305 10.2847 22.7411 10.2256 22.7508 10.166L22.7707 10.0496C22.7887 9.93138 22.8043 9.81283 22.8174 9.69399C22.8254 9.6256 22.8324 9.5581 22.8386 9.49281C22.8421 9.45531 22.8443 9.42046 22.8474 9.38384C22.8518 9.33266 22.8558 9.28149 22.8589 9.23252C22.8727 9.02323 22.8802 8.81358 22.8814 8.60384L22.8819 8.54516L22.8814 8.46355L22.881 8.42296L22.8792 8.34884C22.8717 8.10487 22.6793 7.92222 22.4248 7.9209C22.3078 7.92459 22.1971 7.97449 22.1169 8.05967C22.0367 8.14485 21.9935 8.25835 21.9969 8.37531C21.9982 8.41854 21.9991 8.46619 21.9995 8.51781L21.9986 8.63649L21.9982 8.68502C21.9973 8.74281 21.9955 8.80413 21.9929 8.86899V8.87031C21.9607 9.72046 21.7943 11.0638 21.2535 11.6277L19.2227 11.6065C18.7826 11.601 18.3458 11.6827 17.9374 11.847C17.529 12.0112 17.1572 12.2547 16.8435 12.5634C16.528 12.8707 16.2766 13.2376 16.104 13.6427C15.9313 14.0479 15.8408 14.4833 15.8376 14.9237L15.7577 26.0868C15.7573 26.1447 15.7683 26.2022 15.7901 26.2558C15.8119 26.3095 15.8441 26.3584 15.8848 26.3996C15.9254 26.4409 15.9739 26.4737 16.0272 26.4963C16.0806 26.5188 16.1379 26.5306 16.1958 26.531H16.1989C16.3153 26.531 16.427 26.4851 16.5096 26.4031C16.5923 26.3211 16.6392 26.2098 16.6401 26.0934L16.7199 14.9316C16.7224 14.6074 16.7891 14.2868 16.9162 13.9885C17.0434 13.6902 17.2284 13.4201 17.4607 13.1938C17.9318 12.7328 18.5702 12.4734 19.2135 12.4888L21.2548 12.51Z" fill="white"/>
<path id="Vector_2" d="M28.8639 9.51371C28.6257 8.46371 28.2198 7.47547 27.6419 6.58871C27.2228 5.94459 26.7728 5.42841 26.3095 5.01812C26.0845 4.81959 25.8595 4.64753 25.6345 4.49753C23.7419 3.22253 21.7654 3.41223 20.8301 3.61518C20.2433 3.74312 19.7492 3.97694 19.3698 4.31224C19.2683 4.40047 19.1757 4.49753 19.0875 4.599C19.0654 4.62547 19.0433 4.64753 19.0257 4.674C18.9463 4.77106 18.8669 4.86812 18.8007 4.974C18.7963 4.98282 18.7919 4.99165 18.7875 4.99606C18.7213 5.10194 18.6639 5.20782 18.611 5.31812C18.5464 5.44874 18.489 5.58276 18.4389 5.71959C18.4257 5.75929 18.4125 5.79459 18.3992 5.82988C18.3683 5.92694 18.3419 6.02841 18.3154 6.12988C18.3022 6.17841 18.2933 6.22694 18.2801 6.27988C18.2625 6.36371 18.2448 6.44753 18.2316 6.53135C18.2183 6.60635 18.2095 6.68135 18.2007 6.75635L18.1742 6.99459L18.161 7.18871C18.1566 7.25488 18.1566 7.31665 18.1522 7.38282V7.71812C18.1522 7.77547 18.1522 7.82841 18.1566 7.88135C18.161 7.96076 18.161 8.03576 18.1698 8.11076C18.1698 8.15488 18.1742 8.199 18.1786 8.24312C18.1875 8.38871 18.2051 8.52988 18.2228 8.67106C18.2228 8.70194 18.2272 8.72841 18.2316 8.75929C18.2404 8.84312 18.2536 8.92253 18.2669 9.00635L18.2801 9.08576C18.3066 9.24459 18.333 9.40341 18.3639 9.55341C18.3683 9.56665 18.3683 9.57988 18.3728 9.58871C18.3904 9.67253 18.4036 9.75194 18.4213 9.83135L18.4345 9.87988C18.4698 10.0299 18.5051 10.1755 18.5404 10.3166C18.5448 10.3211 18.5448 10.3299 18.5492 10.3387C18.5669 10.4093 18.5845 10.4755 18.6022 10.5416C18.611 10.5593 18.6154 10.5769 18.6198 10.5946C18.6331 10.6475 18.6507 10.7049 18.6639 10.7534H18.6772C18.7566 10.7402 18.8404 10.7358 18.9198 10.7314C19.008 10.7225 19.0963 10.7225 19.1801 10.7225L20.7816 10.7402C21.0066 10.2064 21.1389 9.18282 21.1125 8.40194C21.1029 8.0512 21.2326 7.71095 21.4732 7.45551C21.7137 7.20008 22.0456 7.05023 22.3963 7.03871C23.1507 7.03871 23.7375 7.60341 23.7595 8.31812C23.7728 8.71959 23.7904 10.6519 23.0845 12.0461V12.1387C23.7242 13.5681 23.4992 15.4608 23.4463 15.8534C23.3999 16.1684 23.2423 16.4564 23.0019 16.6652C22.7615 16.874 22.4544 16.9898 22.136 16.9916C21.9467 16.991 21.7598 16.95 21.5877 16.8711C21.4156 16.7923 21.2624 16.6776 21.1383 16.5347C21.0142 16.3918 20.9221 16.224 20.8682 16.0426C20.8143 15.8612 20.7998 15.6703 20.8257 15.4828C20.9183 14.8078 20.8875 13.8902 20.7375 13.3872L19.2022 13.3696H19.158C19.1051 13.3696 19.0522 13.374 19.0036 13.3784C18.9683 13.3828 18.9375 13.3872 18.9066 13.3961C18.858 13.4005 18.8095 13.4137 18.761 13.4269C18.708 13.6166 18.6595 13.8019 18.6154 13.9872C18.5757 14.1505 18.5316 14.3137 18.4963 14.4725C18.4654 14.6181 18.4433 14.7637 18.4169 14.9049C18.3816 15.0902 18.3507 15.2711 18.3242 15.4475C18.3066 15.5755 18.2933 15.699 18.2801 15.8225C18.2625 16.0034 18.2448 16.1799 18.236 16.3475C18.2316 16.4622 18.2272 16.5725 18.2272 16.6828C18.2272 16.8505 18.2316 17.0137 18.2404 17.1725C18.2448 17.274 18.2492 17.3755 18.258 17.4725C18.2757 17.6314 18.2978 17.7814 18.3286 17.9314C18.3419 18.0152 18.3551 18.1034 18.3772 18.1872C18.4125 18.3372 18.461 18.4828 18.5095 18.624C18.5316 18.6902 18.5536 18.7608 18.5757 18.8225C18.6507 19.0078 18.7389 19.1755 18.8404 19.3387C18.8492 19.3519 18.8536 19.3696 18.8625 19.3828C19.2551 20.0005 19.8286 20.4505 20.5478 20.7196C20.8742 20.8431 21.2228 20.9314 21.6066 20.9755C21.8095 20.9975 22.0169 21.0108 22.2242 21.0108C23.5919 21.0108 24.9728 20.4902 26.0978 19.5328C26.2125 19.4358 26.3228 19.3299 26.4286 19.224C28.1757 17.5387 28.8331 15.2049 29.036 13.2019C29.0801 12.7916 29.1066 12.3902 29.1154 12.0152C29.1375 11.1549 29.0492 10.3166 28.8639 9.51371ZM11.7242 15.8578C11.711 15.7211 11.6933 15.5799 11.6757 15.4387C11.6492 15.2666 11.6183 15.0858 11.5875 14.9093C11.561 14.7681 11.5389 14.6269 11.508 14.4814C11.4639 14.2784 11.4066 14.0666 11.3536 13.8505C11.3183 13.7181 11.2919 13.5902 11.2522 13.4534C11.2522 13.4446 11.2478 13.4402 11.2478 13.4314C11.111 13.3916 10.9654 13.3696 10.8154 13.3696L10.308 13.374L9.26246 13.3872C9.12128 13.8637 9.07275 14.7505 9.17864 15.4828C9.20409 15.6706 9.18913 15.8616 9.13477 16.0431C9.0804 16.2247 8.98788 16.3925 8.8634 16.5353C8.73892 16.6782 8.58535 16.7928 8.41298 16.8715C8.24061 16.9502 8.05342 16.9912 7.86393 16.9916C7.5449 16.9896 7.23719 16.8732 6.99674 16.6635C6.75628 16.4538 6.59906 16.1648 6.55364 15.849C6.49628 15.4166 6.28452 13.5593 6.91981 12.1387C6.9154 12.1211 6.9154 12.1034 6.9154 12.0858V12.0461C6.23599 10.7137 6.22276 8.93576 6.2404 8.32253C6.25099 7.97698 6.39627 7.64926 6.64522 7.40938C6.89417 7.1695 7.22705 7.03647 7.57276 7.03871C8.33158 7.06076 8.90511 7.66959 8.88746 8.39753C8.86099 9.25782 9.00658 10.2372 9.21393 10.7402L10.4183 10.7269L10.8154 10.7225C10.9919 10.7225 11.1639 10.7314 11.336 10.7578C11.3536 10.7049 11.3669 10.6431 11.3845 10.5858L11.3978 10.5461L11.4507 10.3475L11.4639 10.2902C11.4948 10.1711 11.5257 10.0519 11.5566 9.924C11.5654 9.88429 11.5742 9.849 11.583 9.81371L11.6228 9.61518C11.636 9.56224 11.6448 9.50929 11.6536 9.45635C11.6757 9.36371 11.6889 9.26665 11.7066 9.16959C11.7198 9.10341 11.7286 9.03723 11.7375 8.97106L11.7639 8.79459C11.7772 8.70635 11.786 8.61812 11.7948 8.52547C11.8036 8.46812 11.808 8.41076 11.8125 8.349C11.8213 8.25635 11.8301 8.16371 11.8345 8.06665C11.8389 8.01812 11.8389 7.96959 11.8433 7.92106C11.8478 7.80635 11.8522 7.69165 11.8522 7.57253C11.8522 7.54165 11.8522 7.51518 11.8478 7.48871C11.8478 7.374 11.8433 7.25929 11.8389 7.149C11.8338 7.10949 11.8309 7.06972 11.8301 7.02988C11.8169 6.90194 11.808 6.76959 11.786 6.64165V6.61959C11.7639 6.49606 11.7419 6.37253 11.7154 6.249C11.7066 6.21812 11.6978 6.18724 11.6933 6.15635C11.6272 5.89606 11.5433 5.64459 11.433 5.40635C11.4242 5.38429 11.411 5.35782 11.4022 5.33576C11.283 5.09753 11.1419 4.86812 10.9654 4.66076C10.9522 4.64312 10.9389 4.62547 10.9213 4.60782C10.833 4.50635 10.736 4.40488 10.6301 4.31224C10.2507 3.97694 9.76099 3.74312 9.16981 3.61518C7.98746 3.35929 5.1507 3.11665 2.91834 5.83429C2.72864 6.06371 2.53893 6.31076 2.35805 6.58871C2.2654 6.72988 2.18158 6.87988 2.09776 7.02988C1.48011 8.10635 1.09187 9.31959 0.946285 10.6034C0.893343 11.0666 0.871285 11.5387 0.88452 12.0152C0.946285 14.3269 1.51981 17.5034 3.90217 19.5328C5.02717 20.4902 6.40805 21.0108 7.7757 21.0108C7.98305 21.0108 8.1904 20.9975 8.39775 20.9755C9.26246 20.874 9.98158 20.5652 10.533 20.0799C10.7669 19.8769 10.9698 19.6475 11.1375 19.3828C11.1683 19.3387 11.186 19.2814 11.2169 19.2328C11.2875 19.1049 11.358 18.9769 11.4154 18.8402C11.4551 18.7431 11.4816 18.6416 11.5169 18.5446C11.5522 18.4343 11.5875 18.324 11.6183 18.2093C11.6448 18.099 11.6625 17.9799 11.6845 17.8652C11.7022 17.7461 11.7242 17.6314 11.7375 17.5078C11.7507 17.3843 11.7595 17.2564 11.7639 17.124C11.7683 16.9961 11.7728 16.8593 11.7728 16.7225C11.7728 16.5902 11.7683 16.4578 11.7595 16.3166C11.7507 16.1666 11.7375 16.0166 11.7242 15.8578Z" fill="white"/>
<path id="Vector_3" d="M10.8139 11.606H10.7786L8.74787 11.6272C8.20699 11.0634 8.04067 9.72002 8.00802 8.86987V8.86855C8.00581 8.80413 8.00405 8.74237 8.00317 8.68413L8.00273 8.6356L8.00184 8.51737C8.00184 8.46575 8.00272 8.4181 8.00405 8.37531C8.00738 8.25835 7.9642 8.14485 7.88398 8.05967C7.80377 7.97449 7.69305 7.92459 7.57611 7.9209C7.33611 7.92178 7.13008 8.10443 7.1217 8.3484L7.12037 8.42252L7.11993 8.4631L7.11905 8.54472L7.11949 8.6034C7.12014 8.77778 7.12558 8.95211 7.13581 9.12619L7.14199 9.23208L7.1539 9.3834C7.1719 9.60612 7.1975 9.82816 7.23067 10.0491C7.2364 10.088 7.2439 10.1268 7.25052 10.1656C7.26067 10.2252 7.27037 10.2843 7.28228 10.3443C7.29067 10.3884 7.30037 10.4325 7.30964 10.4766C7.33138 10.5781 7.3555 10.679 7.38199 10.7793C7.40855 10.8792 7.43783 10.9783 7.46978 11.0766C7.48743 11.1305 7.5064 11.1834 7.52581 11.2363C7.54125 11.2791 7.5567 11.3215 7.5739 11.3634C7.59596 11.419 7.62067 11.4724 7.64537 11.5258C7.66258 11.5628 7.67846 11.6008 7.69655 11.6365C7.73052 11.7035 7.76714 11.7675 7.80508 11.8306C7.81699 11.8505 7.82714 11.8716 7.83949 11.891C7.83287 11.9056 7.8289 11.9202 7.82405 11.9352C7.8064 11.9809 7.79713 12.0295 7.7967 12.0785C7.7967 12.1293 7.80993 12.1765 7.8267 12.2215C7.83199 12.2352 7.83552 12.2493 7.84214 12.2625C7.14155 13.4771 7.39302 15.4752 7.42875 15.7288C7.44751 15.8425 7.50995 15.9443 7.60275 16.0125C7.69554 16.0807 7.81133 16.1099 7.92538 16.0939C8.03943 16.0779 8.1427 16.0179 8.21313 15.9268C8.28355 15.8356 8.31555 15.7206 8.30228 15.6062C8.21317 14.9656 8.13023 13.2097 8.74611 12.5096L10.7879 12.4884H10.8139C11.4635 12.4893 12.0866 12.746 12.5484 13.2029C13.0101 13.6599 13.2733 14.2803 13.281 14.9299L13.3613 26.093C13.3622 26.2094 13.4091 26.3207 13.4917 26.4026C13.5743 26.4846 13.686 26.5306 13.8024 26.5306H13.8055C13.8635 26.5302 13.9207 26.5184 13.9741 26.4958C14.0275 26.4733 14.0759 26.4405 14.1166 26.3992C14.1573 26.358 14.1894 26.3091 14.2112 26.2554C14.233 26.2017 14.244 26.1443 14.2436 26.0863L14.1633 14.9219C14.1439 13.0862 12.6452 11.606 10.8139 11.606Z" fill="white"/>
</g>
</g>
<defs>
<clipPath id="clip0_4_961">
<rect width="30" height="30" fill="white" transform="translate(-3.05176e-05 -0.000976562)"/>
</clipPath>
</defs>
</svg>
