<svg width="30" height="30" viewBox="0 0 30 30" fill="none" xmlns="http://www.w3.org/2000/svg">
<g id="Frame" clip-path="url(#clip0_4_1051)">
<g id="Group">
<path id="Vector" d="M13.4171 28.2517C13.4171 29.0377 14.0543 29.6749 14.8403 29.6749C15.6263 29.6749 16.2635 29.0377 16.2635 28.2517V26.2046H13.417V28.2517H13.4171ZM16.878 28.2517C16.878 29.0377 17.5152 29.6749 18.3013 29.6749C19.0873 29.6749 19.7245 29.0377 19.7245 28.2517V26.2046H16.878V28.2517H16.878Z" fill="white"/>
<path id="Vector_2" d="M19.0352 2.84599C19.0692 1.48843 17.9962 0.360406 16.6386 0.326467C15.2811 0.292529 14.153 1.36553 14.1191 2.72308C14.0852 4.08064 15.1582 5.20867 16.5157 5.2426C17.8733 5.27654 19.0013 4.20354 19.0352 2.84599Z" fill="white"/>
<path id="Vector_3" d="M16.7745 19.1346H18.1834C18.42 19.1346 18.6451 19.1836 18.8494 19.2717H21.2556L20.6438 16.1129H20.1326L16.7745 19.1346ZM23.7273 16.1129C23.7905 16.1574 24.081 16.5738 24.6815 16.5738C25.0758 16.5738 25.4475 16.3794 25.6715 16.0405C25.5017 16.0885 25.3261 16.1129 25.1496 16.1129H23.7273V16.1129Z" fill="white"/>
<path id="Vector_4" d="M4.07263 20.8496C5.15869 20.0154 5.36281 18.4586 4.52854 17.3726C3.69428 16.2865 2.13754 16.0824 1.05148 16.9167C-0.0345758 17.7509 -0.238694 19.3077 0.595573 20.3937C1.42984 21.4798 2.98657 21.6839 4.07263 20.8496Z" fill="white"/>
<path id="Vector_5" d="M12.4327 22.5014C12.4425 22.5016 12.4526 22.5017 12.463 22.5017C12.4491 22.5013 12.4394 22.5012 12.4327 22.5014ZM14.4418 15.9395L15.1968 15.2908L12.8484 14.3101L12.5328 15.9395H14.4418Z" fill="white"/>
<path id="Vector_6" d="M25.1502 12.9351H19.4216C19.2178 12.9354 19.0172 12.9853 18.837 13.0803C19.3778 13.5703 19.5798 14.3656 19.2825 15.0774C18.907 15.9764 17.8711 16.4092 16.9634 16.0302L15.8794 15.5774L14.6992 16.5915H7.35322C6.57242 16.592 5.93994 17.2305 5.94047 18.0113L5.9426 21.0637C5.94313 21.8445 6.57655 22.504 7.3573 22.5035H12.4263L9.71255 20.9614L12.302 21.8806C12.4227 21.9234 12.5498 21.9453 12.6779 21.9453H18.1841C18.8047 21.9453 19.3078 21.4422 19.3078 20.8216C19.3078 20.201 18.8047 19.6979 18.1841 19.6979H12.8714L10.4643 18.8436L12.6779 19.1375H15.8255L19.8886 15.4551H25.1503C25.8461 15.4551 26.4102 14.891 26.4102 14.1952C26.4102 13.4993 25.8461 12.9351 25.1502 12.9351Z" fill="white"/>
<path id="Vector_7" d="M27.4359 20.0031L19.6507 19.9947C19.7927 20.2465 19.8672 20.5309 19.8669 20.82C19.8669 21.7501 19.1129 22.5019 18.1827 22.5019H27.4359C28.1318 22.5019 28.6959 21.9589 28.6959 21.263C28.6959 20.5672 28.1318 20.0031 27.4359 20.0031ZM28.8191 23.131H1.18289C0.530141 23.131 0.00101471 23.6602 0.00101471 24.3129C0.00101471 24.9657 0.530141 25.4948 1.18289 25.4948H1.59229V28.494C1.59229 29.1467 2.12142 29.6759 2.77417 29.6759C3.42692 29.6759 3.95605 29.1467 3.95605 28.494V25.4948H26.046V28.494C26.046 29.1467 26.5751 29.6759 27.2279 29.6759C27.8806 29.6759 28.4097 29.1467 28.4097 28.494V25.4948H28.8191C29.4719 25.4948 30.001 24.9657 30.001 24.3129C30.001 23.6602 29.4719 23.131 28.8191 23.131ZM11.7785 9.08538L12.0292 12.6252C12.0447 12.8443 12.1208 13.0549 12.249 13.2333C12.3772 13.4118 12.5525 13.5511 12.7552 13.6358L17.1883 15.4872C17.7967 15.7412 18.489 15.4504 18.7398 14.8498C18.9922 14.2454 18.7069 13.5507 18.1024 13.2984L14.3437 11.7286L14.1447 8.91779L14.7647 11.2577L18.2065 12.7059C18.5492 12.4261 18.978 12.2732 19.4204 12.273H19.8993L19.5918 10.5508L20.205 12.273H23.2027L22.465 11.5479C21.9882 10.218 21.6194 9.1739 21.3679 8.44197C20.8176 6.8407 19.895 6.02881 18.6256 6.02881H14.6264C12.9685 6.02881 11.6618 7.43837 11.7785 9.08538Z" fill="white"/>
</g>
</g>
<defs>
<clipPath id="clip0_4_1051">
<rect width="30" height="30" fill="white" transform="translate(0.00101471 0.00146484)"/>
</clipPath>
</defs>
</svg>
