<svg width="31" height="30" viewBox="0 0 31 30" fill="none" xmlns="http://www.w3.org/2000/svg">
<g id="Frame" clip-path="url(#clip0_4_1115)">
<g id="Group">
<path id="Vector" d="M28.0851 16.3591C28.0523 16.2876 28.0392 16.2085 28.0473 16.1302L29.6808 0.196367L25.5791 0.161035L24.6965 0.153477L24.7224 16.4133C24.7228 16.5145 24.7577 16.6126 24.8214 16.6913C24.846 16.7216 27.2291 19.6897 25.827 21.2022C25.4815 21.5741 25.1354 21.7519 24.7596 21.7431C24.0422 21.728 23.3846 21.02 23.2006 20.8044C23.1806 20.7805 23.1613 20.7561 23.1426 20.7313C22.9749 20.5106 22.7763 20.4494 22.5184 20.5389C22.4888 20.549 22.4548 20.561 22.3993 20.5742C21.6831 20.7444 21.0722 20.7041 20.7646 20.4658C20.5666 20.312 20.467 20.0591 20.4607 19.6929C20.4272 17.8936 22.1137 17.0544 22.1843 17.0204C22.2606 16.9838 22.3248 16.9261 22.3692 16.8541C22.4137 16.7822 22.4366 16.699 22.4352 16.6144L22.1654 0.131387L21.2822 0.123828L18.3657 0.0986328L18.8234 15.0572C18.8265 15.1599 18.7938 15.2604 18.7308 15.3416C16.7751 17.8589 14.1859 20.2698 11.4403 22.1308C8.3459 24.2277 5.17229 25.5529 2.2634 25.9639C1.56924 26.0616 1.04348 26.5477 0.892188 27.2323C0.740254 27.917 1.01137 28.5796 1.59889 28.9616C3.44734 30.162 6.87191 29.9325 8.94355 29.7881C9.95734 29.5108 10.9219 29.1924 11.8543 28.8841C15.5588 27.6617 18.7584 26.6057 22.3827 28.9654C22.6797 29.1596 22.9552 29.2661 23.3063 29.3229C26.7366 29.8821 29.0049 29.473 30.0464 28.1049C31.4864 26.2154 30.8446 22.3735 28.0851 16.3591ZM22.582 21.438C22.9313 21.8326 23.7414 22.6049 24.7413 22.6257C24.7558 22.6263 24.7703 22.6263 24.7848 22.6263C25.3957 22.6263 25.9618 22.3521 26.4668 21.8099C26.9989 22.3199 27.712 23.0922 28.1791 23.9446C28.831 25.1342 28.8121 26.0894 28.1224 26.8648C26.7367 28.422 24.1531 26.7229 22.7372 25.5724C22.3993 25.2975 22.1779 25.0901 22.0166 24.9388C21.4379 24.396 21.2764 24.3853 20.4235 24.5587C20.182 24.6078 19.8813 24.669 19.4645 24.7377C16.4989 25.2269 11.2309 26.2344 9.27842 27.4852C7.35871 28.7133 4.47443 28.6458 3.40896 28.0627C3.17318 27.9334 3.08998 27.8149 3.08998 27.7519C3.08998 27.7336 3.15367 27.6378 3.46639 27.5073C3.8459 27.3484 4.42463 27.2059 5.09418 27.0414C6.80336 26.6203 9.14418 26.044 11.2908 24.5196C14.0087 22.5873 18.0416 21.3813 19.9468 20.887C20.0269 20.9905 20.1199 21.0833 20.2236 21.1631C20.9328 21.7128 21.9951 21.5748 22.582 21.438ZM10.509 19.8027C10.0495 18.6106 9.81643 17.3565 9.81643 16.075C9.81643 11.9387 12.2696 8.20707 16.066 6.56814C16.1733 6.52326 16.2938 6.52247 16.4016 6.56595C16.5094 6.60943 16.5957 6.69367 16.6418 6.80038C16.6879 6.90709 16.69 7.02766 16.6477 7.13593C16.6054 7.2442 16.5221 7.33142 16.416 7.37867C12.9432 8.87785 10.6993 12.2914 10.6993 16.075C10.6993 17.2474 10.9124 18.3948 11.3327 19.4851C11.3748 19.5943 11.3718 19.7158 11.3244 19.8228C11.2769 19.9298 11.1889 20.0136 11.0796 20.0557C10.9704 20.0978 10.8489 20.0948 10.7419 20.0474C10.6349 19.9999 10.5511 19.9119 10.509 19.8027ZM15.434 11.0036L16.8708 12.4047C16.9123 12.4451 16.9455 12.4934 16.9683 12.5466C16.9912 12.5999 17.0033 12.6572 17.0041 12.7151C17.0048 12.7731 16.9941 12.8306 16.9726 12.8845C16.9511 12.9383 16.9192 12.9874 16.8787 13.0289C16.8376 13.0711 16.7884 13.1047 16.7341 13.1276C16.6798 13.1504 16.6215 13.1622 16.5626 13.1621C16.4474 13.1623 16.3368 13.1172 16.2545 13.0367L14.8177 11.6356C14.7356 11.5535 14.6891 11.4424 14.6884 11.3263C14.6877 11.2101 14.7327 11.0984 14.8138 11.0153C14.8949 10.9321 15.0054 10.8843 15.1215 10.8821C15.2376 10.8799 15.3499 10.9236 15.434 11.0036ZM16.2404 14.9843C16.2465 15.0419 16.2413 15.1002 16.225 15.1558C16.2087 15.2114 16.1815 15.2633 16.1451 15.3084C16.1088 15.3536 16.0639 15.3911 16.013 15.4189C15.9621 15.4466 15.9062 15.4641 15.8486 15.4703L13.8524 15.6847C13.737 15.6953 13.6221 15.6601 13.5324 15.5867C13.4428 15.5132 13.3856 15.4075 13.3732 15.2923C13.3608 15.1771 13.3943 15.0616 13.4663 14.9708C13.5383 14.88 13.6431 14.8212 13.7581 14.807L15.7543 14.5926C15.8119 14.5864 15.8702 14.5916 15.9259 14.6079C15.9815 14.6242 16.0333 14.6514 16.0785 14.6877C16.1236 14.7241 16.1611 14.769 16.1889 14.8199C16.2167 14.8708 16.2342 14.9266 16.2404 14.9843ZM16.2907 13.8349C16.2627 13.9248 16.2068 14.0033 16.131 14.0591C16.0552 14.1149 15.9636 14.1451 15.8695 14.1451C15.8249 14.1451 15.7806 14.1383 15.738 14.125L13.0431 13.2851C12.8103 13.2126 12.6804 12.9651 12.753 12.7323C12.8255 12.4996 13.0726 12.3697 13.3057 12.4422L16.0007 13.2822C16.056 13.2994 16.1074 13.3274 16.152 13.3645C16.1965 13.4016 16.2333 13.4472 16.2602 13.4985C16.2871 13.5498 16.3037 13.6059 16.3089 13.6637C16.3142 13.7214 16.308 13.7796 16.2907 13.8349Z" fill="white"/>
</g>
</g>
<defs>
<clipPath id="clip0_4_1115">
<rect width="30" height="30" fill="white" transform="translate(0.821327 0.000976562)"/>
</clipPath>
</defs>
</svg>
