<svg width="30" height="30" viewBox="0 0 30 30" fill="none" xmlns="http://www.w3.org/2000/svg">
<g id="Frame">
<g id="Group">
<path id="Layer 2" d="M25.3129 8.43652H22.5004V5.62402C22.5004 4.8781 22.2041 4.16273 21.6766 3.63529C21.1492 3.10784 20.4338 2.81152 19.6879 2.81152H10.3129C9.56698 2.81152 8.8516 3.10784 8.32416 3.63529C7.79671 4.16273 7.5004 4.8781 7.5004 5.62402V8.43652H4.6879C3.94198 8.43652 3.22661 8.73284 2.69916 9.26029C2.17171 9.78773 1.8754 10.5031 1.8754 11.249V24.374C1.8754 25.1199 2.17171 25.8353 2.69916 26.3628C3.22661 26.8902 3.94198 27.1865 4.6879 27.1865H25.3129C26.0588 27.1865 26.7742 26.8902 27.3016 26.3628C27.8291 25.8353 28.1254 25.1199 28.1254 24.374V11.249C28.1254 10.5031 27.8291 9.78773 27.3016 9.26029C26.7742 8.73284 26.0588 8.43652 25.3129 8.43652ZM9.3754 5.62402C9.3754 5.37538 9.47417 5.13693 9.64998 4.96111C9.8258 4.7853 10.0643 4.68652 10.3129 4.68652H19.6879C19.9365 4.68652 20.175 4.7853 20.3508 4.96111C20.5266 5.13693 20.6254 5.37538 20.6254 5.62402V8.43652H9.3754V5.62402ZM17.8129 18.749H15.9379V20.624C15.9379 20.8727 15.8391 21.1111 15.6633 21.2869C15.4875 21.4628 15.249 21.5615 15.0004 21.5615C14.7518 21.5615 14.5133 21.4628 14.3375 21.2869C14.1617 21.1111 14.0629 20.8727 14.0629 20.624V18.749H12.1879C11.9393 18.749 11.7008 18.6503 11.525 18.4744C11.3492 18.2986 11.2504 18.0602 11.2504 17.8115C11.2504 17.5629 11.3492 17.3244 11.525 17.1486C11.7008 16.9728 11.9393 16.874 12.1879 16.874H14.0629V14.999C14.0629 14.7504 14.1617 14.5119 14.3375 14.3361C14.5133 14.1603 14.7518 14.0615 15.0004 14.0615C15.249 14.0615 15.4875 14.1603 15.6633 14.3361C15.8391 14.5119 15.9379 14.7504 15.9379 14.999V16.874H17.8129C18.0615 16.874 18.3 16.9728 18.4758 17.1486C18.6516 17.3244 18.7504 17.5629 18.7504 17.8115C18.7504 18.0602 18.6516 18.2986 18.4758 18.4744C18.3 18.6503 18.0615 18.749 17.8129 18.749Z" fill="white"/>
</g>
</g>
</svg>
