<svg width="31" height="30" viewBox="0 0 31 30" fill="none" xmlns="http://www.w3.org/2000/svg">
<g id="Frame" clip-path="url(#clip0_4_853)">
<g id="Group">
<path id="Vector" d="M13.8875 28.1027C13.1252 28.1027 12.4139 27.8895 11.8168 27.5221V28.067C11.8168 29.1322 12.7461 29.9988 13.8875 29.9988H17.034C18.1754 29.9988 19.1047 29.1322 19.1047 28.067V27.5221C18.5077 27.8895 17.7963 28.1027 17.034 28.1027H13.8875ZM13.8899 24.7547C13.1264 24.7547 12.4151 24.5303 11.8168 24.1441V24.457C11.8168 25.4982 12.7461 26.3449 13.8875 26.3449H17.034C18.1754 26.3449 19.1047 25.4982 19.1047 24.457V24.1441C18.4871 24.5435 17.7671 24.7555 17.0317 24.7547H13.8899ZM17.0317 22.9969C17.1934 22.9969 17.3516 22.9781 17.5028 22.943C17.1401 22.2756 16.7528 21.7336 16.3637 21.3562C15.678 20.6908 15.2442 20.6873 14.5526 21.3609C14.1664 21.7371 13.7809 22.2779 13.4188 22.943C13.57 22.9781 13.7282 22.9969 13.8899 22.9969H17.0317ZM13.785 10.4836C13.4129 10.4836 13.0532 10.432 12.7127 10.3359C13.2093 10.9059 14.1746 11.7615 14.9464 11.7615H15.978C16.7418 11.7615 17.7029 10.913 18.2018 10.3377C17.8553 10.4348 17.497 10.4839 17.1371 10.4836H13.785Z" fill="white"/>
<path id="Vector_2" d="M30.3061 12.2645C30.1162 10.9156 29.8385 9.35234 29.2203 7.98008C28.1276 5.55605 26.4858 5.04688 25.301 5.04688C23.6065 5.04688 22.161 5.89121 21.7033 7.14746C20.9802 9.13607 20.399 11.2088 17.9715 12.865C16.6633 13.7881 14.3335 13.8352 12.9471 12.8627C10.5289 11.2121 9.94474 9.14492 9.21935 7.14746C8.76173 5.89121 7.31623 5.04688 5.62169 5.04688C4.43693 5.04688 2.79513 5.55605 1.70236 7.98008C1.08419 9.35234 0.80646 10.9156 0.616616 12.2639C0.184194 15.3283 0.652944 18.2914 2.04982 21.3219C3.18947 23.7916 4.55001 26.1219 7.41232 26.1219C9.09044 26.1219 10.5318 25.2863 10.9988 24.043C11.4512 22.8389 12.2223 21.1771 13.3268 20.1014C14.7006 18.7635 16.2129 18.7586 17.5889 20.0949C18.6981 21.1713 19.4709 22.8359 19.9238 24.043C20.3908 25.2863 21.8322 26.1219 23.5104 26.1219C26.3297 26.1219 27.6872 23.8926 28.8729 21.3219C30.2697 18.2914 30.7385 15.3283 30.3061 12.2645ZM4.48497 8.65332C5.03107 8.10957 5.84962 7.93496 6.57091 8.20801C7.02501 8.38027 7.25353 8.8877 7.08126 9.3418C6.909 9.79531 6.40158 10.0238 5.94806 9.85215C5.78289 9.78939 5.61665 9.94531 5.6797 10.1129C5.89914 10.6886 5.47246 11.3053 4.8588 11.3053C4.5049 11.3053 4.1715 11.0896 4.03732 10.7393C3.76193 10.018 3.93771 9.19883 4.48497 8.65332ZM4.2465 15.9213C3.69865 15.3758 3.52345 14.5572 3.79884 13.8354C3.97169 13.3818 4.4797 13.1545 4.93322 13.3279C5.38673 13.5008 5.61408 14.0088 5.44064 14.4623C5.37794 14.6272 5.54277 14.7862 5.709 14.723C6.1631 14.5508 6.67052 14.7793 6.8422 15.2334C7.01447 15.6869 6.78595 16.1949 6.33185 16.3666C5.60365 16.642 4.78843 16.4615 4.2465 15.9213ZM8.81154 20.7178C8.63986 21.1719 8.13244 21.4004 7.67833 21.2281C7.5121 21.1649 7.34734 21.324 7.40998 21.4889C7.63064 22.0659 7.20203 22.6812 6.58908 22.6812C6.23517 22.6812 5.90177 22.4662 5.76818 22.1158C5.49279 21.3939 5.66798 20.5754 6.21583 20.0299C6.76134 19.4861 7.5799 19.3109 8.30119 19.5846C8.75529 19.7568 8.9838 20.2643 8.81154 20.7178ZM10.9039 17.2373C10.3561 17.7826 9.5374 17.9547 8.81798 17.6826C8.36388 17.5104 8.13537 17.0029 8.30763 16.5488C8.47931 16.0953 8.98673 15.8668 9.44083 16.0385C9.60666 16.1015 9.77195 15.9445 9.70919 15.7777C9.53576 15.3242 9.7631 14.8162 10.2166 14.6434C10.6701 14.4705 11.1781 14.6979 11.351 15.1508C11.627 15.8727 11.4512 16.6918 10.9039 17.2373ZM21.7772 16.85C21.3306 17.0509 20.8129 16.8491 20.6152 16.4094C20.5426 16.2489 20.3097 16.2481 20.2367 16.4094C20.0375 16.8523 19.5166 17.0492 19.0742 16.85C18.6318 16.6508 18.435 16.1305 18.6342 15.6875C18.9506 14.985 19.6543 14.5309 20.426 14.5309C21.1977 14.5309 21.9014 14.985 22.2178 15.6875C22.417 16.1305 22.2201 16.6508 21.7772 16.85ZM23.3709 10.6584C23.5432 10.2049 24.05 9.97637 24.5041 10.148C24.5627 10.1703 24.6559 10.1715 24.7262 10.1018C24.7947 10.0338 24.7947 9.94648 24.7725 9.88789C24.5996 9.43437 24.8264 8.92637 25.2799 8.75293C25.7334 8.58008 26.2414 8.80742 26.4149 9.26094C26.6902 9.98223 26.5145 10.8014 25.9672 11.3469C25.4188 11.8927 24.6002 12.0641 23.8813 11.7922C23.4272 11.6199 23.1986 11.1125 23.3709 10.6584ZM25.5201 20.9223C25.3479 21.3764 24.841 21.6049 24.3869 21.4326C24.2199 21.3708 24.0558 21.5281 24.1186 21.6934C24.3388 22.2691 23.9118 22.8863 23.2977 22.8863C22.9438 22.8863 22.6104 22.6707 22.4762 22.3203C22.2008 21.599 22.3766 20.7799 22.9238 20.2344C23.4699 19.6906 24.2885 19.516 25.0098 19.7891C25.4639 19.9613 25.6924 20.4687 25.5201 20.9223ZM26.682 17.1635C26.3076 17.5367 25.8043 17.7365 25.2922 17.7365C25.0584 17.7365 24.8223 17.6949 24.5961 17.6088C24.1426 17.4371 23.9141 16.9297 24.0858 16.4756C24.258 16.0215 24.7654 15.793 25.2195 15.9652C25.3854 16.0289 25.5514 15.8687 25.4873 15.7045C25.3145 15.251 25.5418 14.743 25.9953 14.5701C26.4488 14.3967 26.9569 14.624 27.1297 15.0775C27.4051 15.7994 27.2293 16.618 26.682 17.1635Z" fill="white"/>
<path id="Vector_3" d="M19.2452 6.66035C18.9933 6.81035 18.7185 6.93398 18.4249 7.02656C17.9004 7.19285 17.3499 7.24898 16.8282 7.20762H16.8235C15.9375 7.13631 14.9801 7.13666 14.1019 7.20762H14.0983C13.5718 7.2498 13.0178 7.19115 12.4987 7.02715C12.2046 6.93398 11.9298 6.81094 11.6784 6.66152C11.6784 7.89645 12.6818 8.72695 13.786 8.72695H17.1382C18.2407 8.72695 19.2452 7.89949 19.2452 6.66035ZM11.0249 2.22973C11.677 3.18182 11.7315 3.25418 11.778 3.96744C11.8179 4.58045 12.3089 5.1235 13.0282 5.35072C13.322 5.44395 13.6448 5.4798 13.9625 5.45514C14.9417 5.37703 15.975 5.37662 16.9628 5.45514C17.2956 5.48057 17.6137 5.43973 17.8955 5.35072C18.6148 5.12355 19.1058 4.58045 19.1463 3.96703C19.1914 3.25717 19.245 3.18422 19.8988 2.22979C20.0021 2.07879 20.1189 1.90893 20.2502 1.71445C20.7647 0.954141 20.1015 0 19.0103 0H17.5015C16.9732 0 16.4921 0.23707 16.2455 0.620625L15.809 1.30307C15.6505 1.55074 15.2735 1.55145 15.1151 1.30354L14.6771 0.619277C14.4316 0.23748 13.951 0 13.4221 0H11.9134C10.8165 0 10.1617 0.958066 10.6735 1.71439C10.8048 1.90887 10.921 2.07873 11.0249 2.22973Z" fill="white"/>
</g>
</g>
<defs>
<clipPath id="clip0_4_853">
<rect width="30" height="30" fill="white" transform="translate(0.461334)"/>
</clipPath>
</defs>
</svg>
