<svg width="30" height="30" viewBox="0 0 30 30" fill="none" xmlns="http://www.w3.org/2000/svg">
<g id="Frame">
<g id="Group">
<path id="Vector" d="M14.9997 7.96338C9.59025 7.96338 4.8387 10.7671 2.10905 14.9979C4.8387 19.2287 9.59025 22.0324 14.9997 22.0324C20.4091 22.0324 25.1607 19.2287 27.8903 14.9979C25.1607 10.7671 20.4091 7.96338 14.9997 7.96338ZM14.9997 20.6262C13.8865 20.6262 12.7983 20.2961 11.8728 19.6777C10.9472 19.0593 10.2258 18.1802 9.79979 17.1518C9.37379 16.1234 9.26232 14.9917 9.47947 13.8999C9.69663 12.8082 10.2327 11.8053 11.0198 11.0182C11.8069 10.231 12.8098 9.69497 13.9015 9.47779C14.9933 9.26061 16.125 9.37205 17.1534 9.79803C18.1819 10.224 19.0609 10.9454 19.6793 11.871C20.2978 12.7965 20.6279 13.8847 20.6279 14.9979C20.6279 15.737 20.4823 16.4688 20.1995 17.1517C19.9167 17.8346 19.5021 18.455 18.9795 18.9777C18.4568 19.5003 17.8364 19.9149 17.1535 20.1977C16.4707 20.4806 15.7388 20.6262 14.9997 20.6262Z" fill="white"/>
<path id="Vector_2" d="M14.6686 12.3127C14.6714 11.7724 14.8208 11.243 15.1011 10.7811C15.0668 10.7803 15.0335 10.7759 14.9991 10.7759C14.164 10.7759 13.3477 11.0235 12.6534 11.4874C11.9591 11.9513 11.418 12.6107 11.0984 13.3822C10.7789 14.1537 10.6952 15.0026 10.8582 15.8216C11.0211 16.6406 11.4232 17.3929 12.0136 17.9833C12.6041 18.5738 13.3564 18.9759 14.1754 19.1388C14.9944 19.3017 15.8433 19.2181 16.6148 18.8986C17.3862 18.579 18.0456 18.0379 18.5095 17.3435C18.9735 16.6492 19.2211 15.8329 19.2211 14.9979C19.2211 14.9636 19.2167 14.9302 19.2159 14.8961C18.7539 15.1762 18.2245 15.3257 17.6842 15.3284C16.8847 15.3275 16.1181 15.0095 15.5528 14.4442C14.9875 13.8788 14.6694 13.1123 14.6685 12.3128L14.6686 12.3127Z" fill="white"/>
</g>
</g>
</svg>
