<svg width="30" height="30" viewBox="0 0 30 30" fill="none" xmlns="http://www.w3.org/2000/svg">
<g id="Frame">
<g id="Group">
<path id="Vector" d="M23.419 19.731C23.4278 19.7544 23.5919 20.1851 23.7911 20.9204C24.2686 20.2085 24.9981 18.814 25.3116 16.6167C26.1114 11.0503 25.3497 4.19482 25.1798 2.80322H7.25887C7.49032 3.51221 7.97958 5.10889 8.34872 6.89893C9.02548 10.1772 8.99032 12.5239 8.24618 13.8745C6.60848 16.854 3.87509 21.8257 7.82723 27.1987H23.9493C24.0841 23.1528 22.8829 19.9741 22.8712 19.9419L23.1436 19.8364L23.419 19.731ZM15.7257 6.42725C15.8604 6.47412 15.963 6.57959 16.0099 6.71729C16.0597 6.87256 16.1358 7.01025 16.2354 7.13037C16.5079 7.4585 16.7716 7.8335 16.6661 8.11768C16.6134 8.26123 16.4815 8.35205 16.2765 8.38721C16.0743 8.42236 15.7872 8.53369 15.5089 8.63916C15.0958 8.80029 14.7882 8.91162 14.5743 8.91162C14.4776 8.91162 14.3985 8.88818 14.337 8.83838C14.2374 8.75342 14.211 8.64209 14.1905 8.5542C14.1729 8.47803 14.1612 8.44287 14.1349 8.42822C14.0968 8.40772 13.9591 8.37549 13.4903 8.53076C13.3731 8.56885 13.2442 8.54541 13.1475 8.47217C12.9806 8.34033 12.8751 8.22607 12.8311 8.12939L12.8253 8.11475C12.7813 8.01807 12.6993 7.84229 12.7989 7.6665C12.8927 7.50244 13.1065 7.40869 13.4757 7.36768C13.8741 7.32666 14.7179 6.87549 15.3302 6.47412C15.4063 6.42432 15.4913 6.40088 15.5763 6.40088C15.6261 6.40088 15.6788 6.40967 15.7257 6.42725ZM12.6612 12.8345C12.5909 12.8403 12.5147 12.8403 12.4415 12.8403C12.339 12.8403 12.2306 12.8374 12.1485 12.855C12.1104 12.8638 12.0724 12.8667 12.0343 12.8667C11.8438 12.8667 11.6651 12.7642 11.5684 12.5913C11.4161 12.313 11.3927 12.0552 11.504 11.8618C11.6007 11.6919 11.7911 11.5923 12.0343 11.5864C12.3331 11.5776 12.5645 11.6743 12.7081 11.7563C12.8897 11.8618 12.9981 12.0552 12.9952 12.2661C12.9923 12.7349 12.7843 12.8228 12.6612 12.8345ZM12.7198 14.2437C12.6641 14.7007 12.4561 14.771 12.3302 14.771H12.3243C12.254 14.771 12.1778 14.7622 12.1046 14.7534C12.002 14.7417 11.8966 14.73 11.8116 14.7388C11.5802 14.7651 11.3546 14.6333 11.2608 14.4165C11.1378 14.1265 11.1407 13.8657 11.2725 13.6841C11.3868 13.523 11.586 13.4468 11.8292 13.4644C12.128 13.4878 12.3477 13.6079 12.4825 13.7046C12.6554 13.8306 12.7432 14.0356 12.7198 14.2437ZM11.4395 10.0718C11.5099 9.88721 11.6798 9.76123 11.92 9.71436C12.213 9.65869 12.4591 9.71436 12.6143 9.77295C12.8106 9.84619 12.9513 10.022 12.9806 10.23C12.9893 10.2974 12.9952 10.3589 12.9952 10.4116C12.9952 10.728 12.8399 10.8188 12.7403 10.8452C12.6729 10.8628 12.5968 10.8745 12.5235 10.8862C12.421 10.9009 12.3155 10.9185 12.2393 10.9478C12.1749 10.9741 12.1104 10.9858 12.0431 10.9858C11.8849 10.9858 11.7266 10.9126 11.6241 10.7837C11.4278 10.5347 11.3634 10.2827 11.4395 10.0718ZM11.9024 5.75928C11.9552 5.58936 12.1309 5.46045 12.4591 5.35205C12.8077 5.23486 13.4727 4.6665 13.9415 4.18604C14.0235 4.104 14.1319 4.05713 14.2462 4.05713C14.2638 4.05713 14.2813 4.05713 14.2989 4.06006C14.4337 4.07764 14.5509 4.15381 14.6182 4.271C14.6944 4.3999 14.7882 4.5083 14.8995 4.59619C15.21 4.83936 15.5235 5.12646 15.4854 5.41064C15.4649 5.5542 15.3624 5.66553 15.1807 5.73877C15.0079 5.80908 14.7706 5.96436 14.545 6.1167C14.1466 6.38037 13.8653 6.55908 13.6573 6.55908C13.6075 6.55908 13.5606 6.54736 13.5196 6.52686C13.4112 6.46826 13.3614 6.36865 13.3263 6.29541C13.297 6.23389 13.2794 6.20459 13.2589 6.19873C13.2237 6.18701 13.0977 6.18701 12.711 6.41553C12.6085 6.47412 12.4854 6.47998 12.38 6.43018C12.2042 6.34521 12.0841 6.26025 12.0255 6.18115L12.0167 6.16943C11.9581 6.09033 11.8468 5.94092 11.9024 5.75928ZM11.9991 7.88623C12.2042 7.92139 12.377 8.06494 12.4474 8.26123C12.6085 8.70068 12.4444 8.85596 12.3331 8.91162C12.2686 8.94092 12.1983 8.96729 12.128 8.99365C12.0313 9.02881 11.9317 9.06689 11.8614 9.11084C11.7735 9.16943 11.671 9.19873 11.5714 9.19873C11.4483 9.19873 11.3253 9.15479 11.2257 9.07275C10.9854 8.86768 10.8712 8.6333 10.9063 8.41357C10.9356 8.22022 11.0792 8.06201 11.3048 7.96533C11.586 7.85107 11.838 7.85986 11.9991 7.88623ZM10.089 6.64404C10.1095 6.44482 10.2413 6.2749 10.4669 6.1665C10.6834 6.06166 10.9248 6.01906 11.1641 6.04346C11.3751 6.06689 11.5597 6.20166 11.6417 6.39502C11.8292 6.83154 11.6739 6.99854 11.5655 7.06006C11.5011 7.09521 11.4307 7.12744 11.3634 7.15674C11.2667 7.19775 11.1671 7.2417 11.0968 7.29443C11.003 7.36475 10.8888 7.3999 10.7745 7.3999C10.6602 7.3999 10.546 7.36475 10.4493 7.2915C10.1944 7.10107 10.0655 6.86963 10.089 6.64404ZM11.1056 22.2827C11.1202 22.3325 11.1349 22.3853 11.1524 22.438C11.17 22.4878 11.1876 22.5376 11.2052 22.5903C10.9386 22.8569 10.7657 23.1616 10.7657 23.5044C10.7686 24.1548 10.8331 24.4419 10.9884 24.9839C11.0557 25.2153 11.0001 25.438 10.8419 25.6021C10.7247 25.7222 10.5694 25.7866 10.4112 25.7866C10.3614 25.7866 10.3145 25.7808 10.2677 25.769C10.1417 25.7339 9.91317 25.6226 9.81942 25.2534C9.81063 25.2212 9.80184 25.1831 9.79012 25.145C9.5118 24.0845 8.66805 20.8618 9.98934 17.3813C10.3614 16.4028 10.8624 15.8403 11.4835 15.7114C12.3331 15.5356 13.0743 16.2417 13.1593 16.3267C13.2384 16.3911 13.8067 16.854 14.3487 17.5132C14.3018 17.5308 14.255 17.5513 14.2081 17.5747C14.1641 17.5952 14.1173 17.6187 14.0733 17.6421C13.6837 17.856 13.3028 18.2046 13.1124 18.7759C13.0421 18.9897 12.878 19.1597 12.6641 19.2417C12.254 19.4028 11.6915 19.7075 11.3311 20.2495C10.9591 20.8149 10.8829 21.4976 11.1056 22.2827ZM15.1192 20.8091C14.8849 21.0552 14.5391 21.1284 14.1729 21.2046C14.0411 21.2339 13.9034 21.2632 13.7686 21.3013C13.4698 21.3862 12.4591 21.6909 11.6915 22.2007C11.6768 22.1509 11.6622 22.1011 11.6505 22.0513C11.6358 21.9985 11.627 21.9487 11.6153 21.9019C11.3722 20.6772 12.1397 20.0796 12.878 19.7896C13.253 19.6431 13.5401 19.3413 13.6661 18.9634C13.8126 18.5298 14.1202 18.272 14.4337 18.1167C14.4806 18.0933 14.5245 18.0728 14.5714 18.0552C14.6212 18.0347 14.6681 18.0171 14.7149 18.0024C15.0167 18.4478 15.2628 18.9487 15.3477 19.4614C15.4503 20.1118 15.38 20.5396 15.1192 20.8091ZM16.3643 15.5591C16.294 15.7026 16.2501 15.855 16.2384 16.0073C16.2032 16.4292 16.1329 16.8745 15.8604 17.0063C15.8106 17.0298 15.7608 17.0415 15.7081 17.0415C15.6114 17.0415 15.5089 17.0034 15.3975 16.9302C15.2306 16.8159 14.9522 16.6958 14.6798 16.5815C14.0968 16.3325 13.7364 16.1685 13.713 15.9136C13.7013 15.7847 13.7569 15.688 13.8038 15.6089C13.8448 15.5415 13.8595 15.5093 13.8507 15.4829C13.839 15.4419 13.7628 15.3247 13.3263 15.1138C13.2149 15.061 13.1417 14.9556 13.1241 14.8325C13.0948 14.6245 13.1007 14.4692 13.1358 14.3696L13.1417 14.355C13.1768 14.2583 13.2413 14.0737 13.4347 14.021C13.6134 13.9683 13.8331 14.0503 14.1202 14.2759C14.4337 14.522 15.339 14.7827 16.0479 14.9204C16.1856 14.9468 16.2999 15.0347 16.3643 15.1606C16.4259 15.2837 16.4259 15.4302 16.3643 15.5591ZM16.9063 13.9976C16.8331 14.0708 16.7393 14.1089 16.6222 14.1089C16.5665 14.1089 16.5079 14.1001 16.4405 14.0854C16.2413 14.0356 15.9337 14.0181 15.6378 14.0034C14.9962 13.9712 14.5977 13.939 14.4864 13.7046C14.4307 13.5874 14.4513 13.4761 14.4688 13.3853C14.4835 13.3062 14.4864 13.271 14.4688 13.2476C14.4425 13.2124 14.3311 13.1274 13.839 13.0776C13.7159 13.0659 13.6075 12.9927 13.5518 12.8813C13.4552 12.6938 13.4024 12.5444 13.4024 12.439V12.4214C13.4024 12.3159 13.3995 12.1196 13.5636 12.0024C13.7159 11.8911 13.9503 11.8911 14.3018 12.0083C14.6827 12.1343 15.6349 12.0669 16.3585 11.9497C16.3819 11.9468 16.4054 11.9438 16.4317 11.9438C16.546 11.9438 16.6573 11.9878 16.7393 12.0669C16.8448 12.1665 16.8946 12.3042 16.88 12.4478C16.8624 12.6089 16.8741 12.7671 16.9151 12.9194C17.0323 13.3296 17.1202 13.7808 16.9063 13.9976ZM17.1583 10.9976C17.0763 11.1265 16.9327 11.1909 16.7247 11.1821C16.5196 11.1763 16.2179 11.2261 15.922 11.2788C15.5968 11.3345 15.336 11.3755 15.1368 11.3755C14.9464 11.3755 14.8116 11.3374 14.7354 11.2378C14.6563 11.1353 14.6505 11.021 14.6475 10.9302C14.6446 10.8511 14.6417 10.813 14.6182 10.7954C14.586 10.7661 14.4571 10.7104 13.9679 10.7661C13.8448 10.7808 13.7247 10.7339 13.6427 10.6401C13.505 10.479 13.4259 10.3442 13.3995 10.2417L13.3966 10.2271C13.3731 10.1245 13.3292 9.93408 13.461 9.78467C13.587 9.64111 13.8155 9.59131 14.1817 9.62647C14.5831 9.66455 15.4972 9.38916 16.1768 9.11963C16.3087 9.06689 16.4522 9.07861 16.5753 9.15186C16.6983 9.2251 16.7774 9.35107 16.795 9.49463C16.8126 9.65576 16.8595 9.80811 16.9327 9.9458C17.1349 10.3208 17.3194 10.7397 17.1583 10.9976Z" fill="white"/>
</g>
</g>
</svg>
