<svg width="30" height="30" viewBox="0 0 30 30" fill="none" xmlns="http://www.w3.org/2000/svg">
<g id="Frame" clip-path="url(#clip0_4_921)">
<g id="Group">
<path id="Vector" fill-rule="evenodd" clip-rule="evenodd" d="M14.9998 0.936523C15.8895 0.936523 16.7705 1.11177 17.5925 1.45225C18.4145 1.79273 19.1614 2.29179 19.7905 2.92092C20.4197 3.55004 20.9187 4.29693 21.2592 5.11893C21.5997 5.94093 21.7749 6.82194 21.7749 7.71166C21.7749 7.7273 21.7745 7.74289 21.7744 7.75854L15.0467 14.4862C15.031 14.4862 15.0155 14.4868 14.9998 14.4868C14.1101 14.4868 13.2291 14.3116 12.4071 13.9711C11.5851 13.6306 10.8382 13.1315 10.2091 12.5024C9.57993 11.8733 9.08088 11.1264 8.74039 10.3044C8.39991 9.4824 8.22467 8.60138 8.22467 7.71166C8.22467 6.82194 8.39991 5.94093 8.74039 5.11893C9.08088 4.29693 9.57993 3.55004 10.2091 2.92092C10.8382 2.29179 11.5851 1.79273 12.4071 1.45225C13.2291 1.11177 14.1101 0.936523 14.9998 0.936523ZM11.816 18.8769L12.8652 17.8281L15.4766 20.4395L14.4274 21.4883C14.3724 21.5431 14.2979 21.5739 14.2202 21.5739C14.1426 21.5739 14.0681 21.5431 14.0131 21.4883L11.8158 19.2911C11.761 19.2361 11.7303 19.1616 11.7303 19.0839C11.7303 19.0063 11.761 18.9318 11.8158 18.8768L11.816 18.8769ZM13.4449 17.248L16.0563 19.8594L26.0756 9.84014C26.4213 9.49371 26.6153 9.02424 26.615 8.53486C26.6147 8.04548 26.4202 7.57622 26.0742 7.23018C25.7281 6.88413 25.2588 6.68962 24.7695 6.68936C24.2801 6.6891 23.8106 6.88312 23.4642 7.22879L13.4451 17.2478L13.4449 17.248ZM24.4132 8.31119L20.296 12.4285C20.2191 12.5054 20.1758 12.6097 20.1758 12.7185C20.1758 12.8273 20.2191 12.9316 20.296 13.0085C20.3729 13.0855 20.4772 13.1287 20.586 13.1287C20.6948 13.1287 20.7991 13.0855 20.8761 13.0085L24.9933 8.89127C25.0314 8.85318 25.0616 8.80796 25.0822 8.7582C25.1028 8.70843 25.1135 8.6551 25.1135 8.60123C25.1135 8.54737 25.1028 8.49403 25.0822 8.44426C25.0616 8.3945 25.0314 8.34928 24.9933 8.31119C24.9552 8.2731 24.91 8.24289 24.8602 8.22228C24.8105 8.20166 24.7571 8.19105 24.7033 8.19105C24.6494 8.19105 24.5961 8.20166 24.5463 8.22228C24.4965 8.24289 24.4513 8.2731 24.4132 8.31119ZM13.101 21.7362L11.5681 20.2034L3.38547 28.386C4.3 29.3005 7.11309 29.3853 8.47521 28.0231L11.316 25.1826C11.377 25.1217 11.3815 23.7657 11.4316 23.4059L13.101 21.7365V21.7362ZM13.4986 3.8324V6.21043H11.1209V9.21289H13.4989V11.5909H16.5013V9.21289H18.8794V6.21043H16.501V3.8324H13.4986Z" fill="white"/>
</g>
</g>
<defs>
<clipPath id="clip0_4_921">
<rect width="30" height="30" fill="white" transform="translate(0.000701904 -0.000976562)"/>
</clipPath>
</defs>
</svg>
