<svg width="30" height="30" viewBox="0 0 30 30" fill="none" xmlns="http://www.w3.org/2000/svg">
<g id="Frame">
<g id="Group">
<path id="Vector" d="M15.5679 29.9754V23.6446C15.5679 21.9531 14.189 20.5742 12.4975 20.5742H5.06972C5.54775 21.1932 4.71427 22.0757 4.73878 22.8847C4.78781 23.9327 6.14222 24.3371 7.19019 24.1962C8.23817 24.0552 9.37808 23.6936 10.2361 24.3126C10.7815 24.6926 11.045 25.3851 11.186 26.0286C11.5169 27.3156 11.615 28.67 11.474 29.9999H15.5679V29.9754Z" fill="white"/>
<path id="Vector_2" d="M27.3705 8.3479C26.776 4.7811 24.2082 1.54524 20.7762 0.472745C18.5638 -0.219779 16.2105 -0.0481803 13.9245 0.331788C10.9277 0.834328 7.59374 1.97423 6.38029 4.75659C5.7368 6.23356 5.78583 7.90052 5.66938 9.49394C5.55294 11.0874 5.12395 12.8279 3.86147 13.8023C3.29152 14.2313 2.50706 14.6358 2.48255 15.3467C2.45804 16.7256 5.28942 16.9156 5.02589 18.2945C4.95235 18.6745 4.62141 19.0299 4.43142 19.367H12.4966C14.8499 19.367 16.7804 21.2975 16.7804 23.6508V29.9816H22.1796C21.6465 23.3383 22.3451 21.3465 22.7741 20.464C23.1786 19.6796 23.7976 19.0606 24.3675 18.3926C26.727 15.6286 27.965 11.8902 27.3705 8.3479Z" fill="white"/>
</g>
</g>
</svg>
