<svg width="30" height="30" viewBox="0 0 30 30" fill="none" xmlns="http://www.w3.org/2000/svg">
<g id="Frame" clip-path="url(#clip0_4_1002)">
<g id="Group">
<path id="Vector" fill-rule="evenodd" clip-rule="evenodd" d="M24.3998 25.2993C17.9955 18.3149 13.9173 13.3286 11.5912 9.61377C10.138 7.29932 9.34702 5.45947 9.1771 3.94775C8.05796 5.96338 7.44273 8.20752 7.37827 10.5454C7.35484 11.4126 8.04624 13.4165 11.4857 18.0337C13.8822 21.2505 16.8705 24.7544 19.0501 27.3149C19.9759 28.4048 20.7552 29.313 21.3119 29.9985L24.3998 25.2993ZM14.3509 23.3013C13.1498 24.7485 11.9896 26.1138 10.9642 27.3149C10.0384 28.4048 9.25913 29.313 8.70249 29.9985L5.60874 25.2993C7.74155 22.9614 8.69663 21.7954 10.3783 19.7505C10.5658 19.522 10.765 19.2817 10.9701 19.0298C11.9896 20.3892 13.138 21.8247 14.3509 23.3013ZM15.0013 5.41846C13.6068 5.41846 12.2298 5.84033 11.0697 6.60791C10.1615 4.68018 9.93296 3.23291 10.3666 2.13721C11.5267 0.777832 13.2084 -0.00146484 15.0013 -0.00146484C16.7943 -0.00146484 18.4759 0.777832 19.6361 2.13721C19.8939 2.82861 19.8001 4.1001 18.6459 6.42627C17.5443 5.76416 16.2904 5.41846 15.0013 5.41846ZM15.4466 13.3228C17.515 10.5044 18.9974 8.12549 19.847 6.25049C20.2865 5.28369 20.5677 4.43994 20.6908 3.70166C21.8978 5.77588 22.5658 8.11377 22.6302 10.5513C22.6537 11.3833 22.015 13.2759 18.8802 17.5532C17.5794 16.0122 16.4369 14.606 15.4466 13.3228Z" fill="white"/>
</g>
</g>
<defs>
<clipPath id="clip0_4_1002">
<rect width="30" height="30" fill="white" transform="translate(0.00131989 -0.00146484)"/>
</clipPath>
</defs>
</svg>
