<svg width="30" height="30" viewBox="0 0 30 30" fill="none" xmlns="http://www.w3.org/2000/svg">
<g id="Frame">
<g id="Group">
<path id="Vector" d="M9.74551 8.98809C13.4552 11.3947 15.4071 12.0115 19.3174 9.5459C19.6094 9.36684 19.9629 9.15168 20.2549 8.95528C22.6877 7.30059 22.7346 5.70215 22.7299 5.45371V2.58496C22.7281 2.46121 22.6781 2.34303 22.5906 2.25551C22.5031 2.168 22.3849 2.11803 22.2611 2.11621H7.69239C7.63078 2.11603 7.56974 2.12803 7.51278 2.15152C7.45583 2.17501 7.40408 2.20953 7.36052 2.25309C7.31695 2.29666 7.28243 2.34841 7.25894 2.40536C7.23545 2.46232 7.22345 2.52335 7.22364 2.58496V5.4209C7.21895 5.49121 7.10176 7.21153 9.74551 8.98809ZM14.3018 13.9147C14.5835 14.1631 14.7143 14.7397 14.9721 14.9318C15.0471 14.9131 15.1314 14.7725 15.2674 14.5053C15.4211 14.1389 15.6848 13.8293 16.0221 13.6193C16.0643 12.9537 16.1111 12.4053 16.1674 11.9553C15.3993 12.1135 14.6076 12.1183 13.8377 11.9693C13.8893 12.424 13.9361 12.9818 13.9783 13.6568C14.0988 13.7256 14.2079 13.8126 14.3018 13.9147Z" fill="white"/>
<path id="Vector_2" d="M17.9019 16.5634C17.9113 15.4478 17.8644 14.6274 17.2035 14.3837C16.7207 14.3415 16.5378 14.3462 16.3269 14.5665C15.951 15.0465 15.7893 15.9671 14.8222 15.8603C14.0713 15.7112 13.9691 15.0109 13.6316 14.5759C13.4113 14.3415 13.205 14.3415 12.7503 14.3837C12.0416 14.6031 12.0313 15.6756 12.0472 16.7415C11.9877 18.5035 12.2853 19.4439 13.5003 19.0337C13.9972 18.6053 14.008 17.7367 14.8738 17.6134C15.7738 17.5599 15.9664 18.4342 16.3128 18.9071C16.3993 19.0007 16.5092 19.0696 16.6311 19.1067C16.753 19.1437 16.8826 19.1477 17.0066 19.1181C17.8419 19.119 17.9394 17.926 17.9019 16.5634Z" fill="white"/>
<path id="Vector_3" d="M15.8682 19.7639C15.4538 19.5351 15.2495 18.7748 14.9729 18.5498C14.6734 18.8386 14.5285 19.4582 14.1338 19.7311C14.1385 20.1342 14.1385 20.9264 14.1385 21.817H15.8635C15.8635 20.9404 15.8635 20.167 15.8682 19.7639ZM14.1385 26.0639C14.1385 26.2926 14.2294 26.512 14.3911 26.6737C14.5529 26.8355 14.7723 26.9264 15.001 26.9264C15.2298 26.9264 15.4491 26.8355 15.6109 26.6737C15.7726 26.512 15.8635 26.2926 15.8635 26.0639V25.3092H14.1385V26.0639Z" fill="white"/>
<path id="Vector_4" d="M23.7901 16.342C20.4948 16.0889 20.2651 12.6482 20.2557 12.5264V10.0654C19.2771 10.7055 18.2357 11.2442 17.1479 11.6732C17.0916 12.0764 17.0307 12.6436 16.9838 13.4264C18.7829 13.4381 18.9038 15.539 18.8401 16.7404C18.8588 17.8561 18.8916 19.9279 17.0963 20.0498C16.9999 20.0613 16.9028 20.0675 16.8057 20.0686C16.801 20.5936 16.801 21.4186 16.801 22.2857V26.0639C16.801 26.5413 16.6114 26.9991 16.2738 27.3367C15.9362 27.6742 15.4784 27.8639 15.001 27.8639C14.5236 27.8639 14.0658 27.6742 13.7282 27.3367C13.3907 26.9991 13.201 26.5413 13.201 26.0639V24.7936C13.2024 23.5645 13.2029 21.1195 13.1963 20.0592C11.0912 20.2195 11.0574 17.8954 11.1104 16.567C11.0274 15.4134 11.2801 13.3546 13.0229 13.4311C12.9713 12.6529 12.9151 12.0951 12.8588 11.692C11.9345 11.3404 11.046 10.9009 10.2057 10.3795C10.2057 10.3795 9.9432 10.2201 9.74633 10.1029V12.5076C9.73695 12.6576 9.50726 16.0982 6.21195 16.3514C2.09633 16.6701 1.88539 19.1686 1.87601 19.3045V27.4092C1.87747 27.533 1.92733 27.6514 2.01492 27.739C2.10252 27.8266 2.2209 27.8765 2.34476 27.8779L27.6573 27.8686C27.7815 27.8682 27.9005 27.8187 27.9883 27.7309C28.0761 27.643 28.1256 27.524 28.126 27.3998V19.267C28.1166 19.1592 27.9057 16.6654 23.7901 16.342Z" fill="white"/>
<path id="Vector_5" d="M14.1377 22.7568H15.8627V24.374H14.1377V22.7568Z" fill="white"/>
</g>
</g>
</svg>
