<svg width="31" height="31" viewBox="0 0 31 31" fill="none" xmlns="http://www.w3.org/2000/svg">
<g id="Frame" clip-path="url(#clip0_4_1087)">
<g id="Group">
<path id="Vector" d="M25.6301 12.8146C25.6539 12.5122 25.6659 12.209 25.666 11.9058C25.666 5.58941 20.5273 0.450684 14.2109 0.450684C7.89456 0.450684 2.75583 5.58941 2.75583 11.9058C2.75583 15.0302 4.03891 18.0229 6.28927 20.1792V30.4507H20.3747V25.1772H25.666V20.8804H29.043L25.6301 12.8146ZM12.4531 16.3296C14.8924 16.3296 16.8769 14.3451 16.8769 11.9058C16.8769 10.4357 15.681 9.23975 14.2109 9.23975C12.7408 9.23975 11.5449 10.4357 11.5449 11.9058C11.5449 12.4066 11.9523 12.814 12.4531 12.814C12.9539 12.814 13.3613 12.4066 13.3613 11.9058H15.1191C15.1191 13.3758 13.9232 14.5718 12.4531 14.5718C10.983 14.5718 9.78708 13.3758 9.78708 11.9058C9.78708 9.46644 11.7716 7.48193 14.2109 7.48193C16.6502 7.48193 18.6347 9.46644 18.6347 11.9058C18.6347 15.3143 15.8617 18.0874 12.4531 18.0874C9.04452 18.0874 6.27145 15.3143 6.27145 11.9058C6.27145 7.52793 9.83308 3.96631 14.2109 3.96631C18.5887 3.96631 22.1504 7.52793 22.1504 11.9058H20.3925C20.3925 8.49719 17.6195 5.72412 14.2109 5.72412C10.8023 5.72412 8.02927 8.49719 8.02927 11.9058C8.02927 14.3451 10.0138 16.3296 12.4531 16.3296Z" fill="white"/>
</g>
</g>
<defs>
<clipPath id="clip0_4_1087">
<rect width="30" height="30" fill="white" transform="translate(0.90036 0.450684)"/>
</clipPath>
</defs>
</svg>
