<svg width="30" height="30" viewBox="0 0 30 30" fill="none" xmlns="http://www.w3.org/2000/svg">
<g id="Frame" clip-path="url(#clip0_4_1066)">
<g id="Group">
<path id="Vector" d="M15.3655 17.5391C16.3142 17.006 17.0617 16.2492 17.5867 15.2892C17.7748 14.9436 18.2736 14.9423 18.4642 15.2892C18.9186 16.1217 19.5704 16.826 20.3485 17.3385C20.5917 16.3679 20.7154 15.3179 20.7154 14.2023C20.7154 13.8436 20.6323 13.5073 20.4848 13.2105C20.3554 13.2467 20.2217 13.2648 20.0861 13.2648C19.8946 13.2648 19.9075 13.2585 18.7217 13.0255L15.1886 16.0667C13.6862 17.3635 11.7267 15.0875 13.2318 13.7936L15.3236 11.993C12.7668 11.5042 11.3612 9.73615 9.18811 9.49365C9.56418 9.86046 9.98875 10.174 10.45 10.4255C10.75 10.5899 10.8756 11.0736 10.37 11.3542C9.42123 11.8874 8.67374 12.6442 8.14875 13.6042C7.96 13.9511 7.46064 13.9498 7.27189 13.6042C6.76502 12.6773 6.02816 11.9317 5.17505 11.4205C4.96318 11.293 4.85131 11.2624 4.76256 11.0874C4.25444 11.5105 3.95444 12.1442 3.95444 12.8105V14.2211C3.95444 25.2503 15.993 26.9902 19.6729 19.2397C19.1898 19.6704 18.7854 20.1816 18.4642 20.7691C18.2723 21.1172 17.7748 21.1135 17.5867 20.7691C17.0305 19.7591 16.228 18.9829 15.2855 18.4679C14.9624 18.2904 14.8868 17.8054 15.3655 17.5391ZM11.9612 19.9347H11.6568V20.2385C11.6568 20.5147 11.4331 20.7385 11.1568 20.7385C10.8806 20.7385 10.6568 20.5147 10.6568 20.2385V19.9347H10.3525C10.0762 19.9347 9.85247 19.7104 9.85247 19.4347C9.85247 19.1585 10.0762 18.9347 10.3525 18.9347H10.6568V18.6304C10.6568 18.3541 10.8806 18.1304 11.1568 18.1304C11.4331 18.1304 11.6568 18.3541 11.6568 18.6304V18.9347H11.9612C12.2374 18.9347 12.4612 19.1585 12.4612 19.4347C12.4612 19.7104 12.2374 19.9347 11.9612 19.9347Z" fill="white"/>
<path id="Vector_2" d="M19.59 18.0312C19.0056 18.4447 18.4758 18.9592 18.025 19.5906C17.5933 18.9879 17.0655 18.4602 16.4626 18.0287C17.0713 17.5981 17.5944 17.0769 18.0269 16.4694C18.4591 17.0719 18.9871 17.5996 19.59 18.0312ZM29.0874 4.38084C28.8787 4.56047 28.5628 4.53847 28.3824 4.32835L27.9199 3.79085L25.6205 5.7702L26.6443 6.95955C26.924 7.28461 26.6892 7.78579 26.2655 7.78579C26.0127 7.78579 25.9003 7.62848 25.798 7.50954L20.4131 12.1451C20.3223 12.223 20.2066 12.2658 20.0869 12.2657C20.0162 12.2657 20.1246 12.2828 18.4394 11.9513L14.537 15.31C14.0423 15.7359 13.381 14.9861 13.8845 14.5519L17.7869 11.1932L17.7157 9.61388C17.7088 9.46076 17.7725 9.31264 17.8888 9.21264L23.2743 4.57772L23.1862 4.47522C23.0056 4.26585 23.0293 3.95023 23.2387 3.7696C23.3392 3.68318 23.47 3.64023 23.6022 3.65019C23.7344 3.66015 23.8572 3.72221 23.9437 3.82273L24.9674 5.01208L27.2674 3.03337L26.8049 2.49588C26.6243 2.2865 26.648 1.97088 26.8574 1.79026C26.9579 1.70384 27.0887 1.66089 27.2209 1.67085C27.3531 1.68081 27.4759 1.74287 27.5624 1.84339L29.1399 3.67586C29.1828 3.72556 29.2154 3.78325 29.236 3.8456C29.2566 3.90795 29.2647 3.97376 29.2598 4.03924C29.2549 4.10472 29.2372 4.1686 29.2076 4.22722C29.178 4.28584 29.1372 4.33804 29.0874 4.38084Z" fill="white"/>
<path id="Vector_3" d="M22.6515 11.5368V20.891C22.6515 22.0272 21.7672 23.0066 20.5935 23.1685C19.6991 23.2916 18.6041 23.3922 17.3635 23.4653C20.4007 21.4055 21.7159 17.905 21.7159 14.203C21.7163 13.6691 21.5843 13.1434 21.3316 12.6731L22.6515 11.5368ZM21.5047 4.78064L17.2366 8.45495C17.0644 8.60304 16.928 8.78837 16.838 8.99691C16.7479 9.20545 16.7064 9.43175 16.7166 9.65868L16.7654 10.7524L16.3498 11.1105C13.1502 10.9498 11.6054 8.26571 8.36116 8.48058C8.12754 8.1204 8.13635 8.03577 7.96555 7.93496C7.7243 7.79134 7.40887 7.87552 7.27243 8.12496C7.14431 8.3587 7.00369 8.58058 6.84994 8.78995C6.03183 9.06932 5.18559 9.53493 4.27998 10.1974C3.44218 10.8106 2.955 11.7934 2.955 12.8111C2.955 14.2444 2.93975 14.7829 3.01938 15.6255C3.3165 18.8073 4.68879 21.6894 7.30743 23.4653C6.06683 23.3922 4.97185 23.2916 4.07749 23.1685C2.90438 23.0066 2.0194 22.0272 2.0194 20.891V9.35994C2.0194 -1.28095 17.1318 -2.9043 21.5047 4.78064ZM23.4272 30.0015H1.24378C0.87479 30.0015 0.634606 29.6157 0.793166 29.2852C2.44008 25.8492 6.61782 27.0406 8.36679 24.5209C8.48016 24.5259 9.42046 24.5664 9.53552 24.5591C9.58858 24.5591 10.6902 25.0009 12.3367 25.0009C13.9959 25.0009 15.0271 24.5681 15.1648 24.5597C15.2404 24.5662 16.229 24.5242 16.3048 24.5209C18.0044 26.9696 22.2495 25.8909 23.8784 29.2852C24.0373 29.6163 23.7958 30.0015 23.4272 30.0015Z" fill="white"/>
<path id="Vector_4" d="M9.27463 10.868C8.66651 11.2986 8.1434 11.8199 7.71028 12.4273C7.27851 11.8247 6.75066 11.297 6.1478 10.8655C6.73461 10.4508 7.26197 9.93708 7.71215 9.30615C8.14379 9.90894 8.67166 10.4366 9.27463 10.868Z" fill="white"/>
</g>
</g>
<defs>
<clipPath id="clip0_4_1066">
<rect width="30" height="30" fill="white" transform="translate(0.00131989 0.00146484)"/>
</clipPath>
</defs>
</svg>
