<svg width="30" height="31" viewBox="0 0 30 31" fill="none" xmlns="http://www.w3.org/2000/svg">
<g id="Frame" clip-path="url(#clip0_4_1078)">
<g id="Group">
<path id="Vector" d="M8.27839 19.9877C8.39261 19.989 8.50171 20.0353 8.58201 20.1166C8.66232 20.1978 8.70735 20.3074 8.70735 20.4217C8.70735 20.5359 8.66232 20.6455 8.58201 20.7268C8.50171 20.808 8.39261 20.8543 8.27839 20.8556C7.7646 20.8562 7.27201 21.0605 6.90865 21.4237C6.54528 21.787 6.34082 22.2795 6.34011 22.7933C6.33878 22.9075 6.29248 23.0166 6.21123 23.0969C6.12999 23.1772 6.02037 23.2222 5.90613 23.2222C5.7919 23.2222 5.68228 23.1772 5.60104 23.0969C5.51979 23.0166 5.47349 22.9075 5.47216 22.7933C5.4718 22.2798 5.2678 21.7875 4.90491 21.4242C4.54201 21.061 4.04986 20.8565 3.5364 20.8556C3.42217 20.8543 3.31308 20.808 3.23278 20.7268C3.15247 20.6455 3.10744 20.5359 3.10744 20.4217C3.10744 20.3074 3.15247 20.1978 3.23278 20.1166C3.31308 20.0353 3.42217 19.989 3.5364 19.9877C4.04972 19.9871 4.54184 19.7829 4.90477 19.4198C5.26771 19.0568 5.47182 18.5647 5.47234 18.0513C5.47167 17.9939 5.4824 17.937 5.50391 17.8837C5.52542 17.8305 5.55728 17.782 5.59765 17.7412C5.63801 17.7004 5.68608 17.6679 5.73906 17.6458C5.79204 17.6237 5.84889 17.6123 5.90631 17.6123C5.96373 17.6123 6.02058 17.6237 6.07356 17.6458C6.12654 17.6679 6.17461 17.7004 6.21498 17.7412C6.25534 17.782 6.2872 17.8305 6.30871 17.8837C6.33022 17.937 6.34095 17.9939 6.34028 18.0513C6.34111 18.565 6.54562 19.0573 6.90896 19.4203C7.27229 19.7833 7.76479 19.9873 8.27839 19.9877ZM20.731 24.4383C19.2081 24.0685 17.4815 23.6494 17.4815 21.3812V20.9528C16.7128 21.3457 15.862 21.5505 14.9987 21.5505C14.1355 21.5505 13.2846 21.3457 12.516 20.9528V21.3812C12.516 23.65 10.7907 24.069 9.26775 24.4383C5.23679 25.4183 3.22263 26.1057 2.90007 30.5015H27.0993C26.777 26.1057 24.7626 25.4183 20.731 24.4383ZM5.90986 15.2526L10.0597 18.9741C10.4607 19.3333 10.8311 19.0214 10.9015 18.9554C11.074 18.7929 11.2869 18.418 10.9887 18.042L8.84681 15.3354C8.21675 15.3192 7.59724 14.9326 7.49634 14.1387L7.13956 11.3045C7.1252 11.1903 7.15679 11.075 7.2274 10.9841C7.298 10.8932 7.40184 10.834 7.51606 10.8197C7.63028 10.8053 7.74552 10.8369 7.83645 10.9075C7.92737 10.9781 7.98652 11.082 8.00089 11.1962L8.35767 14.0298C8.41872 14.5085 8.88566 14.4751 8.97876 14.4637C8.98205 14.4632 8.98539 14.4629 8.98872 14.4631C8.98872 14.4625 8.98937 14.4625 8.98937 14.4625C9.04661 14.4544 9.54413 14.371 9.48185 13.8847L9.08523 10.7516L8.25091 9.66172C8.24226 9.6518 8.23416 9.64141 8.22665 9.63061L6.88111 7.87356C6.87512 7.86661 6.86952 7.85933 6.86435 7.85176L6.63706 7.55539C6.5913 7.4956 6.5619 7.42492 6.55175 7.35031L5.9429 2.9276L3.01216 3.41451L4.60175 12.8774C4.76423 13.8436 5.17937 14.5982 5.90986 15.2526ZM23.7224 18.8034C23.721 18.6892 23.6747 18.5801 23.5935 18.4998C23.5122 18.4195 23.4026 18.3744 23.2884 18.3744C23.1742 18.3744 23.0645 18.4195 22.9833 18.4998C22.902 18.5801 22.8557 18.6892 22.8544 18.8034C22.8539 19.19 22.7001 19.5606 22.4267 19.8339C22.1534 20.1073 21.7828 20.2611 21.3962 20.2616C21.282 20.2629 21.1729 20.3093 21.0926 20.3905C21.0123 20.4717 20.9672 20.5814 20.9672 20.6956C20.9672 20.8098 21.0123 20.9195 21.0926 21.0007C21.1729 21.0819 21.282 21.1282 21.3962 21.1296C21.7827 21.1301 22.1533 21.284 22.4266 21.5573C22.6999 21.8307 22.8537 22.2012 22.8542 22.5878C22.8535 22.6452 22.8642 22.7022 22.8857 22.7554C22.9073 22.8087 22.9391 22.8571 22.9795 22.8979C23.0198 22.9388 23.0679 22.9712 23.1209 22.9933C23.1739 23.0154 23.2307 23.0268 23.2881 23.0268C23.3456 23.0268 23.4024 23.0154 23.4554 22.9933C23.5084 22.9712 23.5564 22.9388 23.5968 22.8979C23.6372 22.8571 23.669 22.8087 23.6905 22.7554C23.7121 22.7022 23.7228 22.6452 23.7221 22.5878C23.7226 22.2012 23.8765 21.8306 24.1498 21.5573C24.4232 21.2839 24.7938 21.1301 25.1803 21.1296C25.2946 21.1283 25.4037 21.082 25.484 21.0008C25.5643 20.9195 25.6093 20.8099 25.6093 20.6957C25.6093 20.5814 25.5643 20.4718 25.484 20.3906C25.4037 20.3093 25.2946 20.263 25.1803 20.2617C24.7938 20.2612 24.4232 20.1073 24.1498 19.834C23.8765 19.5606 23.7226 19.19 23.7221 18.8035L23.7224 18.8034ZM20.2456 15.0827C19.849 14.8224 19.58 14.3722 19.6547 13.7758L20.0682 10.5263C20.0777 10.4501 20.1073 10.3779 20.1541 10.317L20.9137 9.32521C19.8359 7.03391 17.5926 5.62115 14.9987 5.62115C14.4809 5.6207 13.9648 5.67876 13.4601 5.79424C13.4372 5.80168 13.4137 5.8073 13.3898 5.81106C12.4534 6.03302 11.5796 6.46439 10.834 7.07274C10.0883 7.68109 9.49033 8.45058 9.08493 9.32334L9.84577 10.317C9.89252 10.3779 9.92217 10.4501 9.93167 10.5263L10.3432 13.7751C10.4198 14.3716 10.1509 14.8224 9.7536 15.0827L11.6689 17.5026C12.1626 18.1252 12.063 18.8593 11.6943 19.363C13.7397 21.1132 16.2595 21.1126 18.3048 19.3624C17.9357 18.8585 17.8366 18.1252 18.3292 17.5026L20.2456 15.0827ZM21.7505 9.6602L20.9143 10.7516L20.5159 13.8841C20.4549 14.371 20.953 14.4545 21.0096 14.4625C21.0111 14.4628 21.0126 14.4633 21.014 14.4638H21.0171C21.1754 14.4887 21.3374 14.4517 21.4691 14.3604C21.5188 14.3199 21.5596 14.2697 21.589 14.2129C21.6185 14.156 21.6359 14.0937 21.6403 14.0298L21.999 11.1956C22.0134 11.0814 22.0727 10.9776 22.1637 10.907C22.2547 10.8365 22.3699 10.805 22.4842 10.8194C22.5984 10.8339 22.7022 10.8931 22.7727 10.9841C22.8433 11.0751 22.8748 11.1904 22.8603 11.3046L22.5017 14.1388C22.4834 14.3159 22.4297 14.4876 22.3437 14.6436C22.2577 14.7995 22.1411 14.9366 22.001 15.0465C21.7558 15.2305 21.4585 15.3319 21.152 15.336L19.0095 18.0414C18.7113 18.418 18.9249 18.7935 19.098 18.956C19.1683 19.022 19.5388 19.3327 19.9379 18.9741L24.0896 15.2526C24.8199 14.5982 25.2352 13.8436 25.3977 12.8772L26.9873 3.41434L24.0566 2.92742L23.4476 7.35107C23.4374 7.42568 23.408 7.49636 23.3622 7.55615L23.15 7.8326V7.83383L21.764 9.64197C21.7596 9.64795 21.7555 9.65381 21.7503 9.66014L21.7505 9.6602ZM12.6517 5.11555C11.8828 3.57951 12.4942 1.81186 13.5788 0.81002C13.6985 0.70004 13.8249 0.597727 13.9574 0.503692C12.3226 0.447676 11.2894 1.45754 10.8642 2.50543C10.839 2.56788 10.7996 2.62355 10.749 2.66797C9.04919 4.16539 8.04489 5.74625 7.68378 7.49463L8.49941 8.55928C9.38502 6.91672 10.8737 5.68209 12.6517 5.11555ZM19.5001 2.40523C19.6543 2.18846 19.8437 1.99904 20.0604 1.84484C19.8437 1.69088 19.6543 1.50168 19.5001 1.2851C19.3462 1.50178 19.157 1.691 18.9403 1.84484C19.157 1.99892 19.3463 2.18836 19.5001 2.40523ZM13.5191 4.89389C14.0066 4.80009 14.502 4.75301 14.9984 4.75326C17.7835 4.75326 20.2124 6.19531 21.4981 8.56186L22.3405 7.4624C22.0592 5.9027 21.282 4.48748 20.0281 3.24717C19.966 3.41304 19.9342 3.58873 19.9343 3.76584C19.933 3.88006 19.8867 3.98916 19.8055 4.06946C19.7242 4.14977 19.6146 4.1948 19.5004 4.1948C19.3861 4.1948 19.2765 4.14977 19.1953 4.06946C19.114 3.98916 19.0677 3.88006 19.0664 3.76584C19.066 3.37172 18.9093 2.99384 18.6307 2.7151C18.3521 2.43636 17.9743 2.27951 17.5801 2.27897C17.4659 2.27764 17.3568 2.23133 17.2765 2.15009C17.1962 2.06885 17.1512 1.95922 17.1512 1.84499C17.1512 1.73076 17.1962 1.62113 17.2765 1.53989C17.3568 1.45865 17.4659 1.41234 17.5801 1.41102C17.7211 1.41099 17.8614 1.39086 17.9967 1.35125C16.4454 0.26586 15.0252 0.656211 14.1676 1.44758C13.2924 2.25641 12.8068 3.69969 13.5191 4.89389Z" fill="white"/>
</g>
</g>
<defs>
<clipPath id="clip0_4_1078">
<rect width="30" height="30" fill="white" transform="translate(-0.000320435 0.501465)"/>
</clipPath>
</defs>
</svg>
