<svg width="30" height="30" viewBox="0 0 30 30" fill="none" xmlns="http://www.w3.org/2000/svg">
<g id="Frame" clip-path="url(#clip0_4_952)">
<g id="Group">
<path id="Vector" d="M21.5864 5.24375C21.7402 5.2717 21.8984 5.28711 22.0602 5.28711C23.5182 5.28711 24.7043 4.101 24.7043 2.64307C24.7043 1.18514 23.5182 -0.000976562 22.0602 -0.000976562C20.6023 -0.000976562 19.4162 1.18514 19.4162 2.64307C19.4162 3.30295 19.6598 3.90664 20.0609 4.37035L19.0312 6.1724C19.5649 6.41725 20.0752 6.71002 20.5559 7.04709L21.5864 5.24375ZM8.7905 7.54689L5.02831 3.78471C5.19954 3.42851 5.28823 3.03828 5.28777 2.64307C5.28777 1.18514 4.10165 -0.000976562 2.64372 -0.000976562C1.18579 -0.000976562 -0.000320435 1.18514 -0.000320435 2.64307C-0.000320435 4.101 1.18579 5.28711 2.64372 5.28711C3.03893 5.28754 3.42916 5.19885 3.78536 5.02766L7.54755 8.78984C7.92373 8.33907 8.33973 7.92308 8.7905 7.54689ZM21.6617 25.838C21.3595 26.2678 21.1813 26.7908 21.1813 27.355C21.1813 28.8129 22.3674 29.999 23.8254 29.999C25.2833 29.999 26.4694 28.8129 26.4694 27.355C26.4694 25.8971 25.2833 24.7109 23.8254 24.7109C23.5707 24.7109 23.3246 24.7479 23.0915 24.8154L21.3297 22.3489C20.8851 22.7323 20.4067 23.0748 19.9004 23.3721L21.6617 25.838ZM8.04607 21.7611L5.36394 24.8902C5.05946 24.7717 4.73555 24.7109 4.4088 24.711C2.95087 24.711 1.76476 25.8971 1.76476 27.355C1.76476 28.813 2.95093 29.999 4.40886 29.999C5.86679 29.999 7.0529 28.8129 7.0529 27.355C7.05325 26.8913 6.93086 26.4357 6.69818 26.0346L9.37954 22.9064C8.90158 22.5654 8.45528 22.1821 8.04607 21.7611ZM14.9997 7.05225C10.6178 7.05225 7.0529 10.6171 7.0529 14.999C7.0529 19.3809 10.6178 22.9458 14.9997 22.9458C19.3816 22.9458 22.9465 19.3809 22.9465 14.999C22.9465 10.6171 19.3816 7.05225 14.9997 7.05225ZM10.5173 16.0244C10.0245 16.0244 9.65968 15.6217 9.63835 15.1455C9.61708 14.6708 10.0575 14.2666 10.5173 14.2666C11.01 14.2666 11.3748 14.6693 11.3962 15.1455C11.4174 15.6202 10.977 16.0244 10.5173 16.0244ZM12.5094 19.9502C12.0167 19.9502 11.6519 19.5475 11.6305 19.0713C11.6093 18.5966 12.0497 18.1924 12.5094 18.1924C13.0022 18.1924 13.367 18.5951 13.3884 19.0713C13.4096 19.546 12.9692 19.9502 12.5094 19.9502ZM14.1306 11.8057C13.6378 11.8057 13.273 11.4029 13.2517 10.9268C13.2304 10.4521 13.6708 10.0479 14.1306 10.0479C14.6233 10.0479 14.9881 10.4506 15.0095 10.9268C15.0307 11.4014 14.5903 11.8057 14.1306 11.8057ZM15.8493 15.8486C15.3566 15.8486 14.9917 15.4459 14.9704 14.9697C14.9491 14.4951 15.3896 14.0908 15.8493 14.0908C16.342 14.0908 16.7069 14.4935 16.7282 14.9697C16.7495 15.4444 16.309 15.8486 15.8493 15.8486ZM18.6032 19.6572C18.1105 19.6572 17.7456 19.2545 17.7243 18.7783C17.703 18.3037 18.1435 17.8994 18.6032 17.8994C19.0959 17.8994 19.4608 18.3021 19.4821 18.7783C19.5034 19.253 19.0629 19.6572 18.6032 19.6572ZM19.4821 13.3877C18.9894 13.3877 18.6245 12.985 18.6032 12.5088C18.5819 12.0341 19.0224 11.6299 19.4821 11.6299C19.9748 11.6299 20.3397 12.0326 20.361 12.5088C20.3823 12.9835 19.9418 13.3877 19.4821 13.3877ZM27.3556 5.29443C25.8977 5.29443 24.7116 6.48055 24.7116 7.93848C24.7116 8.10025 24.727 8.25846 24.755 8.41232L22.9516 9.44281C23.2887 9.92355 23.5815 10.4339 23.8263 10.9675L25.6284 9.93781C26.0921 10.339 26.6958 10.5826 27.3556 10.5826C28.8136 10.5826 29.9997 9.39647 29.9997 7.93854C29.9997 6.48061 28.8136 5.29443 27.3556 5.29443Z" fill="white"/>
</g>
</g>
<defs>
<clipPath id="clip0_4_952">
<rect width="30" height="30" fill="white" transform="translate(-0.000320435 -0.000976562)"/>
</clipPath>
</defs>
</svg>
