<svg width="31" height="31" viewBox="0 0 31 31" fill="none" xmlns="http://www.w3.org/2000/svg">
<g id="Frame" clip-path="url(#clip0_4_1105)">
<g id="Group">
<path id="Vector" d="M8.78444 18.771C8.45319 19.3397 8.60319 20.396 8.20944 22.0647C8.56489 22.6726 9.12561 23.1335 9.79069 23.3647C9.94177 23.4147 10.0681 23.5205 10.1439 23.6604C10.2197 23.8003 10.2392 23.9639 10.1986 24.1178C10.1579 24.2716 10.0601 24.4042 9.92509 24.4884C9.79006 24.5726 9.628 24.6021 9.47194 24.571C8.7862 24.3806 8.16991 23.9965 7.69694 23.4647C7.2481 24.3363 6.51957 25.0318 5.62819 25.4397C5.47901 25.5127 5.30696 25.5234 5.1499 25.4694C4.99284 25.4155 4.86363 25.3014 4.79069 25.1522C4.71776 25.0031 4.70708 24.831 4.76099 24.674C4.81491 24.5169 4.92901 24.3877 5.07819 24.3147C6.85944 23.4397 7.04694 22.0147 7.27819 19.9397C6.48444 20.0647 5.29694 20.4022 5.19069 21.3085C5.17184 21.4723 5.089 21.6221 4.96023 21.7251C4.83145 21.8281 4.66717 21.8761 4.50319 21.8585C3.40319 21.7085 3.73444 19.0022 7.47819 18.6272C7.56641 18.3917 7.68178 18.1673 7.82194 17.9585C7.54735 17.5351 7.42667 17.0301 7.48015 16.5283C7.53364 16.0265 7.75802 15.5583 8.11569 15.2022C8.61569 14.7022 8.50319 15.0772 8.00944 14.146C6.99069 14.3147 6.94069 14.771 6.48444 14.771C6.35668 14.771 6.23198 14.7319 6.12714 14.6588C6.0223 14.5858 5.94237 14.4824 5.8981 14.3625C5.85384 14.2427 5.84737 14.1121 5.87957 13.9885C5.91177 13.8648 5.98109 13.754 6.07819 13.671C6.51552 13.3081 7.03464 13.0571 7.59069 12.9397C7.49348 12.3898 7.49348 11.8271 7.59069 11.2772C7.61556 11.1115 7.70525 10.9624 7.84004 10.8628C7.97484 10.7631 8.14368 10.7211 8.30944 10.746C8.4752 10.7709 8.6243 10.8606 8.72393 10.9953C8.82356 11.1301 8.86556 11.299 8.84069 11.4647C8.75208 11.8959 8.7541 12.3409 8.84663 12.7712C8.93916 13.2016 9.12018 13.6081 9.37819 13.9647L11.7969 11.546C11.5146 10.6002 11.3962 9.613 11.4469 8.62724C11.4471 8.45825 11.413 8.29097 11.3467 8.13553C11.2804 7.98009 11.1833 7.8397 11.0612 7.72286C10.9391 7.60602 10.7946 7.51515 10.6363 7.45575C10.4781 7.39634 10.3095 7.36964 10.1407 7.37724C9.35812 7.37867 8.5868 7.56377 7.8888 7.91765C7.19081 8.27154 6.58562 8.78432 6.12194 9.41474C3.08397 13.3587 1.43981 18.1989 1.44694 23.1772C1.44694 26.471 1.38444 25.9772 2.28444 28.671C2.40098 29.0278 2.62915 29.3376 2.93525 29.5548C3.24136 29.772 3.60919 29.8851 3.98444 29.8772C6.24069 29.8772 6.69694 28.5272 9.57194 27.3772C11.2219 26.7522 12.6969 25.9335 12.6969 24.2522V17.3772C11.1844 18.396 10.1969 19.4272 8.78444 18.771ZM25.5219 9.41474C25.0583 8.78432 24.4531 8.27154 23.7551 7.91765C23.0571 7.56377 22.2858 7.37867 21.5032 7.37724C21.3344 7.36964 21.1658 7.39634 21.0075 7.45575C20.8493 7.51515 20.7048 7.60602 20.5827 7.72286C20.4606 7.8397 20.3635 7.98009 20.2972 8.13553C20.2309 8.29097 20.1968 8.45825 20.1969 8.62724C20.2568 9.60748 20.1469 10.5907 19.8719 11.5335L22.2907 13.9522C22.5491 13.5957 22.7303 13.1893 22.8228 12.7589C22.9154 12.3284 22.9172 11.8834 22.8282 11.4522C22.8033 11.2865 22.8453 11.1176 22.945 10.9828C23.0446 10.8481 23.1937 10.7584 23.3594 10.7335C23.5252 10.7086 23.6941 10.7506 23.8288 10.8503C23.9636 10.9499 24.0533 11.099 24.0782 11.2647C24.1754 11.8146 24.1754 12.3773 24.0782 12.9272C24.6343 13.0446 25.1534 13.2956 25.5907 13.6585C25.6878 13.7415 25.7571 13.8523 25.7893 13.976C25.8215 14.0996 25.8151 14.2302 25.7708 14.35C25.7265 14.4699 25.6466 14.5733 25.5418 14.6463C25.4369 14.7194 25.3122 14.7585 25.1844 14.7585C24.7344 14.7585 24.6782 14.2897 23.6657 14.1335C23.5224 14.3921 23.3616 14.6406 23.1844 14.8772L23.5282 15.221C23.8838 15.5782 24.1068 16.0462 24.1602 16.5474C24.2136 17.0486 24.0943 17.5531 23.8219 17.9772C23.9608 18.1802 24.0762 18.3982 24.1657 18.6272C27.9907 19.021 28.2469 21.846 27.0719 21.846C25.8969 21.846 27.2532 20.3772 24.3657 19.921C24.6032 22.0397 24.7907 23.4522 26.5657 24.3272C26.6932 24.389 26.796 24.4923 26.8571 24.6201C26.9182 24.7479 26.9341 24.8927 26.9022 25.0308C26.8702 25.1688 26.7923 25.2919 26.6812 25.3798C26.5701 25.4677 26.4324 25.5153 26.2907 25.5147C25.8782 25.5022 24.5719 24.7272 23.9469 23.4647C23.4532 24.0443 22.7801 24.4424 22.0344 24.596C21.8687 24.6175 21.7012 24.5724 21.5687 24.4704C21.4363 24.3684 21.3497 24.218 21.3282 24.0522C21.3066 23.8865 21.3518 23.719 21.4538 23.5865C21.5558 23.4541 21.7062 23.3675 21.8719 23.346C22.537 23.1148 23.0977 22.6538 23.4532 22.046C23.0719 20.421 23.2032 19.3085 22.8782 18.7522C21.4969 19.3772 20.5844 18.4522 18.9657 17.321V24.2522C18.9657 25.946 20.4157 26.7522 22.0907 27.3772C24.9407 28.521 25.4282 29.8772 27.6782 29.8772C28.0535 29.8851 28.4213 29.772 28.7274 29.5548C29.0335 29.3376 29.2617 29.0278 29.3782 28.671C30.2532 26.0022 30.1969 26.4835 30.1969 23.1772C30.2041 18.1989 28.5599 13.3587 25.5219 9.41474Z" fill="white"/>
<path id="Vector_2" d="M22.6416 16.0697C18.7603 12.1885 17.6978 11.576 17.6978 9.56973V1.12598H13.9478V9.56973C13.9482 10.0631 13.8513 10.5516 13.6625 11.0075C13.4738 11.4633 13.1969 11.8773 12.8478 12.226L9.0041 16.0697C8.80933 16.2355 8.68838 16.4718 8.66787 16.7268C8.64736 16.9817 8.72896 17.2343 8.89472 17.4291C9.06048 17.6239 9.29682 17.7448 9.55176 17.7653C9.80669 17.7858 10.0593 17.7042 10.2541 17.5385L15.1228 14.126C15.3333 13.978 15.5843 13.8987 15.8416 13.8987C16.0989 13.8987 16.3499 13.978 16.5603 14.126L21.4291 17.5385C21.6267 17.6581 21.8608 17.7027 22.0886 17.664C22.3164 17.6253 22.5227 17.506 22.6697 17.3278C22.8168 17.1496 22.8949 16.9245 22.8898 16.6935C22.8846 16.4626 22.7965 16.2411 22.6416 16.0697Z" fill="white"/>
</g>
</g>
<defs>
<clipPath id="clip0_4_1105">
<rect width="30" height="30" fill="white" transform="translate(0.821014 0.500977)"/>
</clipPath>
</defs>
</svg>
