<svg width="30" height="30" viewBox="0 0 30 30" fill="none" xmlns="http://www.w3.org/2000/svg">
<g id="Frame">
<g id="Group">
<path id="Vector" d="M19.0168 14.4305C19.7034 14.7164 20.4396 14.8636 21.1833 14.8636C21.9269 14.8636 22.6632 14.7164 23.3497 14.4305C24.5034 13.9547 25.782 13.8734 26.9866 14.1992C26.686 10.1573 24.1291 6.99922 21.0172 6.99922C20.3146 6.99922 19.6432 7.12612 19.0168 7.34782V2.99902H17.017V10.9991C17.0171 12.0354 16.8151 13.0617 16.4224 14.0207C17.3074 13.9513 18.1963 14.0917 19.0168 14.4305ZM26.9182 16.2785C26.4737 16.0941 25.9971 15.9993 25.5159 15.9996C25.0346 16 24.5581 16.0953 24.1138 16.2803C22.2229 17.0615 20.1412 17.0615 18.2515 16.2785C17.8069 16.0941 17.3302 15.9993 16.8489 15.9996C16.3675 16 15.8909 16.0953 15.4465 16.2803C15.2356 16.3673 15.0226 16.4414 14.8081 16.5089C13.3504 18.0401 11.2978 18.9992 9.01694 18.9992H7.01684C4.80734 18.9992 3.01694 20.7905 3.01694 22.9994V26.999H5.01704V22.9991C5.01704 22.1513 5.54924 21.4298 6.29534 21.1388C8.14094 24.623 11.8003 26.999 16.0168 26.999C21.6928 26.999 26.3608 22.3085 26.9515 16.289C26.941 16.2851 26.9293 16.283 26.9182 16.2785ZM14.017 23.999C13.8844 23.999 13.7573 23.9464 13.6635 23.8526C13.5698 23.7588 13.5171 23.6317 13.5171 23.4991C13.5171 23.3665 13.5698 23.2393 13.6635 23.1456C13.7573 23.0518 13.8844 22.9991 14.017 22.9991C14.1496 22.9991 14.2768 23.0518 14.3706 23.1456C14.4643 23.2393 14.517 23.3665 14.517 23.4991C14.517 23.6317 14.4643 23.7588 14.3706 23.8526C14.2768 23.9464 14.1496 23.999 14.017 23.999ZM15.0169 20.999C14.8843 20.999 14.7572 20.9464 14.6634 20.8526C14.5697 20.7588 14.517 20.6317 14.517 20.4991C14.517 20.3665 14.5697 20.2393 14.6634 20.1456C14.7572 20.0518 14.8843 19.9991 15.0169 19.9991C15.1495 19.9991 15.2767 20.0518 15.3705 20.1456C15.4642 20.2393 15.5169 20.3665 15.5169 20.4991C15.5169 20.6317 15.4642 20.7588 15.3705 20.8526C15.2767 20.9464 15.1495 20.999 15.0169 20.999ZM17.2672 23.999C17.0683 23.999 16.8776 23.92 16.7369 23.7794C16.5963 23.6387 16.5172 23.4479 16.5172 23.249C16.5172 23.0501 16.5963 22.8593 16.7369 22.7187C16.8776 22.578 17.0683 22.499 17.2672 22.499C17.4662 22.499 17.6569 22.578 17.7976 22.7187C17.9382 22.8593 18.0172 23.0501 18.0172 23.249C18.0172 23.4479 17.9382 23.6387 17.7976 23.7794C17.6569 23.92 17.4662 23.999 17.2672 23.999ZM18.0172 19.9991C17.752 19.999 17.4977 19.8935 17.3102 19.706C17.1226 19.5185 17.0172 19.2641 17.017 18.9989C17.0172 18.7337 17.1226 18.4794 17.3102 18.292C17.4977 18.1045 17.7521 17.9991 18.0172 17.999C18.2823 17.9993 18.5365 18.1047 18.7239 18.2922C18.9113 18.4796 19.0167 18.7338 19.0168 18.9989C19.0168 19.2641 18.9114 19.5183 18.724 19.7059C18.5366 19.8934 18.2824 19.9989 18.0172 19.9991ZM20.017 22.9991C19.7404 22.9991 19.5172 22.7753 19.5172 22.499C19.5172 22.3665 19.5699 22.2393 19.6636 22.1456C19.7574 22.0519 19.8845 21.9992 20.017 21.9992C20.1496 21.9992 20.2767 22.0519 20.3705 22.1456C20.4642 22.2393 20.5168 22.3665 20.5168 22.499C20.5168 22.7753 20.2936 22.9991 20.017 22.9991ZM22.267 20.999C22.0681 20.999 21.8774 20.92 21.7367 20.7794C21.5961 20.6387 21.517 20.4479 21.517 20.249C21.517 20.0501 21.5961 19.8593 21.7367 19.7187C21.8774 19.578 22.0681 19.499 22.267 19.499C22.466 19.499 22.6567 19.578 22.7974 19.7187C22.938 19.8593 23.017 20.0501 23.017 20.249C23.017 20.4479 22.938 20.6387 22.7974 20.7794C22.6567 20.92 22.466 20.999 22.267 20.999Z" fill="white"/>
</g>
</g>
</svg>
