<svg width="30" height="30" viewBox="0 0 30 30" fill="none" xmlns="http://www.w3.org/2000/svg">
<g id="Frame" clip-path="url(#clip0_4_972)">
<g id="Group">
<path id="Vector" d="M27.9193 17.575C28.3104 18.1343 28.5332 18.8165 28.5332 19.5486V19.5713C28.5332 21.2448 27.3281 22.6773 25.7274 22.9729C25.6774 24.8465 24.1448 26.3517 22.2713 26.3517C22.2258 26.3517 22.1757 26.3517 22.1257 26.3472C21.5573 27.5068 20.3476 28.2663 19.0243 28.2663C17.0916 28.2663 15.5227 26.711 15.5227 24.7965C15.5227 24.7556 15.5318 24.7146 15.5455 24.6737V5.17393C15.5455 3.27303 17.1053 1.72691 19.0243 1.72691C20.2612 1.72691 21.3799 2.37268 21.9938 3.4368C24.0084 3.27309 25.7091 4.86467 25.7274 6.83834C27.2599 7.21123 28.3785 8.60277 28.3785 10.2035C28.3785 10.7401 28.2558 11.254 28.0147 11.7314C28.0193 11.7405 28.0284 11.7451 28.0329 11.7496C28.9788 12.3999 29.5518 13.4641 29.5518 14.61C29.5518 15.8334 28.9243 16.9475 27.9193 17.575ZM2.08149 17.5729C1.6909 18.1359 1.46426 18.8176 1.46426 19.5492C1.46426 19.5514 1.46549 19.5532 1.46549 19.5554C1.46549 19.5607 1.46426 19.566 1.46426 19.5714C1.46426 21.2443 2.67311 22.6783 4.27225 22.9752C4.32335 24.8448 5.8537 26.3501 7.72776 26.3501C7.77217 26.3501 7.82233 26.3501 7.87606 26.3474C8.44184 27.5069 9.65333 28.2681 10.9763 28.2681C12.9067 28.2681 14.4775 26.7107 14.4775 24.7964C14.4775 24.7538 14.4695 24.7127 14.4553 24.6752V5.1748C14.4553 3.27256 12.8947 1.7251 10.9763 1.7251C9.73876 1.7251 8.62149 2.37467 8.00438 3.43639C5.98659 3.27268 4.28989 4.87 4.2709 6.83834C2.7388 7.21117 1.61878 8.60447 1.61878 10.2014C1.61878 10.7423 1.74194 11.2561 1.98446 11.7337C1.97813 11.7392 1.97233 11.745 1.96647 11.751C1.02182 12.4009 0.447662 13.4654 0.447662 14.6106C0.447721 15.8311 1.07655 16.9489 2.08149 17.5729ZM2.6038 12.1577C2.99995 11.953 3.43477 11.8432 3.90452 11.8432C5.21415 11.8432 6.34079 12.7328 6.6446 14.0062C6.66556 14.0942 6.72062 14.1702 6.79766 14.2176C6.8747 14.265 6.96741 14.2799 7.0554 14.2589C7.14338 14.2379 7.21944 14.1829 7.26683 14.1058C7.31423 14.0288 7.32907 13.9361 7.30811 13.8481C6.93065 12.266 5.53131 11.1611 3.90458 11.1611C3.43993 11.1611 3.0027 11.2506 2.59307 11.414C2.40253 11.0348 2.30098 10.6291 2.30098 10.2014C2.30098 8.95404 3.1561 7.87041 4.33606 7.53637C4.64567 9.13381 6.04799 10.3439 7.72782 10.3439C7.81718 10.3423 7.90233 10.3056 7.96494 10.2418C8.02755 10.1781 8.06263 10.0922 8.06263 10.0029C8.06263 9.91349 8.02755 9.82768 7.96494 9.7639C7.90233 9.70012 7.81718 9.66345 7.72782 9.6618C6.2986 9.6618 5.11887 8.56943 4.96969 7.17168C4.98686 7.07078 4.95311 7.04875 4.95311 6.87227C4.95311 4.38631 7.95159 3.21379 9.72358 4.91383C9.85946 5.04396 10.0753 5.03951 10.2059 4.90363C10.3364 4.76775 10.332 4.55189 10.1961 4.42135C9.782 4.02449 9.27499 3.73346 8.73153 3.57104C9.24516 2.84518 10.0695 2.40719 10.9763 2.40719C12.5187 2.40719 13.7732 3.64867 13.7732 5.1748V10.972C13.249 10.3729 12.4842 9.99273 11.6402 9.99273C11.5509 9.99439 11.4657 10.0311 11.4031 10.0948C11.3405 10.1586 11.3054 10.2444 11.3054 10.3338C11.3054 10.4232 11.3405 10.509 11.4031 10.5728C11.4657 10.6366 11.5509 10.6732 11.6402 10.6749C12.7124 10.6749 13.6272 11.4704 13.7732 12.5266V24.7964C13.7732 24.8344 13.7803 24.871 13.7932 24.9052C13.7355 26.3931 12.4938 27.586 10.9763 27.586C9.98268 27.586 9.06839 27.0524 8.58417 26.224C9.3784 26.025 10.0948 25.5476 10.5895 24.8642C10.6158 24.8279 10.6347 24.7868 10.6451 24.7432C10.6555 24.6996 10.6572 24.6544 10.6501 24.6102C10.643 24.5659 10.6272 24.5235 10.6037 24.4854C10.5802 24.4472 10.5495 24.4141 10.5131 24.3879C10.3613 24.2777 10.1476 24.3117 10.0371 24.464C9.56198 25.1206 8.86501 25.5322 8.08969 25.6255C8.08682 25.6255 8.08419 25.6238 8.08126 25.6238C8.07475 25.6238 8.0686 25.6271 8.0621 25.6275C7.95921 25.6388 7.85526 25.646 7.74997 25.646C6.21962 25.646 4.97485 24.3946 4.97485 22.8564C4.97485 21.3303 6.21962 20.0888 7.74997 20.0888C7.83933 20.0871 7.92448 20.0505 7.98709 19.9867C8.0497 19.9229 8.08478 19.8371 8.08478 19.7477C8.08478 19.6583 8.0497 19.5725 7.98709 19.5087C7.92448 19.445 7.83933 19.4083 7.74997 19.4066C6.03663 19.4066 4.6145 20.6577 4.34315 22.2916C3.0886 22.0323 2.14641 20.8963 2.14641 19.5714C2.14558 18.8808 2.40536 18.2154 2.87385 17.708C2.89038 17.6901 2.8963 17.6664 2.90842 17.6458C3.31694 17.2125 3.86051 16.9026 4.49034 16.7994C4.57857 16.7836 4.65705 16.7338 4.70883 16.6607C4.76061 16.5875 4.78153 16.4969 4.76706 16.4085C4.75259 16.32 4.70389 16.2408 4.6315 16.188C4.5591 16.1352 4.46883 16.113 4.38018 16.1262C3.66141 16.2439 3.02796 16.5734 2.53565 17.043C1.67643 16.5548 1.12987 15.63 1.12987 14.6107C1.12981 13.5944 1.69442 12.6552 2.6038 12.1577Z" fill="white"/>
<path id="Vector_2" d="M9.22079 13.7728C9.2208 13.8632 9.25674 13.95 9.3207 14.0139C9.38467 14.0779 9.47141 14.1138 9.56186 14.1138C10.7507 14.1138 11.7179 15.0784 11.7179 16.2641C11.7179 17.4498 10.7507 18.4144 9.56186 18.4144C9.4725 18.416 9.38735 18.4527 9.32474 18.5165C9.26213 18.5803 9.22705 18.6661 9.22705 18.7555C9.22705 18.8448 9.26213 18.9306 9.32474 18.9944C9.38735 19.0582 9.4725 19.0949 9.56186 19.0965C11.1268 19.0965 12.4001 17.826 12.4001 16.2641C12.4001 14.7022 11.1268 13.4317 9.56186 13.4317C9.47141 13.4317 9.38467 13.4676 9.3207 13.5316C9.25674 13.5956 9.2208 13.6823 9.22079 13.7728ZM11.7694 7.37802C11.8012 7.34641 11.8264 7.30886 11.8436 7.26751C11.8608 7.22617 11.8697 7.18184 11.8698 7.13706C11.8699 7.09227 11.8611 7.04791 11.844 7.0065C11.827 6.96509 11.8019 6.92745 11.7703 6.89573C11.6375 6.76249 11.4208 6.76208 11.288 6.89526C10.4758 7.70526 9.15552 7.70438 8.34411 6.89526C8.21134 6.76161 7.9946 6.76249 7.86182 6.89573C7.83021 6.92745 7.80516 6.96509 7.7881 7.0065C7.77103 7.04791 7.76229 7.09227 7.76237 7.13706C7.76246 7.18184 7.77136 7.22617 7.78857 7.26751C7.80579 7.30886 7.83098 7.34641 7.8627 7.37802C8.40095 7.91538 9.10841 8.18403 9.81581 8.18403C10.5237 8.18403 11.2312 7.91538 11.7694 7.37802ZM4.02932 18.2812C4.02493 18.3258 4.02936 18.3708 4.04236 18.4136C4.05536 18.4565 4.07667 18.4964 4.10509 18.531C4.1335 18.5656 4.16846 18.5943 4.20796 18.6154C4.24746 18.6365 4.29073 18.6496 4.3353 18.654C4.43122 18.6633 4.52579 18.668 4.61995 18.668C6.03927 18.668 7.217 17.6162 7.36003 16.1653C7.36445 16.1207 7.36005 16.0757 7.34706 16.0328C7.33408 15.9899 7.31277 15.95 7.28435 15.9154C7.25594 15.8807 7.22097 15.852 7.18146 15.8309C7.14194 15.8098 7.09864 15.7966 7.05405 15.7923C6.87241 15.7763 6.70009 15.911 6.68145 16.0982C6.56596 17.2647 5.56231 18.0889 4.40192 17.975C4.21852 17.9585 4.04796 18.0938 4.02932 18.2812ZM7.93202 22.6862C7.9068 22.7232 7.88911 22.7648 7.87998 22.8087C7.87085 22.8526 7.87045 22.8978 7.8788 22.9418C7.88715 22.9858 7.90408 23.0278 7.92864 23.0652C7.9532 23.1027 7.9849 23.135 8.02193 23.1602C8.09672 23.2112 8.18868 23.2303 8.27758 23.2134C8.3216 23.2051 8.36354 23.1881 8.40102 23.1636C8.43849 23.139 8.47076 23.1073 8.49598 23.0703C9.14567 22.1162 10.4389 21.8603 11.3813 22.499C11.4562 22.5496 11.5481 22.5685 11.6369 22.5515C11.7258 22.5344 11.8042 22.4829 11.8551 22.4081C11.8802 22.3711 11.8978 22.3294 11.9068 22.2855C11.9158 22.2417 11.9161 22.1964 11.9077 22.1525C11.8992 22.1085 11.8822 22.0666 11.8575 22.0292C11.8329 21.9918 11.8011 21.9596 11.764 21.9345C10.5127 21.0861 8.79399 21.4225 7.93202 22.6862Z" fill="white"/>
</g>
</g>
<defs>
<clipPath id="clip0_4_972">
<rect width="30" height="30" fill="white" transform="translate(0.000396729 -0.00146484)"/>
</clipPath>
</defs>
</svg>
