<svg width="31" height="30" viewBox="0 0 31 30" fill="none" xmlns="http://www.w3.org/2000/svg">
<g id="Frame" clip-path="url(#clip0_4_1096)">
<g id="Group">
<path id="Vector" d="M26.384 3.27441C24.3199 3.27441 23.0879 4.30648 22.0979 5.13582C21.4806 5.65291 21.0198 6.02064 20.5113 6.17504C19.6491 4.45672 17.8705 3.27441 15.8207 3.27441C13.7709 3.27441 11.9923 4.45666 11.1302 6.17498C10.6216 6.02059 10.1608 5.65291 9.5435 5.13582C8.5535 4.30654 7.32145 3.27441 5.25737 3.27441C3.5561 3.27441 2.52016 3.99166 1.95069 4.59342C1.22202 5.36334 0.820709 6.39377 0.820709 7.4948C0.820709 9.40502 2.0854 11.3359 4.51159 11.6653C4.86075 12.7258 5.86001 13.4937 7.03587 13.4937C8.50112 13.4937 9.69321 12.3016 9.69321 10.8363C9.69321 9.37098 8.50112 8.17889 7.03587 8.17889C5.90389 8.17889 4.93551 8.89063 4.55325 9.88994C3.19575 9.61731 2.57852 8.5523 2.57852 7.4948C2.57852 6.26902 3.40686 5.03223 5.25737 5.03223C6.68249 5.03223 7.52389 5.73705 8.41469 6.4833C9.04176 7.00859 9.7303 7.58475 10.6181 7.85598C10.5902 8.07582 10.5763 8.29719 10.5763 8.51879C10.5763 9.26645 10.7307 9.98902 11.0351 10.6663C11.1919 11.0152 11.3341 11.3704 11.4611 11.7312C12.0348 13.3633 12.1663 15.1835 11.8413 16.995C11.5687 18.5139 11.6048 20.0467 11.9485 21.5511L13.1307 26.7264H18.5107L19.693 21.5511C20.0366 20.0467 20.0727 18.5138 19.8002 16.995C19.4751 15.1835 19.6066 13.3633 20.1804 11.7312C20.3074 11.3704 20.4495 11.0152 20.6064 10.6664C20.9107 9.98891 21.0651 9.26639 21.0651 8.51879C21.0651 8.29432 21.0509 8.07312 21.0234 7.85598C21.9111 7.58475 22.5997 7.00859 23.2268 6.4833C24.1176 5.73711 24.959 5.03223 26.3842 5.03223C28.2347 5.03223 29.063 6.26902 29.063 7.4948C29.063 8.5523 28.4458 9.61731 27.0883 9.88994C26.7061 8.89068 25.7377 8.17889 24.6057 8.17889C23.1404 8.17889 21.9483 9.37098 21.9483 10.8363C21.9483 12.3016 23.1404 13.4937 24.6057 13.4937C25.7811 13.4937 26.7801 12.7263 27.1296 11.6663C28.396 11.4951 29.2099 10.9044 29.6908 10.3962C30.4193 9.62627 30.8207 8.59584 30.8207 7.4948C30.8207 5.3975 29.2967 3.27441 26.384 3.27441Z" fill="white"/>
</g>
</g>
<defs>
<clipPath id="clip0_4_1096">
<rect width="30" height="30" fill="white" transform="translate(0.820709 0.000976562)"/>
</clipPath>
</defs>
</svg>
