<svg width="15" height="15" viewBox="0 0 15 15" fill="none" xmlns="http://www.w3.org/2000/svg">
<g id="Calling">
<path id="Calling_2" fill-rule="evenodd" clip-rule="evenodd" d="M9.42694 0.00161671C9.2647 -0.02164 9.10174 0.026327 8.97209 0.129529C8.83882 0.234184 8.75553 0.385353 8.73742 0.554692C8.69903 0.897002 8.94602 1.20661 9.28788 1.24513C11.6455 1.50822 13.4779 3.34478 13.743 5.7097C13.7785 6.02657 14.0443 6.26568 14.3615 6.26568C14.3854 6.26568 14.4086 6.26423 14.4325 6.26132C14.5984 6.24315 14.7461 6.16103 14.8504 6.03021C14.954 5.89939 15.0011 5.73659 14.9823 5.57016C14.652 2.61946 12.3683 0.329392 9.42694 0.00161671ZM9.47221 2.53399C9.126 2.47003 8.80804 2.69097 8.74213 3.02892C8.67622 3.36687 8.89785 3.69683 9.23465 3.76296C10.2487 3.96064 11.0316 4.74556 11.2301 5.76304V5.76377C11.2866 6.05666 11.5444 6.2696 11.8414 6.2696C11.8812 6.2696 11.921 6.26597 11.9616 6.2587C12.2984 6.19111 12.52 5.86188 12.4541 5.52321C12.1579 4.00352 10.9882 2.82978 9.47221 2.53399ZM10.6227 9.51625C10.9511 9.32693 11.3219 9.1131 11.7897 9.2126C12.2134 9.302 13.6577 10.4743 14.0531 10.8806C14.3124 11.1465 14.4566 11.4213 14.479 11.696C14.5181 12.7738 13.0536 14.0042 12.7871 14.1576C12.4329 14.4127 12.0208 14.5413 11.558 14.5413C11.085 14.5413 10.5577 14.4069 9.98262 14.1387C6.86237 12.8363 2.0958 8.16387 0.835535 5.06781C0.312596 3.91515 0.308974 2.96453 0.826843 2.25011C1.03327 1.91507 2.21024 0.514574 3.26409 0.558907C3.54439 0.58289 3.81672 0.726792 4.08399 0.98843C4.48814 1.38452 5.63107 2.83298 5.71944 3.25815C5.81722 3.73055 5.60283 4.10629 5.41234 4.43625C5.37171 4.50718 5.31697 4.59135 5.25699 4.68356C5.02938 5.03355 4.72643 5.49938 4.83363 5.79677C5.6021 7.68347 7.37734 9.32961 9.26485 10.1029C9.55674 10.209 10.0223 9.90387 10.3712 9.67525C10.4621 9.61568 10.545 9.56131 10.6149 9.52076L10.6227 9.51625Z" fill="#EC942C"/>
</g>
</svg>
