<svg width="943" height="7" viewBox="0 0 943 7" fill="none" xmlns="http://www.w3.org/2000/svg">
<path fill-rule="evenodd" clip-rule="evenodd" d="M21.6775 5.67567C41.6639 5.2616 94.1892 5.24089 236.776 5.19948C459.43 5.13737 636.139 4.6819 685.252 4.01938C689.152 3.95727 377.047 3.5018 344.995 3.83305C295.029 4.37135 56.4099 3.91587 8.39368 3.29476C-5.25559 3.12913 -0.13706 2.54943 8.75935 2.42521C22.6523 2.21817 59.9443 2.23888 162.192 2.28029C234.095 2.30099 806.146 1.8248 868.664 0.975956C903.762 0.499774 925.089 0.0650005 934.839 0.168519C943.004 0.251333 943.126 0.499774 936.057 1.18299C931.305 1.63847 936.667 1.90762 940.079 2.03184C945.319 2.23888 943.126 2.9428 936.545 3.50179C927.648 4.26783 912.293 4.24712 919.605 3.48109C921.19 3.31546 921.555 2.90139 915.949 2.98421C899.619 3.23265 784.209 4.93034 752.889 5.22019C418.482 8.36713 92.1174 6.06904 23.0179 6.83507C-1.47767 7.12492 9.7344 5.92411 21.6775 5.67567Z" fill="#25B4F8"/>
</svg>
