<svg width="500" height="9" viewBox="0 0 500 9" fill="none" xmlns="http://www.w3.org/2000/svg">
<path fill-rule="evenodd" clip-rule="evenodd" d="M11.8295 6.77975C22.4117 6.28634 50.2227 6.24884 125.719 6.1645C243.61 6.03582 337.174 5.45455 363.178 4.66082C365.242 4.58659 199.989 4.12698 183.018 4.52571C156.563 5.17313 30.2186 4.69523 4.79466 3.97452C-2.43244 3.78254 0.277398 3.09744 4.98779 2.9487C12.3437 2.70102 32.0891 2.71616 86.2273 2.73956C124.298 2.74608 427.187 2.04199 460.289 1.02512C478.872 0.454678 490.164 -0.0634928 495.326 0.0561909C499.65 0.151847 499.714 0.444881 495.972 1.25257C493.456 1.79104 496.295 2.10719 498.102 2.25288C500.877 2.49579 499.716 3.32669 496.232 3.98772C491.522 4.89356 483.391 4.87295 487.262 3.96752C488.101 3.77175 488.295 3.28322 485.326 3.3823C476.68 3.67943 415.574 5.71076 398.991 6.06047C221.931 9.85586 49.1262 7.22624 12.5399 8.14706C-0.429889 8.49506 5.50601 7.07579 11.8295 6.77975Z" fill="#25B4F8"/>
</svg>
