<svg width="16" height="13" viewBox="0 0 16 13" fill="none" xmlns="http://www.w3.org/2000/svg">
<path d="M8.00208 5.94002L15.3049 1.25271C15.0113 1.03269 14.6548 0.912612 14.2878 0.910156H1.71636C1.34935 0.912612 0.992823 1.03269 0.699219 1.25271L8.00208 5.94002Z" fill="white"/>
<path d="M8.30857 7.09777L8.21143 7.14345H8.16572C8.1131 7.16693 8.05723 7.18233 8 7.18912C7.95257 7.19509 7.90457 7.19509 7.85714 7.18912H7.81143L7.71429 7.14345L0.0571428 2.19922C0.0205589 2.33712 0.00136269 2.47905 0 2.6217V10.6147C0 11.0689 0.180612 11.5046 0.502103 11.8258C0.823594 12.147 1.25963 12.3275 1.71429 12.3275H14.2857C14.7404 12.3275 15.1764 12.147 15.4979 11.8258C15.8194 11.5046 16 11.0689 16 10.6147V2.6217C15.9986 2.47905 15.9794 2.33712 15.9429 2.19922L8.30857 7.09777Z" fill="white"/>
</svg>
