<svg width="14" height="15" viewBox="0 0 14 15" fill="none" xmlns="http://www.w3.org/2000/svg">
<path d="M5.67092 4.13497C5.48872 2.03955 3.30244 1.01139 3.20991 0.969422C3.12341 0.928766 3.02648 0.915777 2.93233 0.932225C0.408372 1.35093 0.0287283 2.81973 0.0134662 2.88077C-0.00729845 2.96583 -0.00399583 3.05499 0.023005 3.13829C3.03344 12.4776 9.28993 14.2087 11.3465 14.7781C11.5048 14.8219 11.6355 14.8572 11.7347 14.8897C11.8479 14.9266 11.9709 14.9195 12.0791 14.8696C12.142 14.841 13.6282 14.1409 13.9916 11.8576C14.0077 11.7579 13.9917 11.6557 13.9458 11.5658C13.9134 11.5028 13.136 10.0235 10.9802 9.50087C10.9071 9.48217 10.8305 9.48151 10.757 9.49895C10.6836 9.5164 10.6155 9.55142 10.5586 9.60101C9.87847 10.1819 8.9389 10.8009 8.5335 10.8648C5.8159 9.53616 4.29829 6.98674 4.24105 6.50318C4.20767 6.23135 4.83055 5.27663 5.54691 4.50027C5.59194 4.45141 5.62623 4.39366 5.64759 4.33075C5.66894 4.26783 5.67689 4.20114 5.67092 4.13497Z" fill="white"/>
</svg>
