<svg width="30" height="31" viewBox="0 0 30 31" fill="none" xmlns="http://www.w3.org/2000/svg">
<g id="Frame">
<g id="Group">
<path id="Vector" d="M21.4334 14.1072V7.14483C21.4334 6.91782 21.3887 6.69302 21.3018 6.48329C21.215 6.27356 21.0876 6.08299 20.9271 5.92247C20.7666 5.76195 20.576 5.63462 20.3663 5.54775C20.1565 5.46089 19.9317 5.41618 19.7047 5.4162H5.01029C4.55183 5.4162 4.11214 5.59832 3.78796 5.9225C3.46378 6.24669 3.28165 6.68637 3.28165 7.14483V16.5913C3.28164 16.8183 3.32634 17.0431 3.4132 17.2528C3.50006 17.4625 3.62739 17.6531 3.7879 17.8136C3.94842 17.9741 4.13898 18.1015 4.34871 18.1883C4.55844 18.2752 4.78322 18.3199 5.01023 18.3199H7.23738V20.943C7.23737 21.0627 7.27287 21.1797 7.33938 21.2792C7.40588 21.3788 7.50042 21.4563 7.61102 21.5022C7.72162 21.548 7.84332 21.5599 7.96073 21.5366C8.07814 21.5132 8.18599 21.4555 8.27062 21.3709L11.3216 18.3199H14.1201V16.5791C14.1208 15.9237 14.3815 15.2953 14.845 14.8319C15.3085 14.3685 15.9369 14.1078 16.5923 14.1072H21.4334ZM16.2862 12.827C16.2862 12.9404 16.2412 13.0492 16.161 13.1294C16.0808 13.2096 15.972 13.2547 15.8586 13.2548H13.7441V15.3691C13.7441 15.4253 13.733 15.4809 13.7116 15.5328C13.6901 15.5847 13.6586 15.6318 13.6189 15.6715C13.5792 15.7112 13.532 15.7427 13.4801 15.7642C13.4282 15.7857 13.3726 15.7968 13.3165 15.7968H11.3985C11.2851 15.7968 11.1763 15.7517 11.0961 15.6715C11.0159 15.5913 10.9709 15.4825 10.9709 15.3691V13.2547H8.85626C8.74285 13.2547 8.6341 13.2096 8.55391 13.1294C8.47372 13.0492 8.42866 12.9404 8.42865 12.827V10.909C8.42866 10.7956 8.47372 10.6868 8.55391 10.6066C8.6341 10.5264 8.74285 10.4814 8.85626 10.4813H10.9708V8.36692C10.9708 8.31076 10.9818 8.25515 11.0033 8.20326C11.0248 8.15137 11.0563 8.10423 11.096 8.06451C11.1357 8.0248 11.1829 7.9933 11.2348 7.9718C11.2866 7.95031 11.3423 7.93925 11.3984 7.93925H13.3164C13.3726 7.93925 13.4282 7.95031 13.4801 7.97181C13.532 7.9933 13.5791 8.02481 13.6188 8.06453C13.6585 8.10425 13.69 8.15141 13.7115 8.2033C13.733 8.2552 13.7441 8.31081 13.744 8.36698V10.4813H15.8585C15.9719 10.4813 16.0807 10.5264 16.1609 10.6066C16.2412 10.6868 16.2862 10.7956 16.2862 10.909V12.827Z" fill="white"/>
<path id="Vector_2" d="M25.6526 15.5099H16.5917C16.309 15.5099 16.0379 15.6222 15.838 15.8221C15.6381 16.022 15.5258 16.2931 15.5258 16.5758V22.4006C15.5258 22.6833 15.6381 22.9545 15.838 23.1544C16.0379 23.3543 16.309 23.4666 16.5917 23.4666H21.7609L23.6423 25.348C23.6945 25.4002 23.761 25.4357 23.8334 25.4501C23.9058 25.4645 23.9808 25.457 24.049 25.4288C24.1171 25.4005 24.1754 25.3527 24.2164 25.2913C24.2574 25.23 24.2793 25.1578 24.2793 25.0841V23.4666H25.6527C25.7927 23.4666 25.9313 23.439 26.0606 23.3855C26.1899 23.3319 26.3074 23.2534 26.4064 23.1544C26.5054 23.0554 26.5839 22.9379 26.6375 22.8086C26.691 22.6793 26.7186 22.5407 26.7186 22.4007V16.5758C26.7186 16.4358 26.691 16.2972 26.6374 16.1679C26.5839 16.0386 26.5053 15.9211 26.4064 15.8221C26.3074 15.7231 26.1899 15.6446 26.0605 15.5911C25.9312 15.5375 25.7926 15.5099 25.6526 15.5099ZM24.1066 21.5879H18.1182C17.9317 21.5879 17.7529 21.5138 17.621 21.3819C17.4892 21.2501 17.4151 21.0712 17.4151 20.8848C17.4151 20.6983 17.4892 20.5194 17.621 20.3876C17.7529 20.2557 17.9317 20.1816 18.1182 20.1816H24.1065C24.293 20.1816 24.4718 20.2557 24.6037 20.3876C24.7355 20.5194 24.8096 20.6983 24.8096 20.8848C24.8096 21.0712 24.7355 21.2501 24.6037 21.3819C24.4718 21.5138 24.293 21.5879 24.1065 21.5879H24.1066ZM24.1066 18.7754H18.1182C17.9317 18.7754 17.7529 18.7013 17.621 18.5694C17.4892 18.4376 17.4151 18.2587 17.4151 18.0723C17.4151 17.8858 17.4892 17.7069 17.621 17.5751C17.7529 17.4432 17.9317 17.3691 18.1182 17.3691H24.1065C24.293 17.3691 24.4718 17.4432 24.6037 17.5751C24.7355 17.7069 24.8096 17.8858 24.8096 18.0723C24.8096 18.2587 24.7355 18.4376 24.6037 18.5694C24.4718 18.7013 24.293 18.7754 24.1065 18.7754H24.1066Z" fill="white"/>
</g>
</g>
</svg>
