<svg width="30" height="31" viewBox="0 0 30 31" fill="none" xmlns="http://www.w3.org/2000/svg">
<g id="Frame" clip-path="url(#clip0_4_507)">
<g id="Group">
<path id="Vector" d="M17.9504 4.09436C17.7504 2.92436 16.8304 0.0943604 12.5004 0.0943604C8.17042 0.0943604 7.25042 2.92436 7.05542 4.09436H8.05542C8.24042 3.12436 9.04042 1.09436 12.5004 1.09436C15.9354 1.09436 16.7504 3.12436 16.9404 4.09436H17.9504ZM1.00042 10.5544V5.59436C1.00042 5.46175 1.0531 5.33458 1.14687 5.24081C1.24064 5.14704 1.36782 5.09436 1.50042 5.09436H23.5004C23.633 5.09436 23.7602 5.14704 23.854 5.24081C23.9477 5.33458 24.0004 5.46175 24.0004 5.59436V10.5544C24.0011 10.6458 23.9764 10.7356 23.929 10.8137C23.8816 10.8919 23.8133 10.9553 23.7319 10.9969C22.7319 11.5244 20.1919 12.4179 14.4044 12.5819C14.2996 12.2934 14.1087 12.044 13.8576 11.8674C13.6066 11.6908 13.3074 11.5955 13.0004 11.5944H12.0004C11.6935 11.5955 11.3943 11.6908 11.1432 11.8674C10.8921 12.044 10.7013 12.2934 10.5964 12.5819C4.80892 12.4179 2.26942 11.5244 1.26442 10.9944C1.18416 10.9525 1.11703 10.8892 1.07045 10.8115C1.02386 10.7339 0.999629 10.6449 1.00042 10.5544Z" fill="white"/>
<path id="Vector_2" d="M13.0004 12.5944H12.0004C11.7243 12.5944 11.5004 12.8182 11.5004 13.0944V15.0944C11.5004 15.3705 11.7243 15.5944 12.0004 15.5944H13.0004C13.2765 15.5944 13.5004 15.3705 13.5004 15.0944V13.0944C13.5004 12.8182 13.2765 12.5944 13.0004 12.5944Z" fill="white"/>
<path id="Vector_3" d="M2.0004 21.5919C1.8678 21.5919 1.74062 21.5392 1.64685 21.4455C1.55308 21.3517 1.5004 21.2245 1.5004 21.0919V12.1959C2.8819 12.7484 5.5654 13.4304 10.5004 13.5769V15.0919C10.5004 15.4897 10.6584 15.8713 10.9397 16.1526C11.221 16.4339 11.6026 16.5919 12.0004 16.5919H13.0004C13.3982 16.5919 13.7798 16.4339 14.0611 16.1526C14.3424 15.8713 14.5004 15.4897 14.5004 15.0919V13.5769C19.4384 13.4304 22.1219 12.7474 23.5004 12.1964V16.7199C23.3074 16.9336 23.1099 17.1541 22.9079 17.3814L17.4859 15.2169C17.2982 15.1403 17.092 15.1213 16.8935 15.1624C16.6951 15.2034 16.5133 15.3027 16.3714 15.4474L15.5474 16.2714C15.4437 16.377 15.3635 16.5034 15.3123 16.6422C15.2611 16.7811 15.24 16.9293 15.2504 17.0769C15.2609 17.2227 15.3024 17.3645 15.3722 17.4929C15.4419 17.6213 15.5383 17.7333 15.6549 17.8214L19.8364 20.9494L19.2994 21.5919H2.0004Z" fill="white"/>
<path id="Vector_4" d="M27.9679 17.6849C27.2744 18.3779 26.3469 19.2349 25.2859 20.1679C25.2083 20.236 25.1537 20.3266 25.1296 20.427C25.1055 20.5275 25.1131 20.6329 25.1514 20.7289L27.4364 26.5164L26.5709 27.3389L23.1209 22.7339C23.08 22.6793 23.0285 22.6337 22.9694 22.5998C22.9102 22.566 22.8448 22.5445 22.7771 22.5368C22.7094 22.5292 22.6408 22.5354 22.5756 22.5552C22.5104 22.575 22.4499 22.6079 22.3979 22.6519C20.5979 24.1769 18.9619 25.5054 18.3479 26.0054C18.2743 26.0652 18.2192 26.1447 18.1891 26.2347C18.159 26.3246 18.1551 26.4213 18.1779 26.5134L18.6544 28.3899L17.9504 29.0994L17.3409 27.8844C17.3054 27.8135 17.2535 27.7522 17.1896 27.7053C17.1257 27.6585 17.0516 27.6275 16.9734 27.6149C16.9471 27.6107 16.9205 27.6085 16.8939 27.6084C16.7613 27.6084 16.6342 27.6611 16.5404 27.7549L16.1004 28.1944C16.0067 28.2875 15.88 28.3398 15.7479 28.3398C15.6158 28.3398 15.4891 28.2875 15.3954 28.1944C15.3483 28.149 15.3109 28.0947 15.2853 28.0345C15.2598 27.9744 15.2466 27.9097 15.2466 27.8444C15.2466 27.779 15.2598 27.7143 15.2853 27.6542C15.3109 27.5941 15.3483 27.5397 15.3954 27.4944L15.8404 27.0499C15.8962 26.9937 15.9379 26.9251 15.962 26.8498C15.9862 26.7744 15.992 26.6943 15.9792 26.6162C15.9664 26.5381 15.9352 26.4642 15.8882 26.4005C15.8412 26.3368 15.7797 26.2852 15.7089 26.2499L14.5004 25.6509L15.1964 24.9539L17.0809 25.4189C17.173 25.442 17.2697 25.4383 17.3598 25.4082C17.4498 25.378 17.5293 25.3228 17.5889 25.2489C18.6954 23.8864 19.8136 22.5335 20.9434 21.1904C20.9872 21.1383 21.0199 21.0778 21.0395 21.0127C21.0591 20.9475 21.0652 20.8791 21.0574 20.8115C21.0497 20.7439 21.0282 20.6786 20.9943 20.6196C20.9604 20.5606 20.9149 20.5091 20.8604 20.4684L16.2604 16.9774L17.1164 16.1479L22.8664 18.4429C22.9623 18.4812 23.0677 18.4889 23.1682 18.4649C23.2686 18.4409 23.3592 18.3864 23.4274 18.3089C24.3639 17.2429 25.2219 16.3159 25.9114 15.6259C26.4182 15.0599 27.1108 14.694 27.8639 14.5944C28.1639 14.599 28.4503 14.7202 28.6624 14.9324C28.8745 15.1445 28.9958 15.4309 29.0004 15.7309C28.901 16.4843 28.5351 17.1773 27.9689 17.6844L27.9679 17.6849Z" fill="white"/>
</g>
</g>
<defs>
<clipPath id="clip0_4_507">
<rect width="30" height="30" fill="white" transform="translate(0.000404358 0.0943604)"/>
</clipPath>
</defs>
</svg>
