<svg width="30" height="31" viewBox="0 0 30 31" fill="none" xmlns="http://www.w3.org/2000/svg">
<g id="Frame" clip-path="url(#clip0_4_474)">
<g id="Group">
<path id="Vector" d="M15.0004 19.4189C15.3004 19.1189 15.7804 18.6389 16.2604 18.0989C15.8404 18.2189 15.4204 18.2789 15.0004 18.2789C14.5804 18.2789 14.1604 18.2189 13.7404 18.0989C14.2204 18.6389 14.7004 19.1189 15.0004 19.4189ZM9.66038 12.5189C9.72038 12.5189 9.72038 12.5189 9.72038 12.4589C10.5604 15.1589 12.6004 17.6789 14.9404 17.6789C17.2804 17.6789 19.3204 15.1589 20.1604 12.4589L20.2204 12.5189C20.6404 12.6389 21.1804 12.1589 21.3604 11.4389C21.5404 10.7189 21.3604 10.0589 20.9404 9.93886C21.6004 6.99886 21.1804 5.43886 20.6404 4.65886C20.0404 3.75886 19.2004 3.63886 19.0804 3.57886C15.6004 -0.621135 8.70038 2.25886 8.82038 8.61887C8.82038 9.09886 8.88038 9.51886 8.94038 9.87886H8.82038C8.40038 9.99886 8.22038 10.6589 8.40038 11.3789C8.70038 12.0989 9.24038 12.5789 9.66038 12.5189ZM13.6204 23.9789L13.8604 22.2989L13.7404 22.1789L13.0804 22.7189L13.6204 23.9789ZM16.3804 23.9789L16.9204 22.7189L16.2604 22.1789L16.1404 22.2989L16.3804 23.9789ZM20.1604 17.5589L19.1404 15.8789C18.6604 16.4789 18.1204 17.0189 17.5204 17.4389C16.3204 19.1189 15.0004 20.2589 15.0004 20.2589L17.0404 22.0589L20.1604 17.5589ZM12.4804 17.4389C11.8804 17.0189 11.3404 16.4789 10.8604 15.8789L9.84038 17.5589L12.9604 22.0589L15.0004 20.2589C15.0004 20.2589 13.6804 19.1189 12.4804 17.4389ZM15.0004 27.0989L15.9004 25.0589L15.5404 22.0589L15.8404 21.7589L15.0004 21.0389L14.1604 21.7589L14.4604 22.0589L14.1004 25.0589L15.0004 27.0989Z" fill="white"/>
<path id="Vector_2" d="M21.781 18.1037C22.021 18.5237 22.201 18.8837 22.381 19.1837C23.941 19.3037 25.381 20.9837 25.741 23.1437C25.801 23.6237 25.861 24.0437 25.861 24.5237C25.981 24.7037 26.101 24.8837 26.161 25.0637C26.221 25.3637 26.161 25.6637 25.981 25.9037C25.801 26.1437 25.561 26.3237 25.261 26.3837H25.081C24.541 26.3837 24.061 25.9637 23.941 25.4237C23.881 25.0637 24.001 24.7037 24.241 24.4037C24.241 24.0437 24.241 23.6837 24.181 23.3237C23.881 21.7637 22.981 20.7437 22.321 20.7437H22.201C21.901 20.8037 21.541 21.1037 21.361 21.6437C21.121 22.2437 21.061 23.0837 21.241 23.8637C21.301 24.2237 21.421 24.5237 21.541 24.8837C21.841 25.0637 22.081 25.3637 22.201 25.7237C22.321 26.3237 21.901 26.9237 21.241 27.0437H21.061C20.521 27.0437 20.041 26.6237 19.921 26.0837C19.861 25.8437 19.921 25.6637 19.981 25.4837C19.801 25.0637 19.681 24.6437 19.561 24.1637C19.381 23.0237 19.441 21.8837 19.861 20.9237C20.101 20.3837 20.401 19.9037 20.821 19.6037C20.641 19.3037 20.461 18.9437 20.281 18.5837L18.301 21.4637L15.001 28.6037L11.821 21.5237L9.72096 18.5237C8.76096 19.7837 7.80096 21.2237 7.32096 23.6837C7.80096 24.0437 8.04096 24.5837 8.04096 25.1237C8.04096 26.1437 7.20096 26.9237 6.24096 26.9237C5.22096 26.9237 4.38096 26.0837 4.38096 25.1237C4.38096 24.3437 4.86096 23.6837 5.58096 23.3837C6.06096 20.9837 6.90096 19.4837 7.80096 18.1637C5.22096 19.3037 2.16096 21.6437 2.16096 24.2837V29.1437C2.16096 29.8037 2.70096 30.3437 3.36096 30.3437H26.581C27.241 30.3437 27.781 29.8037 27.781 29.1437V24.4037C27.781 21.5837 24.421 19.1837 21.781 18.1037Z" fill="white"/>
<path id="Vector_3" d="M25.1413 23.1993C24.7813 21.1593 23.4013 19.6593 22.0813 19.7193H21.9613C21.7813 19.2993 21.3613 18.4593 20.8813 17.6793C20.8213 17.6793 20.8213 17.6793 20.7613 17.6193L20.4613 18.0393C20.8813 18.6993 21.2413 19.4193 21.4213 19.8393C20.9413 20.0793 20.5213 20.5593 20.2213 21.2193C19.8613 22.0593 19.8013 23.0793 19.9813 24.0993C20.1013 24.6393 20.2213 25.1193 20.4613 25.5993C20.3413 25.7193 20.2813 25.8993 20.2813 26.0793C20.3413 26.3793 20.6413 26.5593 20.9413 26.5593C21.2413 26.4993 21.4213 26.1993 21.4213 25.8993C21.3613 25.6593 21.1813 25.4793 20.9413 25.4793C20.7613 25.0593 20.5813 24.5793 20.4613 24.0993C20.1013 22.1793 20.7613 20.4993 21.9013 20.3193H22.0813C23.1613 20.2593 24.3013 21.5793 24.6613 23.3793C24.7213 23.8593 24.7813 24.3393 24.7213 24.8193C24.5413 24.9393 24.3613 25.1793 24.4213 25.4193C24.4813 25.7193 24.7813 25.8993 25.0813 25.8993C25.3813 25.8393 25.5613 25.5393 25.5613 25.2393C25.5613 25.0593 25.3813 24.9393 25.2613 24.8793C25.2613 24.2793 25.2613 23.7393 25.1413 23.1993ZM9.24127 17.7393C9.12127 17.7993 9.00127 17.7993 8.88127 17.8593C7.74127 19.4793 6.60127 21.0393 6.12127 23.9793C5.52127 24.0393 4.98127 24.5793 4.98127 25.1793C4.98127 25.8393 5.52127 26.3793 6.24127 26.3793C6.90127 26.3793 7.44127 25.8393 7.44127 25.1793C7.44127 24.6393 7.08127 24.2193 6.66127 24.0393C7.14127 21.0993 8.34127 19.4193 9.36127 18.0393L9.24127 17.7393Z" fill="white"/>
</g>
</g>
<defs>
<clipPath id="clip0_4_474">
<rect width="30" height="30" fill="white" transform="translate(0.000801086 0.939636)"/>
</clipPath>
</defs>
</svg>
