<svg width="25" height="26" viewBox="0 0 25 26" fill="none" xmlns="http://www.w3.org/2000/svg">
<g id="Frame" clip-path="url(#clip0_4_519)">
<g id="Group">
<path id="Vector" d="M19.0972 5.08655C17.953 5.08655 17.022 6.01746 17.022 7.16174C17.022 8.30603 17.953 9.23694 19.0972 9.23694C19.4463 9.23729 19.7897 9.14908 20.0953 8.98054L19.6537 8.53894C19.4153 8.30056 19.4153 7.91414 19.6537 7.67576C19.8921 7.43738 20.2785 7.43738 20.5169 7.67576L20.9452 8.10413C21.0948 7.81254 21.1727 7.4895 21.1725 7.16179C21.1724 6.01746 20.2415 5.08655 19.0972 5.08655ZM11.9891 7.91809H13.4614L12.7286 5.97639L11.9891 7.91809Z" fill="white"/>
<path id="Vector_2" d="M22.6815 0.93811H6.0799C4.79895 0.93811 3.76057 1.97649 3.76057 3.25745V11.0699C3.76057 12.3509 4.79895 13.3893 6.0799 13.3893H8.1551V16.0452C8.1551 16.6977 8.94401 17.0245 9.40544 16.5631L12.5793 13.3893H22.6815C23.9624 13.3893 25.0008 12.3509 25.0008 11.0699V3.25745C25.0008 1.97649 23.9624 0.93811 22.6815 0.93811ZM9.20695 7.72317H7.8133V9.84924C7.8133 10.1863 7.54001 10.4596 7.20295 10.4596C6.86589 10.4596 6.5926 10.1863 6.5926 9.84924V4.47815C6.5926 4.14109 6.86589 3.8678 7.20295 3.8678H9.37985C9.71691 3.8678 9.9902 4.14109 9.9902 4.47815C9.9902 4.81521 9.71691 5.0885 9.37985 5.0885H7.8133V6.50247H9.20695C9.54406 6.50247 9.81731 6.77576 9.81731 7.11282C9.81731 7.44988 9.54406 7.72317 9.20695 7.72317ZM15.0563 10.4203C14.9875 10.4463 14.9145 10.4597 14.8409 10.4597C14.5943 10.4598 14.362 10.3092 14.2697 10.0647L13.9211 9.14075H11.5232L11.1706 10.0665C11.0506 10.3815 10.698 10.5396 10.3829 10.4196C10.0679 10.2996 9.90983 9.94695 10.0298 9.63196L12.0467 4.33655L12.0521 4.32268C12.1068 4.18806 12.2005 4.07284 12.3211 3.9918C12.4417 3.91075 12.5838 3.86757 12.7291 3.8678H12.7298C12.878 3.86746 13.0228 3.91229 13.1449 3.99631C13.267 4.08033 13.3606 4.19956 13.4133 4.33811L15.4118 9.63377C15.5309 9.9491 15.3717 10.3013 15.0563 10.4203ZM22.2341 10.2592C21.9958 10.4975 21.6093 10.4975 21.371 10.2592L20.9787 9.86687C20.4446 10.24 19.7958 10.4596 19.0963 10.4596C17.2789 10.4596 15.8004 8.98113 15.8004 7.16374C15.8004 5.34636 17.2789 3.86785 19.0963 3.86785C20.9136 3.86785 22.3922 5.34636 22.3922 7.16374C22.3929 7.81649 22.1986 8.45457 21.8343 8.99617L22.2341 9.39597C22.4725 9.6343 22.4725 10.0208 22.2341 10.2592Z" fill="white"/>
<path id="Vector_3" d="M10.4412 17.5955C10.0253 18.0115 9.47536 18.2406 8.89284 18.2406C7.67834 18.2406 6.6903 17.2542 6.6903 16.0419V14.8508H6.07995C3.99328 14.8508 2.29572 13.1531 2.29572 11.0666V10.0944C1.02609 10.1075 0.000801086 11.1404 0.000801086 12.4131V20.2256C0.000801086 21.5065 1.03918 22.5449 2.32014 22.5449H3.41877V25.2008C3.41877 25.8533 4.20769 26.1801 4.66911 25.7187L7.84294 22.5449H17.9451C19.2261 22.5449 20.2645 21.5065 20.2645 20.2256V14.8508H13.186L10.4412 17.5955Z" fill="white"/>
</g>
</g>
<defs>
<clipPath id="clip0_4_519">
<rect width="25" height="25" fill="white" transform="translate(0.000801086 0.93811)"/>
</clipPath>
</defs>
</svg>
