<svg width="30" height="31" viewBox="0 0 30 31" fill="none" xmlns="http://www.w3.org/2000/svg">
<g id="Frame" clip-path="url(#clip0_4_495)">
<g id="Group">
<g id="Outline close copy 2">
<path id="Vector" d="M20.6242 3.75482C20.6215 3.53451 20.5671 3.31791 20.4653 3.1225C20.3635 2.92709 20.2173 2.75832 20.0383 2.62982C19.8553 2.49536 19.6425 2.40722 19.418 2.37293C19.1935 2.33865 18.964 2.35924 18.7492 2.43294L9.59455 5.62982H20.6242V3.75482ZM15.468 19.4579C15.693 19.4579 16.3164 18.3329 16.4055 16.1767H14.5305C14.6196 18.3329 15.243 19.4579 15.468 19.4579ZM15.468 11.9579C15.243 11.9579 14.6196 13.0829 14.5305 15.2392H16.4055C16.3164 13.0829 15.693 11.9579 15.468 11.9579ZM14.1742 19.2236C13.8055 18.2493 13.6088 17.2183 13.593 16.1767H11.7508C11.8372 16.8577 12.1088 17.502 12.5362 18.0393C12.9635 18.5765 13.5301 18.9862 14.1742 19.2236ZM14.1742 12.1923C13.5301 12.4297 12.9635 12.8394 12.5362 13.3766C12.1088 13.9139 11.8372 14.5582 11.7508 15.2392H13.593C13.6088 14.1976 13.8055 13.1666 14.1742 12.1923Z" fill="white"/>
<path id="Vector_2" d="M6.5633 7.974V28.599C6.5633 28.972 6.71146 29.3296 6.97518 29.5934C7.23891 29.8571 7.59659 30.0052 7.96955 30.0052H22.9696C23.3425 30.0052 23.7002 29.8571 23.9639 29.5934C24.2276 29.3296 24.3758 28.972 24.3758 28.599V7.974C24.3758 7.60104 24.2276 7.24335 23.9639 6.97963C23.7002 6.71591 23.3425 6.56775 22.9696 6.56775H7.96955C7.59659 6.56775 7.23891 6.71591 6.97518 6.97963C6.71146 7.24335 6.5633 7.60104 6.5633 7.974ZM19.2196 25.5521H11.7196C11.5952 25.5521 11.476 25.5027 11.3881 25.4148C11.3002 25.3269 11.2508 25.2077 11.2508 25.0834C11.2508 24.9591 11.3002 24.8398 11.3881 24.7519C11.476 24.664 11.5952 24.6146 11.7196 24.6146H19.2196C19.3439 24.6146 19.4631 24.664 19.551 24.7519C19.6389 24.8398 19.6883 24.9591 19.6883 25.0834C19.6883 25.2077 19.6389 25.3269 19.551 25.4148C19.4631 25.5027 19.3439 25.5521 19.2196 25.5521ZM13.1258 23.6771C13.1258 23.5528 13.1752 23.4336 13.2631 23.3457C13.351 23.2578 13.4702 23.2084 13.5946 23.2084H17.3446C17.4689 23.2084 17.5881 23.2578 17.676 23.3457C17.7639 23.4336 17.8133 23.5528 17.8133 23.6771C17.8133 23.8014 17.7639 23.9207 17.676 24.0086C17.5881 24.0965 17.4689 24.1459 17.3446 24.1459H13.5946C13.4702 24.1459 13.351 24.0965 13.2631 24.0086C13.1752 23.9207 13.1258 23.8014 13.1258 23.6771ZM15.4696 11.0209C16.3967 11.0209 17.3029 11.2958 18.0738 11.8109C18.8446 12.3259 19.4455 13.058 19.8002 13.9145C20.155 14.7711 20.2479 15.7136 20.067 16.6229C19.8861 17.5321 19.4397 18.3674 18.7841 19.0229C18.1286 19.6785 17.2933 20.1249 16.384 20.3058C15.4748 20.4867 14.5323 20.3938 13.6757 20.0391C12.8192 19.6843 12.0871 19.0835 11.572 18.3126C11.057 17.5418 10.7821 16.6355 10.7821 15.7084C10.7821 14.4652 11.2759 13.2729 12.155 12.3938C13.0341 11.5147 14.2263 11.0209 15.4696 11.0209Z" fill="white"/>
<path id="Vector_3" d="M19.186 15.2396C19.0996 14.5586 18.8279 13.9143 18.4006 13.3771C17.9733 12.8398 17.4067 12.4301 16.7625 12.1927C17.1312 13.1671 17.3279 14.198 17.3438 15.2396H19.186ZM19.186 16.1771H17.3438C17.3279 17.2187 17.1312 18.2497 16.7625 19.224C17.4067 18.9866 17.9733 18.577 18.4006 18.0397C18.8279 17.5024 19.0996 16.8582 19.186 16.1771Z" fill="white"/>
</g>
</g>
</g>
<defs>
<clipPath id="clip0_4_495">
<rect width="30" height="30" fill="white" transform="translate(0.000801086 0.942749)"/>
</clipPath>
</defs>
</svg>
