<svg width="660" height="9" viewBox="0 0 660 9" fill="none" xmlns="http://www.w3.org/2000/svg">
<path fill-rule="evenodd" clip-rule="evenodd" d="M15.1719 6.76287C29.1603 6.32612 65.9225 6.30427 165.718 6.2606C321.552 6.19509 445.23 5.71467 479.604 5.01587C482.333 4.95036 263.893 4.46993 241.46 4.81933C206.489 5.38711 39.4809 4.90668 5.87469 4.25156C-3.67836 4.07686 -0.0959278 3.46541 6.13061 3.33438C15.8542 3.11601 41.9547 3.13785 113.517 3.18152C163.842 3.20336 564.216 2.7011 607.973 1.80576C632.538 1.3035 647.464 0.844914 654.288 0.954101C660.003 1.04145 660.088 1.3035 655.141 2.02414C651.814 2.50456 655.567 2.78845 657.956 2.91947C661.623 3.13785 660.088 3.88032 655.482 4.46993C649.256 5.27792 638.508 5.25608 643.626 4.44809C644.735 4.27339 644.991 3.83665 641.067 3.924C629.638 4.18605 548.863 5.97671 526.943 6.28244C292.893 9.60173 64.4724 7.17778 16.1101 7.98576C-1.03421 8.29149 6.81305 7.02491 15.1719 6.76287Z" fill="#011632"/>
</svg>
