<svg width="30" height="31" viewBox="0 0 30 31" fill="none" xmlns="http://www.w3.org/2000/svg">
<g id="Frame" clip-path="url(#clip0_4_485)">
<g id="Group">
<path id="Vector" d="M14.9995 8.349L12.9127 12.5773L8.2465 13.2553L11.623 16.5467L10.8259 21.1939L14.9995 18.9998L19.1731 21.1939L18.376 16.5467L21.7525 13.2553L17.0863 12.5773L14.9995 8.349Z" fill="white"/>
<path id="Vector_2" d="M29.4606 16.8458C30.1805 16.053 30.1805 14.8429 29.4603 14.0502L28.384 12.8593C28.2776 12.7407 28.2032 12.5969 28.1679 12.4415C28.1326 12.2861 28.1374 12.1243 28.182 11.9713L28.6352 10.4351C28.9421 9.40663 28.4153 8.31365 27.4196 7.91311L25.9367 7.31146C25.789 7.25085 25.6592 7.15357 25.5596 7.02882C25.46 6.90408 25.3938 6.75599 25.3674 6.59855L25.1091 5.01649C24.9395 3.95812 23.9928 3.20238 22.9232 3.27161L21.3219 3.37053C21.1629 3.37989 21.0041 3.34848 20.8606 3.27928C20.7171 3.21008 20.5937 3.10538 20.502 2.97511L19.5824 1.66199C18.9694 0.781586 17.7872 0.512272 16.8533 1.04037L15.4566 1.82502C15.3172 1.90287 15.1601 1.94373 15.0004 1.94373C14.8408 1.94373 14.6837 1.90287 14.5443 1.82502L13.1481 1.04059C12.2143 0.512344 11.0318 0.781514 10.4187 1.66192L9.49966 2.97446C9.4085 3.10535 9.28512 3.21052 9.14144 3.27979C8.99776 3.34906 8.83864 3.38009 8.67946 3.36988L7.0785 3.2711C6.00816 3.19972 5.06012 3.95646 4.89255 5.01598L4.63398 6.59783C4.60769 6.75524 4.54162 6.90333 4.44205 7.02805C4.34247 7.15276 4.21268 7.24997 4.06499 7.31045L2.58149 7.91268C1.58608 8.31344 1.05935 9.40605 1.36587 10.4344L1.81905 11.9714C1.86355 12.1244 1.86833 12.2861 1.83294 12.4414C1.79755 12.5967 1.72316 12.7404 1.61679 12.859L0.540547 14.0503C-0.179643 14.843 -0.179643 16.0532 0.540547 16.8458L1.61679 18.0367C1.72316 18.1553 1.79754 18.2991 1.83293 18.4544C1.86832 18.6098 1.86354 18.7716 1.81905 18.9246L1.36558 20.4616C1.05942 21.4898 1.58608 22.5822 2.5812 22.983L4.06441 23.5852C4.2121 23.6457 4.34188 23.7429 4.44146 23.8677C4.54104 23.9924 4.60711 24.1404 4.6334 24.2979L4.89168 25.8797C5.06019 26.9387 6.00773 27.6949 7.07763 27.6243L8.67859 27.5257C8.83771 27.5163 8.99662 27.5476 9.14022 27.6168C9.28381 27.686 9.40734 27.7908 9.49908 27.9212L10.4181 29.2337C11.0307 30.1147 12.2134 30.3844 13.1475 29.8562L14.5445 29.0715C14.6838 28.9933 14.8408 28.9523 15.0005 28.9523C15.1602 28.9523 15.3172 28.9933 15.4565 29.0715L16.8527 29.8562C17.7868 30.3842 18.9694 30.1145 19.5822 29.2337L20.5007 27.9217C20.5929 27.7917 20.7165 27.6872 20.8601 27.6181C21.0036 27.5489 21.1624 27.5173 21.3215 27.5263L22.9219 27.6249C23.9929 27.6984 24.9423 26.9409 25.1084 25.8803L25.3667 24.2984C25.393 24.141 25.459 23.9929 25.5586 23.8682C25.6582 23.7435 25.788 23.6463 25.9357 23.5858L27.4195 22.9836C28.415 22.5828 28.9417 21.49 28.6348 20.4616L28.1816 18.9251C28.1371 18.7721 28.1323 18.6102 28.1677 18.4549C28.2032 18.2995 28.2777 18.1558 28.3842 18.0372L29.4606 16.8458ZM24.2878 15.4479C24.2878 20.5771 20.1297 24.7352 15.0005 24.7352C9.87129 24.7352 5.71325 20.5771 5.71325 15.4479C5.71325 10.3187 9.87136 6.16066 15.0005 6.16066C20.1273 6.16657 24.2819 10.3211 24.2878 15.4479Z" fill="white"/>
</g>
</g>
<defs>
<clipPath id="clip0_4_485">
<rect width="30" height="30" fill="white" transform="translate(0.000404358 0.442749)"/>
</clipPath>
</defs>
</svg>
