<svg width="36" height="36" viewBox="0 0 36 36" fill="none" xmlns="http://www.w3.org/2000/svg">
<path d="M26.3999 8.3999H25.2V9.60014C25.2 11.5852 23.5854 13.2001 21.6 13.2001H14.4C12.4146 13.2001 10.8 11.5852 10.8 9.60014V8.3999H9.60013C8.28037 8.3999 7.20001 9.48062 7.20001 10.8V29.9999C7.20001 31.3197 8.28037 32.4 9.60013 32.4H26.3999C27.7197 32.4 28.8 31.3197 28.8 29.9999V10.8C28.8 9.48062 27.7197 8.3999 26.3999 8.3999ZM14.4 19.1988H16.7987V16.8001H19.1988V19.1988H21.6V21.5989H19.1988V24.0001H16.7987V21.5989H14.4V19.1988ZM25.2 28.8H10.8V26.3999H25.2V28.8Z" fill="white"/>
<path d="M21.6 6.00022H20.4001C20.4001 5.36367 20.1473 4.75319 19.6972 4.30308C19.247 3.85297 18.6366 3.6001 18 3.6001C17.3635 3.6001 16.753 3.85297 16.3029 4.30308C15.8528 4.75319 15.5999 5.36367 15.5999 6.00022H14.4C14.0821 6.00117 13.7774 6.12789 13.5526 6.3527C13.3278 6.57752 13.2011 6.88216 13.2001 7.2001V9.60022C13.2001 10.2597 13.7401 10.8001 14.4 10.8001H21.6C21.9179 10.7991 22.2225 10.6723 22.4473 10.4475C22.6721 10.2227 22.7989 9.91812 22.7999 9.60022V7.2001C22.7999 6.54022 22.2599 6.00022 21.6 6.00022Z" fill="white"/>
</svg>
