<svg width="36" height="36" viewBox="0 0 36 36" fill="none" xmlns="http://www.w3.org/2000/svg">
<path d="M33.75 11.25V7.875C33.75 6.97989 33.3944 6.12145 32.7615 5.48851C32.1286 4.85558 31.2701 4.5 30.375 4.5H25.875V3.375C25.875 3.07663 25.7565 2.79048 25.5455 2.5795C25.3345 2.36853 25.0484 2.25 24.75 2.25C24.4516 2.25 24.1655 2.36853 23.9545 2.5795C23.7435 2.79048 23.625 3.07663 23.625 3.375V4.5H12.375V3.375C12.375 3.07663 12.2565 2.79048 12.0455 2.5795C11.8345 2.36853 11.5484 2.25 11.25 2.25C10.9516 2.25 10.6655 2.36853 10.4545 2.5795C10.2435 2.79048 10.125 3.07663 10.125 3.375V4.5H5.625C4.72989 4.5 3.87145 4.85558 3.23851 5.48851C2.60558 6.12145 2.25 6.97989 2.25 7.875V11.25H33.75ZM2.25 13.5V30.375C2.25 31.2701 2.60558 32.1286 3.23851 32.7615C3.87145 33.3944 4.72989 33.75 5.625 33.75H30.375C31.2701 33.75 32.1286 33.3944 32.7615 32.7615C33.3944 32.1286 33.75 31.2701 33.75 30.375V13.5H2.25ZM24.3562 19.9789L16.4812 26.7289C16.266 26.9129 15.9893 27.009 15.7063 26.9979C15.4233 26.9869 15.1549 26.8695 14.9546 26.6692L11.5796 23.2942C11.3747 23.0821 11.2613 22.7979 11.2639 22.5029C11.2664 22.208 11.3847 21.9258 11.5933 21.7172C11.8019 21.5086 12.0841 21.3903 12.379 21.3877C12.674 21.3852 12.9582 21.4986 13.1704 21.7035L15.8096 24.3428L22.8971 18.2678C23.0087 18.1672 23.1392 18.09 23.2811 18.0407C23.4229 17.9914 23.5732 17.971 23.7231 17.9808C23.8729 17.9905 24.0193 18.0301 24.1536 18.0972C24.2879 18.1644 24.4074 18.2578 24.505 18.3719C24.6027 18.486 24.6765 18.6185 24.7221 18.7616C24.7678 18.9046 24.7843 19.0554 24.7707 19.2049C24.7572 19.3545 24.7138 19.4998 24.6432 19.6324C24.5726 19.7649 24.4762 19.8819 24.3596 19.9766L24.3562 19.9789Z" fill="#11468D"/>
</svg>
