<svg width="84" height="84" viewBox="0 0 84 84" fill="none" xmlns="http://www.w3.org/2000/svg">
<g filter="url(#filter0_d_226_104)">
<rect x="12" y="12" width="60" height="60" rx="30" fill="white" shape-rendering="crispEdges"/>
<path d="M57.75 35.25V31.875C57.75 30.9799 57.3944 30.1214 56.7615 29.4885C56.1286 28.8556 55.2701 28.5 54.375 28.5H49.875V27.375C49.875 27.0766 49.7565 26.7905 49.5455 26.5795C49.3345 26.3685 49.0484 26.25 48.75 26.25C48.4516 26.25 48.1655 26.3685 47.9545 26.5795C47.7435 26.7905 47.625 27.0766 47.625 27.375V28.5H36.375V27.375C36.375 27.0766 36.2565 26.7905 36.0455 26.5795C35.8345 26.3685 35.5484 26.25 35.25 26.25C34.9516 26.25 34.6655 26.3685 34.4545 26.5795C34.2435 26.7905 34.125 27.0766 34.125 27.375V28.5H29.625C28.7299 28.5 27.8714 28.8556 27.2385 29.4885C26.6056 30.1214 26.25 30.9799 26.25 31.875V35.25H57.75ZM26.25 37.5V54.375C26.25 55.2701 26.6056 56.1286 27.2385 56.7615C27.8714 57.3944 28.7299 57.75 29.625 57.75H54.375C55.2701 57.75 56.1286 57.3944 56.7615 56.7615C57.3944 56.1286 57.75 55.2701 57.75 54.375V37.5H26.25ZM48.3562 43.9789L40.4812 50.7289C40.266 50.9129 39.9893 51.009 39.7063 50.9979C39.4233 50.9869 39.1549 50.8695 38.9546 50.6692L35.5796 47.2942C35.3747 47.0821 35.2613 46.7979 35.2639 46.5029C35.2664 46.208 35.3847 45.9258 35.5933 45.7172C35.8019 45.5086 36.0841 45.3903 36.379 45.3877C36.674 45.3852 36.9582 45.4986 37.1704 45.7035L39.8096 48.3428L46.8971 42.2678C47.0087 42.1672 47.1392 42.09 47.2811 42.0407C47.4229 41.9914 47.5732 41.971 47.7231 41.9808C47.8729 41.9905 48.0193 42.0301 48.1536 42.0972C48.2879 42.1644 48.4074 42.2578 48.505 42.3719C48.6027 42.486 48.6765 42.6185 48.7221 42.7616C48.7678 42.9046 48.7843 43.0554 48.7707 43.2049C48.7572 43.3545 48.7138 43.4998 48.6432 43.6324C48.5726 43.7649 48.4762 43.8819 48.3596 43.9766L48.3562 43.9789Z" fill="#11468D"/>
</g>
<defs>
<filter id="filter0_d_226_104" x="0.6" y="0.6" width="82.8" height="82.8" filterUnits="userSpaceOnUse" color-interpolation-filters="sRGB">
<feFlood flood-opacity="0" result="BackgroundImageFix"/>
<feColorMatrix in="SourceAlpha" type="matrix" values="0 0 0 0 0 0 0 0 0 0 0 0 0 0 0 0 0 0 127 0" result="hardAlpha"/>
<feOffset/>
<feGaussianBlur stdDeviation="5.7"/>
<feComposite in2="hardAlpha" operator="out"/>
<feColorMatrix type="matrix" values="0 0 0 0 0.00392157 0 0 0 0 0.0862745 0 0 0 0 0.196078 0 0 0 0.2 0"/>
<feBlend mode="normal" in2="BackgroundImageFix" result="effect1_dropShadow_226_104"/>
<feBlend mode="normal" in="SourceGraphic" in2="effect1_dropShadow_226_104" result="shape"/>
</filter>
</defs>
</svg>
