<svg width="84" height="84" viewBox="0 0 84 84" fill="none" xmlns="http://www.w3.org/2000/svg">
<g filter="url(#filter0_d_226_142)">
<rect x="12" y="12" width="60" height="60" rx="30" fill="#11468D" shape-rendering="crispEdges"/>
<path d="M49.7196 40.4023V32.0475C49.7196 31.7751 49.666 31.5053 49.5617 31.2537C49.4575 31.002 49.3047 30.7733 49.112 30.5807C48.9194 30.388 48.6907 30.2352 48.439 30.131C48.1873 30.0268 47.9176 29.9731 47.6452 29.9731H30.0119C29.4617 29.9731 28.9341 30.1917 28.5451 30.5807C28.156 30.9697 27.9375 31.4973 27.9375 32.0475V43.3832C27.9375 43.6556 27.9911 43.9254 28.0954 44.177C28.1996 44.4287 28.3524 44.6574 28.545 44.85C28.7376 45.0427 28.9663 45.1954 29.218 45.2997C29.4696 45.4039 29.7394 45.4576 30.0118 45.4576H32.6844V48.6053C32.6844 48.7489 32.727 48.8893 32.8068 49.0088C32.8866 49.1282 33 49.2213 33.1327 49.2763C33.2655 49.3313 33.4115 49.3456 33.5524 49.3176C33.6933 49.2895 33.8227 49.2203 33.9243 49.1187L37.5854 45.4576H40.9436V43.3686C40.9445 42.5821 41.2573 41.8281 41.8135 41.272C42.3697 40.7159 43.1238 40.4031 43.9102 40.4023H49.7196ZM43.543 38.8661C43.543 39.0022 43.4889 39.1328 43.3927 39.229C43.2965 39.3253 43.166 39.3794 43.0299 39.3794H40.4924V41.9166C40.4924 41.984 40.4792 42.0508 40.4534 42.113C40.4276 42.1753 40.3898 42.2319 40.3422 42.2795C40.2945 42.3272 40.2379 42.365 40.1757 42.3908C40.1134 42.4166 40.0467 42.4298 39.9793 42.4298H37.6777C37.5416 42.4298 37.4111 42.3758 37.3148 42.2795C37.2186 42.1833 37.1645 42.0527 37.1645 41.9166V39.3793H34.627C34.4909 39.3793 34.3604 39.3252 34.2642 39.229C34.168 39.1327 34.1139 39.0022 34.1139 38.8661V36.5645C34.1139 36.4284 34.168 36.2979 34.2642 36.2017C34.3604 36.1054 34.4909 36.0513 34.627 36.0513H37.1645V33.514C37.1645 33.4466 37.1777 33.3799 37.2035 33.3176C37.2293 33.2554 37.2671 33.1988 37.3147 33.1511C37.3624 33.1035 37.419 33.0657 37.4812 33.0399C37.5435 33.0141 37.6102 33.0008 37.6776 33.0008H39.9792C40.0466 33.0008 40.1134 33.0141 40.1756 33.0399C40.2379 33.0657 40.2945 33.1035 40.3421 33.1511C40.3898 33.1988 40.4276 33.2554 40.4533 33.3177C40.4791 33.3799 40.4924 33.4467 40.4924 33.5141V36.0513H43.0297C43.1658 36.0513 43.2964 36.1054 43.3926 36.2016C43.4889 36.2979 43.543 36.4284 43.543 36.5645V38.8661Z" fill="white"/>
<path d="M54.7833 42.0898H43.9102C43.5709 42.0898 43.2456 42.2246 43.0057 42.4645C42.7659 42.7043 42.6311 43.0297 42.6311 43.3689V50.3587C42.6311 50.6979 42.7659 51.0233 43.0058 51.2631C43.2456 51.503 43.571 51.6378 43.9102 51.6378H50.1132L52.3709 53.8955C52.4336 53.9581 52.5134 54.0007 52.6002 54.018C52.6871 54.0352 52.7771 54.0264 52.8589 53.9925C52.9407 53.9586 53.0107 53.9012 53.0598 53.8275C53.109 53.7539 53.1353 53.6673 53.1353 53.5788V51.6378H54.7834C54.9514 51.6378 55.1177 51.6047 55.2729 51.5405C55.4281 51.4762 55.5691 51.382 55.6878 51.2632C55.8066 51.1444 55.9008 51.0034 55.9651 50.8483C56.0294 50.6931 56.0625 50.5268 56.0625 50.3588V43.3689C56.0625 43.2009 56.0294 43.0346 55.9651 42.8794C55.9008 42.7242 55.8066 42.5832 55.6878 42.4644C55.569 42.3457 55.428 42.2515 55.2728 42.1872C55.1176 42.1229 54.9513 42.0898 54.7833 42.0898ZM52.9281 49.3834H45.742C45.5182 49.3834 45.3036 49.2945 45.1454 49.1362C44.9872 48.978 44.8983 48.7634 44.8983 48.5396C44.8983 48.3158 44.9872 48.1012 45.1454 47.943C45.3036 47.7848 45.5182 47.6959 45.742 47.6959H52.9279C53.1517 47.6959 53.3663 47.7848 53.5246 47.943C53.6828 48.1012 53.7717 48.3158 53.7717 48.5396C53.7717 48.7634 53.6828 48.978 53.5246 49.1362C53.3663 49.2945 53.1517 49.3834 52.9279 49.3834H52.9281ZM52.9281 46.0084H45.742C45.5182 46.0084 45.3036 45.9195 45.1454 45.7612C44.9872 45.603 44.8983 45.3884 44.8983 45.1646C44.8983 44.9408 44.9872 44.7262 45.1454 44.568C45.3036 44.4098 45.5182 44.3209 45.742 44.3209H52.9279C53.1517 44.3209 53.3663 44.4098 53.5246 44.568C53.6828 44.7262 53.7717 44.9408 53.7717 45.1646C53.7717 45.3884 53.6828 45.603 53.5246 45.7612C53.3663 45.9195 53.1517 46.0084 52.9279 46.0084H52.9281Z" fill="white"/>
</g>
<defs>
<filter id="filter0_d_226_142" x="0.6" y="0.6" width="82.8" height="82.8" filterUnits="userSpaceOnUse" color-interpolation-filters="sRGB">
<feFlood flood-opacity="0" result="BackgroundImageFix"/>
<feColorMatrix in="SourceAlpha" type="matrix" values="0 0 0 0 0 0 0 0 0 0 0 0 0 0 0 0 0 0 127 0" result="hardAlpha"/>
<feOffset/>
<feGaussianBlur stdDeviation="5.7"/>
<feComposite in2="hardAlpha" operator="out"/>
<feColorMatrix type="matrix" values="0 0 0 0 0.00392157 0 0 0 0 0.0862745 0 0 0 0 0.196078 0 0 0 0.2 0"/>
<feBlend mode="normal" in2="BackgroundImageFix" result="effect1_dropShadow_226_142"/>
<feBlend mode="normal" in="SourceGraphic" in2="effect1_dropShadow_226_142" result="shape"/>
</filter>
</defs>
</svg>
