<svg width="84" height="84" viewBox="0 0 84 84" fill="none" xmlns="http://www.w3.org/2000/svg">
<g filter="url(#filter0_d_226_123)">
<rect x="12" y="12" width="60" height="60" rx="30" fill="#11468D" shape-rendering="crispEdges"/>
<g clip-path="url(#clip0_226_123)">
<path d="M41.1997 33.8926L42.6519 36.7969H55.0078V33.1406H48.3281C46.9712 33.1406 45.8672 32.0366 45.8672 30.6797V24H30.0469C29.4644 24 28.9922 24.4722 28.9922 25.0547V31.1719H36.7974C38.6737 31.1719 40.3606 32.2144 41.1997 33.8926Z" fill="white"/>
<path d="M48.3281 31.0311H54.39L47.9766 24.6177V30.6795C47.9766 30.8734 48.1343 31.0311 48.3281 31.0311ZM43.0547 47.3436V44.8827H40.9453V47.3436C40.9453 47.9261 40.4731 48.3983 39.8906 48.3983H37.4297V50.5077H39.8906C40.4731 50.5077 40.9453 50.9799 40.9453 51.5623V54.0233H43.0547V51.5623C43.0547 50.9799 43.5269 50.5077 44.1094 50.5077H46.5703V48.3983H44.1094C43.5269 48.3983 43.0547 47.9261 43.0547 47.3436Z" fill="white"/>
<path d="M57.1875 38.9063H42C41.8041 38.9063 41.6121 38.8518 41.4455 38.7488C41.2789 38.6458 41.1442 38.4985 41.0566 38.3233L39.313 34.836C39.0794 34.3688 38.7204 33.9759 38.276 33.7013C37.8317 33.4267 37.3197 33.2813 36.7974 33.2813H26.8125C25.2592 33.2813 24 34.5405 24 36.0938V57.1875C24 58.7408 25.2592 60 26.8125 60H57.1875C58.7408 60 60 58.7408 60 57.1875V41.7188C60 40.1655 58.7408 38.9063 57.1875 38.9063ZM48.6797 51.5625C48.6797 52.145 48.2075 52.6172 47.625 52.6172H45.1641V55.0782C45.1641 55.6606 44.6918 56.1328 44.1094 56.1328H39.8906C39.3082 56.1328 38.8359 55.6606 38.8359 55.0782V52.6172H36.375C35.7925 52.6172 35.3203 52.145 35.3203 51.5625V47.3438C35.3203 46.7613 35.7925 46.2891 36.375 46.2891H38.8359V43.8282C38.8359 43.2457 39.3082 42.7735 39.8906 42.7735H44.1094C44.6918 42.7735 45.1641 43.2457 45.1641 43.8282V46.2891H47.625C48.2075 46.2891 48.6797 46.7613 48.6797 47.3438V51.5625ZM57.1172 32.7056V36.7969H57.1875C58.2327 36.7969 59.2021 37.1254 60 37.6831V36.4453C60 34.6531 58.7743 33.1421 57.1172 32.7056Z" fill="white"/>
</g>
</g>
<defs>
<filter id="filter0_d_226_123" x="0.6" y="0.6" width="82.8" height="82.8" filterUnits="userSpaceOnUse" color-interpolation-filters="sRGB">
<feFlood flood-opacity="0" result="BackgroundImageFix"/>
<feColorMatrix in="SourceAlpha" type="matrix" values="0 0 0 0 0 0 0 0 0 0 0 0 0 0 0 0 0 0 127 0" result="hardAlpha"/>
<feOffset/>
<feGaussianBlur stdDeviation="5.7"/>
<feComposite in2="hardAlpha" operator="out"/>
<feColorMatrix type="matrix" values="0 0 0 0 0.00392157 0 0 0 0 0.0862745 0 0 0 0 0.196078 0 0 0 0.2 0"/>
<feBlend mode="normal" in2="BackgroundImageFix" result="effect1_dropShadow_226_123"/>
<feBlend mode="normal" in="SourceGraphic" in2="effect1_dropShadow_226_123" result="shape"/>
</filter>
<clipPath id="clip0_226_123">
<rect width="36" height="36" fill="white" transform="translate(24 24)"/>
</clipPath>
</defs>
</svg>
