<svg width="36" height="36" viewBox="0 0 36 36" fill="none" xmlns="http://www.w3.org/2000/svg">
<path fill-rule="evenodd" clip-rule="evenodd" d="M23.2431 25.9836C23.4716 25.0812 22.9425 24.178 22.0653 23.943L17.4672 22.7109C17.4019 22.6936 17.3409 22.6629 17.2881 22.6208C15.8295 21.5903 14.7465 21.2164 13.7545 21.2419C12.7509 21.2678 11.7769 21.7062 10.5831 22.29C9.50333 22.8174 8.42016 23.3379 7.33366 23.8513L10.1818 30.6903L11.2775 30.1576C12.0812 29.7669 12.9054 29.6977 13.7635 29.9468L18.8345 31.4192C20.1734 31.808 21.9199 31.1283 23.3054 30.5891L33.132 26.8016C33.8977 26.5065 34.4498 25.7447 34.5938 24.9746C34.6962 24.4271 34.5899 23.8657 34.1275 23.5128C33.5484 23.071 32.4477 22.9396 30.6422 23.4693L24.2734 25.3377C24.2988 25.64 24.2716 25.9445 24.193 26.2375C23.8164 27.6431 22.3545 28.488 20.9489 28.1118L14.8376 26.4743C14.7753 26.4577 14.7168 26.4289 14.6656 26.3896C14.6143 26.3504 14.5713 26.3014 14.539 26.2455C14.5067 26.1896 14.4857 26.1279 14.4772 26.0639C14.4688 25.9999 14.473 25.9349 14.4896 25.8725C14.5063 25.8102 14.5351 25.7517 14.5744 25.7005C14.6136 25.6492 14.6626 25.6062 14.7185 25.5739C14.7744 25.5416 14.8361 25.5206 14.9001 25.5121C14.9641 25.5037 15.0291 25.5079 15.0915 25.5246L21.2253 27.1679C22.0973 27.3884 22.9923 26.8721 23.2431 25.9836ZM30.6905 5.65418C30.8241 5.65378 30.9532 5.70297 31.0527 5.79224C31.1521 5.88152 31.2149 6.00452 31.2289 6.13744L32.9634 22.1471C32.0751 22.0989 31.1331 22.2995 30.3652 22.5247L24.0079 24.3898C23.6839 23.7248 23.0882 23.1981 22.3201 22.9922L17.8084 21.7832C16.6069 20.9407 15.2356 20.2191 13.7291 20.2579C13.5705 20.2621 13.4121 20.2743 13.2546 20.2944L14.7883 6.13737C14.8023 6.00445 14.8651 5.88145 14.9646 5.79217C15.0641 5.7029 15.1931 5.6537 15.3268 5.65411L30.6905 5.65418ZM26.7337 5.65418V4.60392C26.7337 2.55417 25.0584 0.878906 23.0086 0.878906C20.9589 0.878906 19.2836 2.55417 19.2836 4.60392V7.59234C19.2167 7.65773 19.1636 7.73584 19.1274 7.82207C19.0912 7.9083 19.0726 8.00091 19.0727 8.09444C19.0727 8.48278 19.3875 8.79757 19.7758 8.79757C20.1642 8.79757 20.4789 8.48278 20.4789 8.09444C20.479 8.00091 20.4604 7.90831 20.4242 7.82207C20.388 7.73584 20.3349 7.65773 20.268 7.59234V4.60392C20.268 3.09755 21.5023 1.86328 23.0086 1.86328C24.515 1.86328 25.7492 3.09755 25.7492 4.60392V7.59234C25.6823 7.65773 25.6292 7.73584 25.593 7.82207C25.5568 7.9083 25.5382 8.00091 25.5383 8.09444C25.5383 8.48278 25.8531 8.79757 26.2414 8.79757C26.6297 8.79757 26.9445 8.48278 26.9445 8.09444C26.9446 8.00092 26.926 7.90832 26.8898 7.8221C26.8536 7.73588 26.8005 7.65779 26.7336 7.59241V5.65418H26.7337ZM22.0373 12.4708C21.9441 12.471 21.8548 12.508 21.7889 12.5739C21.723 12.6398 21.6859 12.7291 21.6857 12.8223V14.5662H19.9418C19.8486 14.5664 19.7593 14.6035 19.6934 14.6694C19.6275 14.7353 19.5904 14.8246 19.5903 14.9178V16.8605C19.5903 17.0542 19.7482 17.2121 19.9418 17.2121H21.6857V18.956C21.6857 19.1496 21.8436 19.3075 22.0373 19.3075H23.98C24.1736 19.3075 24.3316 19.1496 24.3316 18.956V17.2121H26.0755C26.2691 17.2121 26.427 17.0542 26.427 16.8605V14.9178C26.427 14.7241 26.2691 14.5662 26.0755 14.5662H24.3316V12.8223C24.3316 12.6287 24.1736 12.4708 23.98 12.4708H22.0373ZM23.0086 9.42673C26.5776 9.42673 29.4711 12.3202 29.4711 15.8891C29.4711 19.4581 26.5776 22.3516 23.0086 22.3516C19.4396 22.3516 16.5462 19.4581 16.5462 15.8891C16.5463 12.3202 19.4397 9.42673 23.0086 9.42673ZM23.0086 10.4111C26.0341 10.4111 28.4866 12.8636 28.4866 15.8891C28.4866 18.9146 26.0341 21.3671 23.0086 21.3671C19.9832 21.3671 17.5307 18.9146 17.5307 15.8891C17.5307 12.8637 19.9832 10.4111 23.0086 10.4111ZM9.37772 34.0293L6.9397 35.0416C6.41074 35.2613 5.80029 35.0094 5.58007 34.4807L1.45174 24.5674C1.39853 24.4412 1.37085 24.3058 1.37031 24.1689C1.36977 24.032 1.39638 23.8963 1.44859 23.7697C1.50081 23.6432 1.5776 23.5282 1.67452 23.4315C1.77144 23.3348 1.88657 23.2583 2.01326 23.2064L4.45127 22.194C4.98023 21.9743 5.59069 22.2262 5.81091 22.755L9.9393 32.6682C9.99253 32.7944 10.0202 32.9298 10.0207 33.0668C10.0213 33.2037 9.99468 33.3393 9.94245 33.4659C9.89023 33.5925 9.81343 33.7074 9.71649 33.8041C9.61956 33.9008 9.50441 33.9774 9.37772 34.0293Z" fill="white"/>
</svg>
