<svg width="84" height="84" viewBox="0 0 84 84" fill="none" xmlns="http://www.w3.org/2000/svg">
<g filter="url(#filter0_d_226_149)">
<rect x="12" y="12" width="60" height="60" rx="30" fill="#11468D" shape-rendering="crispEdges"/>
<path fill-rule="evenodd" clip-rule="evenodd" d="M47.2431 49.9836C47.4716 49.0812 46.9425 48.178 46.0653 47.943L41.4672 46.7109C41.4019 46.6936 41.3409 46.6629 41.2881 46.6208C39.8295 45.5903 38.7465 45.2164 37.7545 45.2419C36.7509 45.2678 35.7769 45.7062 34.5831 46.29C33.5033 46.8174 32.4202 47.3379 31.3337 47.8513L34.1818 54.6903L35.2775 54.1576C36.0812 53.7669 36.9054 53.6977 37.7635 53.9468L42.8345 55.4192C44.1734 55.808 45.9199 55.1283 47.3054 54.5891L57.132 50.8016C57.8977 50.5065 58.4498 49.7447 58.5938 48.9746C58.6962 48.4271 58.5899 47.8657 58.1275 47.5128C57.5484 47.071 56.4477 46.9396 54.6422 47.4693L48.2734 49.3377C48.2988 49.64 48.2716 49.9445 48.193 50.2375C47.8164 51.6431 46.3545 52.488 44.9489 52.1118L38.8376 50.4743C38.7753 50.4577 38.7168 50.4289 38.6656 50.3896C38.6143 50.3504 38.5713 50.3014 38.539 50.2455C38.5067 50.1896 38.4857 50.1279 38.4772 50.0639C38.4688 49.9999 38.473 49.9349 38.4896 49.8725C38.5063 49.8102 38.5351 49.7517 38.5744 49.7005C38.6136 49.6492 38.6626 49.6062 38.7185 49.5739C38.7744 49.5416 38.8361 49.5206 38.9001 49.5121C38.9641 49.5037 39.0291 49.5079 39.0915 49.5246L45.2253 51.1679C46.0973 51.3884 46.9923 50.8721 47.2431 49.9836ZM54.6905 29.6542C54.8241 29.6538 54.9532 29.703 55.0527 29.7922C55.1521 29.8815 55.2149 30.0045 55.2289 30.1374L56.9634 46.1471C56.0751 46.0989 55.1331 46.2995 54.3652 46.5247L48.0079 48.3898C47.6839 47.7248 47.0882 47.1981 46.3201 46.9922L41.8084 45.7832C40.6069 44.9407 39.2356 44.2191 37.7291 44.2579C37.5705 44.2621 37.4121 44.2743 37.2546 44.2944L38.7883 30.1374C38.8023 30.0044 38.8651 29.8814 38.9646 29.7922C39.0641 29.7029 39.1931 29.6537 39.3268 29.6541L54.6905 29.6542ZM50.7337 29.6542V28.6039C50.7337 26.5542 49.0584 24.8789 47.0086 24.8789C44.9589 24.8789 43.2836 26.5542 43.2836 28.6039V31.5923C43.2167 31.6577 43.1636 31.7358 43.1274 31.8221C43.0912 31.9083 43.0726 32.0009 43.0727 32.0944C43.0727 32.4828 43.3875 32.7976 43.7758 32.7976C44.1642 32.7976 44.4789 32.4828 44.4789 32.0944C44.479 32.0009 44.4604 31.9083 44.4242 31.8221C44.388 31.7358 44.3349 31.6577 44.268 31.5923V28.6039C44.268 27.0975 45.5023 25.8633 47.0086 25.8633C48.515 25.8633 49.7492 27.0975 49.7492 28.6039V31.5923C49.6823 31.6577 49.6292 31.7358 49.593 31.8221C49.5568 31.9083 49.5382 32.0009 49.5383 32.0944C49.5383 32.4828 49.8531 32.7976 50.2414 32.7976C50.6297 32.7976 50.9445 32.4828 50.9445 32.0944C50.9446 32.0009 50.926 31.9083 50.8898 31.8221C50.8536 31.7359 50.8005 31.6578 50.7336 31.5924V29.6542H50.7337ZM46.0373 36.4708C45.9441 36.471 45.8548 36.508 45.7889 36.5739C45.723 36.6398 45.6859 36.7291 45.6857 36.8223V38.5662H43.9418C43.8486 38.5664 43.7593 38.6035 43.6934 38.6694C43.6275 38.7353 43.5904 38.8246 43.5903 38.9178V40.8605C43.5903 41.0542 43.7482 41.2121 43.9418 41.2121H45.6857V42.956C45.6857 43.1496 45.8436 43.3075 46.0373 43.3075H47.98C48.1736 43.3075 48.3316 43.1496 48.3316 42.956V41.2121H50.0755C50.2691 41.2121 50.427 41.0542 50.427 40.8605V38.9178C50.427 38.7241 50.2691 38.5662 50.0755 38.5662H48.3316V36.8223C48.3316 36.6287 48.1736 36.4708 47.98 36.4708H46.0373ZM47.0086 33.4267C50.5776 33.4267 53.4711 36.3202 53.4711 39.8891C53.4711 43.4581 50.5776 46.3516 47.0086 46.3516C43.4396 46.3516 40.5462 43.4581 40.5462 39.8891C40.5463 36.3202 43.4397 33.4267 47.0086 33.4267ZM47.0086 34.4111C50.0341 34.4111 52.4866 36.8636 52.4866 39.8891C52.4866 42.9146 50.0341 45.3671 47.0086 45.3671C43.9832 45.3671 41.5307 42.9146 41.5307 39.8891C41.5307 36.8637 43.9832 34.4111 47.0086 34.4111ZM33.3777 58.0293L30.9397 59.0416C30.4107 59.2613 29.8003 59.0094 29.5801 58.4807L25.4517 48.5674C25.3985 48.4412 25.3709 48.3058 25.3703 48.1689C25.3698 48.032 25.3964 47.8963 25.4486 47.7697C25.5008 47.6432 25.5776 47.5282 25.6745 47.4315C25.7714 47.3348 25.8866 47.2583 26.0133 47.2064L28.4513 46.194C28.9802 45.9743 29.5907 46.2262 29.8109 46.755L33.9393 56.6682C33.9925 56.7944 34.0202 56.9298 34.0207 57.0668C34.0213 57.2037 33.9947 57.3393 33.9425 57.4659C33.8902 57.5925 33.8134 57.7074 33.7165 57.8041C33.6196 57.9008 33.5044 57.9774 33.3777 58.0293Z" fill="white"/>
</g>
<defs>
<filter id="filter0_d_226_149" x="0.6" y="0.6" width="82.8" height="82.8" filterUnits="userSpaceOnUse" color-interpolation-filters="sRGB">
<feFlood flood-opacity="0" result="BackgroundImageFix"/>
<feColorMatrix in="SourceAlpha" type="matrix" values="0 0 0 0 0 0 0 0 0 0 0 0 0 0 0 0 0 0 127 0" result="hardAlpha"/>
<feOffset/>
<feGaussianBlur stdDeviation="5.7"/>
<feComposite in2="hardAlpha" operator="out"/>
<feColorMatrix type="matrix" values="0 0 0 0 0.00392157 0 0 0 0 0.0862745 0 0 0 0 0.196078 0 0 0 0.2 0"/>
<feBlend mode="normal" in2="BackgroundImageFix" result="effect1_dropShadow_226_149"/>
<feBlend mode="normal" in="SourceGraphic" in2="effect1_dropShadow_226_149" result="shape"/>
</filter>
</defs>
</svg>
