<svg width="32" height="32" viewBox="0 0 32 32" fill="none" xmlns="http://www.w3.org/2000/svg">
<path d="M31.75 9.25V5.875C31.75 4.97989 31.3944 4.12145 30.7615 3.48851C30.1286 2.85558 29.2701 2.5 28.375 2.5H23.875V1.375C23.875 1.07663 23.7565 0.790483 23.5455 0.579505C23.3345 0.368526 23.0484 0.25 22.75 0.25C22.4516 0.25 22.1655 0.368526 21.9545 0.579505C21.7435 0.790483 21.625 1.07663 21.625 1.375V2.5H10.375V1.375C10.375 1.07663 10.2565 0.790483 10.0455 0.579505C9.83452 0.368526 9.54837 0.25 9.25 0.25C8.95163 0.25 8.66548 0.368526 8.4545 0.579505C8.24353 0.790483 8.125 1.07663 8.125 1.375V2.5H3.625C2.72989 2.5 1.87145 2.85558 1.23851 3.48851C0.605579 4.12145 0.25 4.97989 0.25 5.875V9.25H31.75ZM0.25 11.5V28.375C0.25 29.2701 0.605579 30.1286 1.23851 30.7615C1.87145 31.3944 2.72989 31.75 3.625 31.75H28.375C29.2701 31.75 30.1286 31.3944 30.7615 30.7615C31.3944 30.1286 31.75 29.2701 31.75 28.375V11.5H0.25ZM22.3562 17.9789L14.4812 24.7289C14.266 24.9129 13.9893 25.009 13.7063 24.9979C13.4233 24.9869 13.1549 24.8695 12.9546 24.6692L9.57963 21.2942C9.3747 21.0821 9.2613 20.7979 9.26387 20.5029C9.26643 20.208 9.38474 19.9258 9.59333 19.7172C9.80191 19.5086 10.0841 19.3903 10.379 19.3877C10.674 19.3852 10.9582 19.4986 11.1704 19.7035L13.8096 22.3428L20.8971 16.2678C21.0087 16.1672 21.1392 16.09 21.2811 16.0407C21.4229 15.9914 21.5732 15.971 21.7231 15.9808C21.8729 15.9905 22.0193 16.0301 22.1536 16.0972C22.2879 16.1644 22.4074 16.2578 22.505 16.3719C22.6027 16.486 22.6765 16.6185 22.7221 16.7616C22.7678 16.9046 22.7843 17.0554 22.7707 17.2049C22.7572 17.3545 22.7138 17.4998 22.6432 17.6324C22.5726 17.7649 22.4762 17.8819 22.3596 17.9766L22.3562 17.9789Z" fill="#11468D"/>
</svg>
