<svg width="36" height="36" viewBox="0 0 36 36" fill="none" xmlns="http://www.w3.org/2000/svg">
<path d="M25.7196 16.4023V8.0475C25.7196 7.77509 25.666 7.50534 25.5617 7.25365C25.4575 7.00197 25.3047 6.77329 25.112 6.58066C24.9194 6.38804 24.6907 6.23525 24.439 6.13101C24.1873 6.02677 23.9176 5.97313 23.6452 5.97314H6.01186C5.4617 5.97314 4.93408 6.19169 4.54507 6.58071C4.15605 6.96973 3.9375 7.49735 3.9375 8.0475V19.3832C3.93748 19.6556 3.99112 19.9254 4.09536 20.177C4.19959 20.4287 4.35238 20.6574 4.545 20.85C4.73762 21.0427 4.96629 21.1954 5.21797 21.2997C5.46964 21.4039 5.73938 21.4576 6.01179 21.4576H8.68437V24.6053C8.68436 24.7489 8.72695 24.8893 8.80676 25.0088C8.88658 25.1282 9.00002 25.2213 9.13274 25.2763C9.26546 25.3313 9.4115 25.3456 9.5524 25.3176C9.69329 25.2895 9.8227 25.2203 9.92426 25.1187L13.5854 21.4576H16.9436V19.3686C16.9445 18.5821 17.2573 17.8281 17.8135 17.272C18.3697 16.7159 19.1238 16.4031 19.9102 16.4023H25.7196ZM19.543 14.8661C19.543 15.0022 19.4889 15.1328 19.3927 15.229C19.2965 15.3253 19.166 15.3794 19.0299 15.3794H16.4924V17.9166C16.4924 17.984 16.4792 18.0508 16.4534 18.113C16.4276 18.1753 16.3898 18.2319 16.3422 18.2795C16.2945 18.3272 16.2379 18.365 16.1757 18.3908C16.1134 18.4166 16.0467 18.4298 15.9793 18.4298H13.6777C13.5416 18.4298 13.4111 18.3758 13.3148 18.2795C13.2186 18.1833 13.1645 18.0527 13.1645 17.9166V15.3793H10.627C10.4909 15.3793 10.3604 15.3252 10.2642 15.229C10.168 15.1327 10.1139 15.0022 10.1139 14.8661V12.5645C10.1139 12.4284 10.168 12.2979 10.2642 12.2017C10.3604 12.1054 10.4909 12.0513 10.627 12.0513H13.1645V9.51401C13.1645 9.44662 13.1777 9.37989 13.2035 9.31762C13.2293 9.25535 13.2671 9.19878 13.3147 9.15112C13.3624 9.10346 13.419 9.06566 13.4812 9.03987C13.5435 9.01408 13.6102 9.0008 13.6776 9.0008H15.9792C16.0466 9.0008 16.1134 9.01408 16.1756 9.03988C16.2379 9.06567 16.2945 9.10348 16.3421 9.15115C16.3898 9.19881 16.4276 9.25539 16.4533 9.31767C16.4791 9.37994 16.4924 9.44668 16.4924 9.51408V12.0513H19.0297C19.1658 12.0513 19.2964 12.1054 19.3926 12.2016C19.4889 12.2979 19.543 12.4284 19.543 12.5645V14.8661Z" fill="white"/>
<path d="M30.7833 18.0898H19.9102C19.5709 18.0898 19.2456 18.2246 19.0057 18.4645C18.7659 18.7043 18.6311 19.0297 18.6311 19.3689V26.3587C18.6311 26.6979 18.7659 27.0233 19.0058 27.2631C19.2456 27.503 19.571 27.6378 19.9102 27.6378H26.1132L28.3709 29.8955C28.4336 29.9581 28.5134 30.0007 28.6002 30.018C28.6871 30.0352 28.7771 30.0264 28.8589 29.9925C28.9407 29.9586 29.0107 29.9012 29.0598 29.8275C29.109 29.7539 29.1353 29.6673 29.1353 29.5788V27.6378H30.7834C30.9514 27.6378 31.1177 27.6047 31.2729 27.5405C31.4281 27.4762 31.5691 27.382 31.6878 27.2632C31.8066 27.1444 31.9008 27.0034 31.9651 26.8483C32.0294 26.6931 32.0625 26.5268 32.0625 26.3588V19.3689C32.0625 19.2009 32.0294 19.0346 31.9651 18.8794C31.9008 18.7242 31.8066 18.5832 31.6878 18.4644C31.569 18.3457 31.428 18.2515 31.2728 18.1872C31.1176 18.1229 30.9513 18.0898 30.7833 18.0898ZM28.9281 25.3834H21.742C21.5182 25.3834 21.3036 25.2945 21.1454 25.1362C20.9872 24.978 20.8983 24.7634 20.8983 24.5396C20.8983 24.3158 20.9872 24.1012 21.1454 23.943C21.3036 23.7848 21.5182 23.6959 21.742 23.6959H28.9279C29.1517 23.6959 29.3663 23.7848 29.5246 23.943C29.6828 24.1012 29.7717 24.3158 29.7717 24.5396C29.7717 24.7634 29.6828 24.978 29.5246 25.1362C29.3663 25.2945 29.1517 25.3834 28.9279 25.3834H28.9281ZM28.9281 22.0084H21.742C21.5182 22.0084 21.3036 21.9195 21.1454 21.7612C20.9872 21.603 20.8983 21.3884 20.8983 21.1646C20.8983 20.9408 20.9872 20.7262 21.1454 20.568C21.3036 20.4098 21.5182 20.3209 21.742 20.3209H28.9279C29.1517 20.3209 29.3663 20.4098 29.5246 20.568C29.6828 20.7262 29.7717 20.9408 29.7717 21.1646C29.7717 21.3884 29.6828 21.603 29.5246 21.7612C29.3663 21.9195 29.1517 22.0084 28.9279 22.0084H28.9281Z" fill="white"/>
</svg>
