<svg width="36" height="36" viewBox="0 0 36 36" fill="none" xmlns="http://www.w3.org/2000/svg">
<g clip-path="url(#clip0_491_124)">
<path d="M17.1997 9.89262L18.6519 12.7969H31.0078V9.14062H24.3281C22.9712 9.14062 21.8672 8.03665 21.8672 6.67969V0H6.04688C5.46441 0 4.99219 0.472219 4.99219 1.05469V7.17188H12.7974C14.6737 7.17188 16.3606 8.2144 17.1997 9.89262Z" fill="white"/>
<path d="M24.3281 7.03109H30.39L23.9766 0.617676V6.67953C23.9766 6.87338 24.1343 7.03109 24.3281 7.03109ZM19.0547 23.3436V20.8827H16.9453V23.3436C16.9453 23.9261 16.4731 24.3983 15.8906 24.3983H13.4297V26.5077H15.8906C16.4731 26.5077 16.9453 26.9799 16.9453 27.5623V30.0233H19.0547V27.5623C19.0547 26.9799 19.5269 26.5077 20.1094 26.5077H22.5703V24.3983H20.1094C19.5269 24.3983 19.0547 23.9261 19.0547 23.3436Z" fill="white"/>
<path d="M33.1875 14.9063H18C17.8041 14.9063 17.6121 14.8518 17.4455 14.7488C17.2789 14.6458 17.1442 14.4985 17.0566 14.3233L15.313 10.836C15.0794 10.3688 14.7204 9.97591 14.276 9.70132C13.8317 9.42673 13.3197 9.28128 12.7974 9.28129H2.8125C1.25923 9.28129 0 10.5405 0 12.0938V33.1875C0 34.7408 1.25923 36 2.8125 36H33.1875C34.7408 36 36 34.7408 36 33.1875V17.7188C36 16.1655 34.7408 14.9063 33.1875 14.9063ZM24.6797 27.5625C24.6797 28.145 24.2075 28.6172 23.625 28.6172H21.1641V31.0782C21.1641 31.6606 20.6918 32.1328 20.1094 32.1328H15.8906C15.3082 32.1328 14.8359 31.6606 14.8359 31.0782V28.6172H12.375C11.7925 28.6172 11.3203 28.145 11.3203 27.5625V23.3438C11.3203 22.7613 11.7925 22.2891 12.375 22.2891H14.8359V19.8282C14.8359 19.2457 15.3082 18.7735 15.8906 18.7735H20.1094C20.6918 18.7735 21.1641 19.2457 21.1641 19.8282V22.2891H23.625C24.2075 22.2891 24.6797 22.7613 24.6797 23.3438V27.5625ZM33.1172 8.70557V12.7969H33.1875C34.2327 12.7969 35.2021 13.1254 36 13.6831V12.4453C36 10.6531 34.7743 9.14207 33.1172 8.70557Z" fill="white"/>
</g>
<defs>
<clipPath id="clip0_491_124">
<rect width="36" height="36" fill="white"/>
</clipPath>
</defs>
</svg>
