<svg width="103" height="26" viewBox="0 0 103 26" fill="none" xmlns="http://www.w3.org/2000/svg">
<rect x="0.5" y="0.5" width="102" height="25" rx="12.5" stroke="#2F8BF8" stroke-opacity="0.3"/>
<path d="M18.008 18L17.098 15.508H12.758L11.834 18H10.28L14.13 7.948H15.824L19.646 18H18.008ZM14.942 9.628L13.22 14.262H16.636L14.942 9.628ZM23.4216 18.154C21.3916 18.154 19.9636 16.558 19.9636 14.29C19.9636 12.05 21.4196 10.44 23.4216 10.44C25.2556 10.44 26.5856 11.658 26.8516 13.59H25.3676C25.2136 12.4 24.4716 11.686 23.4356 11.686C22.2176 11.686 21.4196 12.722 21.4196 14.29C21.4196 15.872 22.2176 16.894 23.4356 16.894C24.4856 16.894 25.2136 16.194 25.3816 14.99H26.8516C26.5996 16.95 25.2836 18.154 23.4216 18.154ZM31.1326 18.154C29.1026 18.154 27.6746 16.558 27.6746 14.29C27.6746 12.05 29.1306 10.44 31.1326 10.44C32.9666 10.44 34.2966 11.658 34.5626 13.59H33.0786C32.9246 12.4 32.1826 11.686 31.1466 11.686C29.9286 11.686 29.1306 12.722 29.1306 14.29C29.1306 15.872 29.9286 16.894 31.1466 16.894C32.1966 16.894 32.9246 16.194 33.0926 14.99H34.5626C34.3106 16.95 32.9946 18.154 31.1326 18.154ZM38.9695 18.14C36.8275 18.14 35.3855 16.586 35.3855 14.248C35.3855 12.05 36.8835 10.44 38.9275 10.44C41.1395 10.44 42.6095 12.232 42.3575 14.64H36.8275C36.9395 16.152 37.6955 17.034 38.9415 17.034C39.9915 17.034 40.7195 16.46 40.9575 15.494H42.3575C41.9935 17.146 40.7195 18.14 38.9695 18.14ZM38.8995 11.504C37.7655 11.504 36.9955 12.316 36.8415 13.702H40.8595C40.7895 12.33 40.0475 11.504 38.8995 11.504ZM49.7409 15.788C49.7409 17.244 48.6069 18.14 46.6329 18.14C44.6729 18.14 43.5109 17.174 43.3709 15.578H44.7289C44.7849 16.502 45.5269 17.076 46.6609 17.076C47.6549 17.076 48.3129 16.726 48.3129 16.026C48.3129 15.41 47.9349 15.144 47.0109 14.962L45.8069 14.738C44.4349 14.472 43.6649 13.772 43.6649 12.652C43.6649 11.35 44.7989 10.44 46.5209 10.44C48.2989 10.44 49.5029 11.392 49.6289 12.918H48.2709C48.1869 12.022 47.5289 11.504 46.5349 11.504C45.6389 11.504 45.0369 11.882 45.0369 12.526C45.0369 13.128 45.4149 13.408 46.3109 13.576L47.5709 13.814C49.0409 14.08 49.7409 14.724 49.7409 15.788ZM57.1647 15.788C57.1647 17.244 56.0307 18.14 54.0567 18.14C52.0967 18.14 50.9347 17.174 50.7947 15.578H52.1527C52.2087 16.502 52.9507 17.076 54.0847 17.076C55.0787 17.076 55.7367 16.726 55.7367 16.026C55.7367 15.41 55.3587 15.144 54.4347 14.962L53.2307 14.738C51.8587 14.472 51.0887 13.772 51.0887 12.652C51.0887 11.35 52.2227 10.44 53.9447 10.44C55.7227 10.44 56.9267 11.392 57.0527 12.918H55.6947C55.6107 12.022 54.9527 11.504 53.9587 11.504C53.0627 11.504 52.4607 11.882 52.4607 12.526C52.4607 13.128 52.8387 13.408 53.7347 13.576L54.9947 13.814C56.4647 14.08 57.1647 14.724 57.1647 15.788ZM60.4305 8.858C60.4305 9.39 60.0105 9.796 59.4085 9.796C58.8065 9.796 58.3725 9.39 58.3725 8.858C58.3725 8.312 58.8065 7.92 59.4085 7.92C60.0105 7.92 60.4305 8.312 60.4305 8.858ZM60.1225 18H58.7085V10.58H60.1225V18ZM69.1695 14.29C69.1695 16.516 67.8815 18.14 65.8795 18.14C64.8295 18.14 63.9335 17.608 63.4015 16.67V18H62.0855V7.948H63.4995V11.854C64.0175 10.944 64.8715 10.44 65.8795 10.44C67.8675 10.44 69.1695 12.036 69.1695 14.29ZM67.6995 14.29C67.6995 12.61 66.8175 11.686 65.5995 11.686C64.4235 11.686 63.4995 12.596 63.4995 14.262C63.4995 15.9 64.3955 16.88 65.5995 16.88C66.8175 16.88 67.6995 15.942 67.6995 14.29ZM72.325 8.858C72.325 9.39 71.905 9.796 71.303 9.796C70.701 9.796 70.267 9.39 70.267 8.858C70.267 8.312 70.701 7.92 71.303 7.92C71.905 7.92 72.325 8.312 72.325 8.858ZM72.017 18H70.603V10.58H72.017V18ZM75.408 18H73.98V7.948H75.408V18ZM79.0926 8.858C79.0926 9.39 78.6726 9.796 78.0706 9.796C77.4686 9.796 77.0346 9.39 77.0346 8.858C77.0346 8.312 77.4686 7.92 78.0706 7.92C78.6726 7.92 79.0926 8.312 79.0926 8.858ZM78.7846 18H77.3706V10.58H78.7846V18ZM84.9336 16.628V17.874C84.4996 18.07 84.1216 18.14 83.6736 18.14C82.3016 18.14 81.3496 17.398 81.3496 15.76V11.784H79.7116V10.58H81.3496V8.382H82.7636V10.58H85.0036V11.784H82.7636V15.438C82.7636 16.46 83.2536 16.824 84.0096 16.824C84.3456 16.824 84.6396 16.768 84.9336 16.628ZM92.513 10.58L88.803 20.702H87.263L88.327 17.902L85.401 10.58H86.927L89.083 16.236L91.085 10.58H92.513Z" fill="#011632" fill-opacity="0.5"/>
</svg>
