<svg width="69" height="26" viewBox="0 0 69 26" fill="none" xmlns="http://www.w3.org/2000/svg">
<rect x="0.5" y="0.5" width="68" height="25" rx="12.5" stroke="#2F8BF8" stroke-opacity="0.3"/>
<path d="M15.6535 18H14.1135V7.948H15.6535V12.148H20.7495V7.948H22.2895V18H20.7495V13.492H15.6535V18ZM27.4168 18.14C25.2748 18.14 23.8328 16.586 23.8328 14.248C23.8328 12.05 25.3308 10.44 27.3748 10.44C29.5868 10.44 31.0568 12.232 30.8048 14.64H25.2748C25.3868 16.152 26.1428 17.034 27.3888 17.034C28.4388 17.034 29.1668 16.46 29.4048 15.494H30.8048C30.4408 17.146 29.1668 18.14 27.4168 18.14ZM27.3468 11.504C26.2128 11.504 25.4428 12.316 25.2888 13.702H29.3068C29.2368 12.33 28.4948 11.504 27.3468 11.504ZM36.8021 18V16.852C36.3401 17.678 35.5141 18.14 34.4221 18.14C32.8821 18.14 31.8741 17.258 31.8741 15.9C31.8741 14.444 33.0361 13.688 35.2481 13.688C35.6821 13.688 36.0321 13.702 36.6341 13.772V13.226C36.6341 12.162 36.0601 11.56 35.0801 11.56C34.0441 11.56 33.4141 12.176 33.3721 13.212H32.0841C32.1541 11.546 33.3441 10.44 35.0801 10.44C36.9141 10.44 37.9781 11.476 37.9781 13.24V18H36.8021ZM33.2181 15.858C33.2181 16.628 33.7921 17.132 34.7021 17.132C35.8921 17.132 36.6341 16.39 36.6341 15.256V14.654C36.0881 14.584 35.6961 14.57 35.3321 14.57C33.9181 14.57 33.2181 14.99 33.2181 15.858ZM41.2967 18H39.8687V7.948H41.2967V18ZM47.4453 16.628V17.874C47.0113 18.07 46.6333 18.14 46.1853 18.14C44.8133 18.14 43.8613 17.398 43.8613 15.76V11.784H42.2233V10.58H43.8613V8.382H45.2753V10.58H47.5153V11.784H45.2753V15.438C45.2753 16.46 45.7653 16.824 46.5213 16.824C46.8573 16.824 47.1513 16.768 47.4453 16.628ZM50.2788 13.814V18H48.8648V7.948H50.2788V11.77C50.7688 10.972 51.5248 10.44 52.5468 10.44C54.0728 10.44 55.0808 11.42 55.0808 13.198V18H53.6668V13.674C53.6668 12.4 53.1068 11.686 52.0568 11.686C51.0908 11.686 50.2788 12.498 50.2788 13.814Z" fill="#011632" fill-opacity="0.5"/>
</svg>
