<svg width="77" height="26" viewBox="0 0 77 26" fill="none" xmlns="http://www.w3.org/2000/svg">
<rect x="0.5" y="0.5" width="76" height="25" rx="12.5" stroke="#2F8BF8" stroke-opacity="0.3"/>
<path d="M18.442 15.06C18.442 16.81 17.042 18.14 14.606 18.14C12.184 18.14 10.714 16.81 10.588 14.808H12.156C12.226 16.082 13.038 16.908 14.578 16.908C15.852 16.908 16.804 16.306 16.804 15.27C16.804 14.43 16.258 14.01 15.096 13.758L13.64 13.478C12.226 13.198 10.938 12.484 10.938 10.776C10.938 9.082 12.422 7.808 14.508 7.808C16.594 7.808 18.176 9.082 18.302 11.084H16.734C16.65 9.88 15.782 9.04 14.522 9.04C13.22 9.04 12.506 9.81 12.506 10.678C12.506 11.63 13.332 11.966 14.27 12.162L15.754 12.456C17.476 12.806 18.442 13.562 18.442 15.06ZM23.1648 18.14C21.0228 18.14 19.5808 16.586 19.5808 14.248C19.5808 12.05 21.0788 10.44 23.1228 10.44C25.3348 10.44 26.8048 12.232 26.5528 14.64H21.0228C21.1348 16.152 21.8908 17.034 23.1368 17.034C24.1868 17.034 24.9148 16.46 25.1528 15.494H26.5528C26.1888 17.146 24.9148 18.14 23.1648 18.14ZM23.0948 11.504C21.9608 11.504 21.1908 12.316 21.0368 13.702H25.0548C24.9848 12.33 24.2428 11.504 23.0948 11.504ZM29.4702 14.206V18H28.0562V10.58H29.3722V12.148C29.8902 11.126 31.0102 10.482 32.2282 10.482V11.952C30.6322 11.868 29.4702 12.568 29.4702 14.206ZM39.6439 10.58L36.8579 18H35.3179L32.5319 10.58H34.0579L36.1159 16.376L38.2019 10.58H39.6439ZM42.37 8.858C42.37 9.39 41.95 9.796 41.348 9.796C40.746 9.796 40.312 9.39 40.312 8.858C40.312 8.312 40.746 7.92 41.348 7.92C41.95 7.92 42.37 8.312 42.37 8.858ZM42.062 18H40.648V10.58H42.062V18ZM46.9509 18.154C44.9209 18.154 43.4929 16.558 43.4929 14.29C43.4929 12.05 44.9489 10.44 46.9509 10.44C48.7849 10.44 50.1149 11.658 50.3809 13.59H48.8969C48.7429 12.4 48.0009 11.686 46.9649 11.686C45.7469 11.686 44.9489 12.722 44.9489 14.29C44.9489 15.872 45.7469 16.894 46.9649 16.894C48.0149 16.894 48.7429 16.194 48.9109 14.99H50.3809C50.1289 16.95 48.8129 18.154 46.9509 18.154ZM54.7879 18.14C52.6459 18.14 51.2039 16.586 51.2039 14.248C51.2039 12.05 52.7019 10.44 54.7459 10.44C56.9579 10.44 58.4279 12.232 58.1759 14.64H52.6459C52.7579 16.152 53.5139 17.034 54.7599 17.034C55.8099 17.034 56.5379 16.46 56.7759 15.494H58.1759C57.8119 17.146 56.5379 18.14 54.7879 18.14ZM54.7179 11.504C53.5839 11.504 52.8139 12.316 52.6599 13.702H56.6779C56.6079 12.33 55.8659 11.504 54.7179 11.504ZM65.5592 15.788C65.5592 17.244 64.4252 18.14 62.4512 18.14C60.4912 18.14 59.3292 17.174 59.1892 15.578H60.5472C60.6032 16.502 61.3452 17.076 62.4792 17.076C63.4732 17.076 64.1312 16.726 64.1312 16.026C64.1312 15.41 63.7532 15.144 62.8292 14.962L61.6252 14.738C60.2532 14.472 59.4832 13.772 59.4832 12.652C59.4832 11.35 60.6172 10.44 62.3392 10.44C64.1172 10.44 65.3212 11.392 65.4472 12.918H64.0892C64.0052 12.022 63.3472 11.504 62.3532 11.504C61.4572 11.504 60.8552 11.882 60.8552 12.526C60.8552 13.128 61.2332 13.408 62.1292 13.576L63.3892 13.814C64.8592 14.08 65.5592 14.724 65.5592 15.788Z" fill="#011632" fill-opacity="0.5"/>
</svg>
