<svg width="79" height="26" viewBox="0 0 79 26" fill="none" xmlns="http://www.w3.org/2000/svg">
<rect x="0.5" y="0.5" width="78" height="25" rx="12.5" stroke="#2F8BF8" stroke-opacity="0.3"/>
<path d="M15.474 18.21C12.674 18.21 10.504 15.928 10.504 12.96C10.504 10.006 12.674 7.738 15.474 7.738C17.994 7.738 20.01 9.418 20.388 11.896H18.75C18.47 10.272 17.154 9.124 15.488 9.124C13.5 9.124 12.1 10.734 12.1 12.96C12.1 15.214 13.5 16.824 15.488 16.824C17.154 16.824 18.47 15.662 18.75 14.038H20.388C20.01 16.53 17.994 18.21 15.474 18.21ZM23.2905 13.814V18H21.8765V7.948H23.2905V11.77C23.7805 10.972 24.5365 10.44 25.5585 10.44C27.0845 10.44 28.0925 11.42 28.0925 13.198V18H26.6785V13.674C26.6785 12.4 26.1185 11.686 25.0685 11.686C24.1025 11.686 23.2905 12.498 23.2905 13.814ZM33.0222 18.14C30.8802 18.14 29.4382 16.586 29.4382 14.248C29.4382 12.05 30.9362 10.44 32.9802 10.44C35.1922 10.44 36.6622 12.232 36.4102 14.64H30.8802C30.9922 16.152 31.7482 17.034 32.9942 17.034C34.0442 17.034 34.7722 16.46 35.0102 15.494H36.4102C36.0462 17.146 34.7722 18.14 33.0222 18.14ZM32.9522 11.504C31.8182 11.504 31.0482 12.316 30.8942 13.702H34.9122C34.8422 12.33 34.1002 11.504 32.9522 11.504ZM40.7029 18.154C38.6729 18.154 37.2449 16.558 37.2449 14.29C37.2449 12.05 38.7009 10.44 40.7029 10.44C42.5369 10.44 43.8669 11.658 44.1329 13.59H42.6489C42.4949 12.4 41.7529 11.686 40.7169 11.686C39.4989 11.686 38.7009 12.722 38.7009 14.29C38.7009 15.872 39.4989 16.894 40.7169 16.894C41.7669 16.894 42.4949 16.194 42.6629 14.99H44.1329C43.8809 16.95 42.5649 18.154 40.7029 18.154ZM46.9702 18H45.5562V7.948H46.9702V13.898L50.1482 10.58H51.8142L48.3842 14.178L52.1362 18H50.3162L46.9702 14.486V18ZM57.7644 14.948V10.58H59.1784V18H57.8624V16.824C57.4704 17.594 56.6024 18.14 55.5944 18.14C54.0964 18.14 53.0604 17.258 53.0604 15.354V10.58H54.4744V15.074C54.4744 16.362 55.1184 16.894 56.0424 16.894C56.9944 16.894 57.7644 16.11 57.7644 14.948ZM68.2261 14.29C68.2261 16.53 66.9381 18.14 64.9501 18.14C63.9421 18.14 63.0881 17.636 62.5561 16.74V20.702H61.1421V10.58H62.4581V11.938C62.9901 10.986 63.9001 10.44 64.9501 10.44C66.9241 10.44 68.2261 12.05 68.2261 14.29ZM66.7561 14.29C66.7561 12.624 65.8741 11.686 64.6561 11.686C63.4801 11.686 62.5561 12.624 62.5561 14.29C62.5561 15.928 63.4661 16.88 64.6561 16.88C65.8741 16.88 66.7561 15.956 66.7561 14.29Z" fill="#011632" fill-opacity="0.5"/>
</svg>
