<svg width="24" height="24" viewBox="0 0 24 24" fill="none" xmlns="http://www.w3.org/2000/svg">
<path fill-rule="evenodd" clip-rule="evenodd" d="M10.4993 1.84375C9.14387 1.84387 7.80814 2.16811 6.60353 2.78944C5.39893 3.41077 4.36037 4.31117 3.57451 5.4155C2.78866 6.51984 2.27829 7.7961 2.08599 9.13779C1.89368 10.4795 2.02503 11.8477 2.46906 13.1283C2.91308 14.4089 3.65692 15.5648 4.63851 16.4995C5.6201 17.4341 6.81098 18.1205 8.11179 18.5014C9.4126 18.8822 10.7856 18.9464 12.1163 18.6887C13.447 18.4309 14.6967 17.8587 15.7613 17.0198L19.4133 20.6717C19.6019 20.8539 19.8545 20.9547 20.1167 20.9524C20.3789 20.9501 20.6297 20.845 20.8151 20.6596C21.0005 20.4742 21.1057 20.2233 21.108 19.9612C21.1102 19.699 21.0094 19.4464 20.8273 19.2577L17.1753 15.6058C18.1633 14.3524 18.7784 12.8462 18.9504 11.2595C19.1223 9.6728 18.8441 8.06977 18.1475 6.63384C17.4509 5.19792 16.3642 3.98711 15.0116 3.13998C13.659 2.29286 12.0952 1.84364 10.4993 1.84375ZM3.99928 10.3438C3.99928 8.61984 4.6841 6.96654 5.90308 5.74756C7.12207 4.52857 8.77537 3.84375 10.4993 3.84375C12.2232 3.84375 13.8765 4.52857 15.0955 5.74756C16.3145 6.96654 16.9993 8.61984 16.9993 10.3438C16.9993 12.0677 16.3145 13.721 15.0955 14.9399C13.8765 16.1589 12.2232 16.8438 10.4993 16.8438C8.77537 16.8438 7.12207 16.1589 5.90308 14.9399C4.6841 13.721 3.99928 12.0677 3.99928 10.3438Z" fill="#1376F8"/>
</svg>
