<svg width="24" height="25" viewBox="0 0 24 25" fill="none" xmlns="http://www.w3.org/2000/svg">
<path fill-rule="evenodd" clip-rule="evenodd" d="M2.34407 2.33784C2.49334 2.20817 2.6777 2.12567 2.87384 2.10075C3.06999 2.07583 3.26912 2.10962 3.44607 2.19784L21.4461 11.1978C21.6125 11.2808 21.7525 11.4085 21.8503 11.5666C21.9482 11.7247 22 11.9069 22 12.0928C22 12.2788 21.9482 12.461 21.8503 12.6191C21.7525 12.7772 21.6125 12.9049 21.4461 12.9878L3.44607 21.9878C3.26914 22.0764 3.06991 22.1104 2.87362 22.0857C2.67732 22.061 2.49277 21.9786 2.34332 21.8489C2.19386 21.7193 2.08623 21.5482 2.03403 21.3574C1.98183 21.1665 1.98741 20.9645 2.05007 20.7768L4.61207 13.0928H9.99907C10.2643 13.0928 10.5186 12.9875 10.7062 12.7999C10.8937 12.6124 10.9991 12.3581 10.9991 12.0928C10.9991 11.8276 10.8937 11.5733 10.7062 11.3857C10.5186 11.1982 10.2643 11.0928 9.99907 11.0928H4.61207L2.04907 3.40884C1.98673 3.22125 1.98139 3.0194 2.03372 2.82877C2.08605 2.63815 2.1947 2.46731 2.34407 2.33784Z" fill="#3B4B60"/>
</svg>
