<svg width="104" height="21" viewBox="0 0 104 21" fill="none" xmlns="http://www.w3.org/2000/svg">
<g id="Group 346">
<path id="Star 1" d="M10 0.0927734L12.2451 7.0026H19.5106L13.6327 11.2731L15.8779 18.1829L10 13.9124L4.12215 18.1829L6.36729 11.2731L0.489435 7.0026H7.75486L10 0.0927734Z" fill="#EC942C"/>
<path id="Star 2" d="M31 0.0927734L33.2451 7.0026H40.5106L34.6327 11.2731L36.8779 18.1829L31 13.9124L25.1221 18.1829L27.3673 11.2731L21.4894 7.0026H28.7549L31 0.0927734Z" fill="#EC942C"/>
<path id="Star 3" d="M52 0.0927734L54.2451 7.0026H61.5106L55.6327 11.2731L57.8779 18.1829L52 13.9124L46.1221 18.1829L48.3673 11.2731L42.4894 7.0026H49.7549L52 0.0927734Z" fill="#EC942C"/>
<path id="Star 4" d="M73 0.0927734L75.2451 7.0026H82.5106L76.6327 11.2731L78.8779 18.1829L73 13.9124L67.1221 18.1829L69.3673 11.2731L63.4894 7.0026H70.7549L73 0.0927734Z" fill="#EC942C"/>
<path id="Star 5" d="M94 0.0927734L96.2451 7.0026H103.511L97.6327 11.2731L99.8779 18.1829L94 13.9124L88.1221 18.1829L90.3673 11.2731L84.4894 7.0026H91.7549L94 0.0927734Z" fill="#EC942C"/>
</g>
</svg>
