<svg width="440" height="10" viewBox="0 0 440 10" fill="none" xmlns="http://www.w3.org/2000/svg">
<path fill-rule="evenodd" clip-rule="evenodd" d="M10.3438 8.0747C19.6592 7.4761 44.1404 7.44617 110.598 7.38631C214.373 7.29651 296.735 6.63806 319.626 5.68029C321.444 5.5905 175.976 4.93204 161.037 5.41092C137.749 6.18911 26.532 5.53064 4.1524 4.63274C-2.20932 4.39329 0.176353 3.55525 4.32283 3.37567C10.7981 3.07636 28.1794 3.1063 75.8357 3.16616C109.348 3.19609 375.973 2.50769 405.112 1.28055C421.47 0.592161 431.41 -0.0363712 435.955 0.113279C439.76 0.233001 439.817 0.592161 436.523 1.57986C434.307 2.23832 436.807 2.62741 438.397 2.80699C440.839 3.1063 439.817 4.12392 436.75 4.93204C432.603 6.03945 425.446 6.00952 428.854 4.90211C429.593 4.66266 429.763 4.06406 427.15 4.18378C419.539 4.54295 365.748 6.99722 351.151 7.41624C195.288 11.9656 43.1748 8.64338 10.9685 9.7508C-0.448485 10.1698 4.77729 8.43387 10.3438 8.0747Z" fill="#25B4F8"/>
</svg>
