<svg width="366" height="8" viewBox="0 0 366 8" fill="none" xmlns="http://www.w3.org/2000/svg">
<path fill-rule="evenodd" clip-rule="evenodd" d="M-2.03052 4.33045C5.94424 4.58961 26.8927 4.3373 83.7599 3.63943C172.56 2.54747 243.04 2.03598 262.633 2.36242C264.189 2.39665 139.718 4.40169 126.932 4.27706C107 4.06363 11.8374 5.69035 -7.30702 6.48063C-12.7492 6.69572 -10.7026 7.17624 -7.15337 7.23906C-1.61068 7.34856 13.262 7.13846 54.0405 6.57586C82.7166 6.18759 310.868 3.6589 335.809 4.07924C349.811 4.31491 358.321 4.58526 362.208 4.44456C365.464 4.33011 365.51 4.11226 362.685 3.55126C360.786 3.17747 362.922 2.91453 364.282 2.78835C366.37 2.58035 365.488 1.97615 362.859 1.52127C359.304 0.897272 353.18 0.994429 356.103 1.62658C356.736 1.76324 356.886 2.12341 354.649 2.07986C348.134 1.9467 302.091 1.05645 289.597 0.96426C156.2 -0.0657197 26.059 3.62386 -1.50634 3.30981C-11.2783 3.18248 -6.79592 4.1747 -2.03052 4.33045Z" fill="#25B4F8"/>
</svg>
